<svg id="mermaid-_r_sh_" width="1444.578125" xmlns="http://www.w3.org/2000/svg" class="erDiagram" height="692" viewBox="0 0 1444.578125 692" role="graphics-document document" aria-roledescription="er"><style>#mermaid-_r_sh_{font-family:"trebuchet ms",verdana,arial,sans-serif;font-size:16px;fill:#ccc;}@keyframes edge-animation-frame{from{stroke-dashoffset:0;}}@keyframes dash{to{stroke-dashoffset:0;}}#mermaid-_r_sh_ .edge-animation-slow{stroke-dasharray:9,5!important;stroke-dashoffset:900;animation:dash 50s linear infinite;stroke-linecap:round;}#mermaid-_r_sh_ .edge-animation-fast{stroke-dasharray:9,5!important;stroke-dashoffset:900;animation:dash 20s linear infinite;stroke-linecap:round;}#mermaid-_r_sh_ .error-icon{fill:#a44141;}#mermaid-_r_sh_ .error-text{fill:#ddd;stroke:#ddd;}#mermaid-_r_sh_ .edge-thickness-normal{stroke-width:1px;}#mermaid-_r_sh_ .edge-thickness-thick{stroke-width:3.5px;}#mermaid-_r_sh_ .edge-pattern-solid{stroke-dasharray:0;}#mermaid-_r_sh_ .edge-thickness-invisible{stroke-width:0;fill:none;}#mermaid-_r_sh_ .edge-pattern-dashed{stroke-dasharray:3;}#mermaid-_r_sh_ .edge-pattern-dotted{stroke-dasharray:2;}#mermaid-_r_sh_ .marker{fill:lightgrey;stroke:lightgrey;}#mermaid-_r_sh_ .marker.cross{stroke:lightgrey;}#mermaid-_r_sh_ svg{font-family:"trebuchet ms",verdana,arial,sans-serif;font-size:16px;}#mermaid-_r_sh_ p{margin:0;}#mermaid-_r_sh_ .entityBox{fill:#1f2020;stroke:#ccc;}#mermaid-_r_sh_ .relationshipLabelBox{fill:hsl(20, 1.5873015873%, 12.3529411765%);opacity:0.7;background-color:hsl(20, 1.5873015873%, 12.3529411765%);}#mermaid-_r_sh_ .relationshipLabelBox rect{opacity:0.5;}#mermaid-_r_sh_ .labelBkg{background-color:rgba(32.0000000001, 31.3333333334, 31.0000000001, 0.5);}#mermaid-_r_sh_ .edgeLabel .label{fill:#ccc;font-size:14px;}#mermaid-_r_sh_ .label{font-family:"trebuchet ms",verdana,arial,sans-serif;color:#ccc;}#mermaid-_r_sh_ .edge-pattern-dashed{stroke-dasharray:8,8;}#mermaid-_r_sh_ .node rect,#mermaid-_r_sh_ .node circle,#mermaid-_r_sh_ .node ellipse,#mermaid-_r_sh_ .node polygon{fill:#1f2020;stroke:#ccc;stroke-width:1px;}#mermaid-_r_sh_ .relationshipLine{stroke:lightgrey;stroke-width:1;fill:none;}#mermaid-_r_sh_ .marker{fill:none!important;stroke:lightgrey!important;stroke-width:1;}#mermaid-_r_sh_ :root{--mermaid-font-family:"trebuchet ms",verdana,arial,sans-serif;}</style><g><defs><marker id="mermaid-_r_sh__er-onlyOneStart" class="marker onlyOne er" refX="0" refY="9" markerWidth="18" markerHeight="18" orient="auto"><path d="M9,0 L9,18 M15,0 L15,18"></path></marker></defs><defs><marker id="mermaid-_r_sh__er-onlyOneEnd" class="marker onlyOne er" refX="18" refY="9" markerWidth="18" markerHeight="18" orient="auto"><path d="M3,0 L3,18 M9,0 L9,18"></path></marker></defs><defs><marker id="mermaid-_r_sh__er-zeroOrOneStart" class="marker zeroOrOne er" refX="0" refY="9" markerWidth="30" markerHeight="18" orient="auto"><circle fill="white" cx="21" cy="9" r="6"></circle><path d="M9,0 L9,18"></path></marker></defs><defs><marker id="mermaid-_r_sh__er-zeroOrOneEnd" class="marker zeroOrOne er" refX="30" refY="9" markerWidth="30" markerHeight="18" orient="auto"><circle fill="white" cx="9" cy="9" r="6"></circle><path d="M21,0 L21,18"></path></marker></defs><defs><marker id="mermaid-_r_sh__er-oneOrMoreStart" class="marker oneOrMore er" refX="18" refY="18" markerWidth="45" markerHeight="36" orient="auto"><path d="M0,18 Q 18,0 36,18 Q 18,36 0,18 M42,9 L42,27"></path></marker></defs><defs><marker id="mermaid-_r_sh__er-oneOrMoreEnd" class="marker oneOrMore er" refX="27" refY="18" markerWidth="45" markerHeight="36" orient="auto"><path d="M3,9 L3,27 M9,18 Q27,0 45,18 Q27,36 9,18"></path></marker></defs><defs><marker id="mermaid-_r_sh__er-zeroOrMoreStart" class="marker zeroOrMore er" refX="18" refY="18" markerWidth="57" markerHeight="36" orient="auto"><circle fill="white" cx="48" cy="18" r="6"></circle><path d="M0,18 Q18,0 36,18 Q18,36 0,18"></path></marker></defs><defs><marker id="mermaid-_r_sh__er-zeroOrMoreEnd" class="marker zeroOrMore er" refX="39" refY="18" markerWidth="57" markerHeight="36" orient="auto"><circle fill="white" cx="9" cy="18" r="6"></circle><path d="M21,18 Q39,0 57,18 Q39,36 21,18"></path></marker></defs><g class="root"><g class="clusters"></g><g class="edgePaths"><path d="M515.922,242.024L440.398,271.77C364.875,301.516,213.828,361.008,138.305,409.504C62.781,458,62.781,495.5,62.781,514.25L62.781,533" id="id_entity-FACT_CASH_CONSUMPTION-0_entity-DIM_DATE-1_0" class="edge-thickness-normal edge-pattern-solid relationshipLine" style="undefined;;;undefined" data-edge="true" data-et="edge" data-id="id_entity-FACT_CASH_CONSUMPTION-0_entity-DIM_DATE-1_0" data-points="W3sieCI6NTE1LjkyMTg3NSwieSI6MjQyLjAyNDQxOTI2ODg0OTk1fSx7IngiOjYyLjc4MTI1LCJ5Ijo0MjAuNX0seyJ4Ijo2Mi43ODEyNSwieSI6NTMzfV0=" marker-start="url(#mermaid-_r_sh__er-zeroOrMoreStart)" marker-end="url(#mermaid-_r_sh__er-onlyOneEnd)"></path><path d="M515.922,281.754L483.867,304.878C451.813,328.003,387.703,374.251,355.648,416.126C323.594,458,323.594,495.5,323.594,514.25L323.594,533" id="id_entity-FACT_CASH_CONSUMPTION-0_entity-DIM_BRANCH-2_1" class="edge-thickness-normal edge-pattern-solid relationshipLine" style="undefined;;;undefined" data-edge="true" data-et="edge" data-id="id_entity-FACT_CASH_CONSUMPTION-0_entity-DIM_BRANCH-2_1" data-points="W3sieCI6NTE1LjkyMTg3NSwieSI6MjgxLjc1MzkyMzM3NTg0Njk3fSx7IngiOjMyMy41OTM3NSwieSI6NDIwLjV9LHsieCI6MzIzLjU5Mzc1LCJ5Ijo1MzN9XQ==" marker-start="url(#mermaid-_r_sh__er-zeroOrMoreStart)" marker-end="url(#mermaid-_r_sh__er-onlyOneEnd)"></path><path d="M637.219,380.5L637.219,387.167C637.219,393.833,637.219,407.167,637.219,426.708C637.219,446.25,637.219,472,637.219,484.875L637.219,497.75" id="id_entity-FACT_CASH_CONSUMPTION-0_entity-DIM_BANK-3_2" class="edge-thickness-normal edge-pattern-solid relationshipLine" style="undefined;;;undefined" data-edge="true" data-et="edge" data-id="id_entity-FACT_CASH_CONSUMPTION-0_entity-DIM_BANK-3_2" data-points="W3sieCI6NjM3LjIxODc1LCJ5IjozODAuNX0seyJ4Ijo2MzcuMjE4NzUsInkiOjQyMC41fSx7IngiOjYzNy4yMTg3NSwieSI6NDk3Ljc1fV0=" marker-start="url(#mermaid-_r_sh__er-zeroOrMoreStart)" marker-end="url(#mermaid-_r_sh__er-onlyOneEnd)"></path><path d="M758.516,279.314L792.07,302.845C825.624,326.376,892.732,373.438,926.286,415.719C959.84,458,959.84,495.5,959.84,514.25L959.84,533" id="id_entity-FACT_CASH_CONSUMPTION-0_entity-DIM_CURRENCY-4_3" class="edge-thickness-normal edge-pattern-solid relationshipLine" style="undefined;;;undefined" data-edge="true" data-et="edge" data-id="id_entity-FACT_CASH_CONSUMPTION-0_entity-DIM_CURRENCY-4_3" data-points="W3sieCI6NzU4LjUxNTYyNSwieSI6Mjc5LjMxMzkyOTQ4Mzg0MjA2fSx7IngiOjk1OS44Mzk4NDM3NSwieSI6NDIwLjV9LHsieCI6OTU5LjgzOTg0Mzc1LCJ5Ijo1MzN9XQ==" marker-start="url(#mermaid-_r_sh__er-zeroOrMoreStart)" marker-end="url(#mermaid-_r_sh__er-onlyOneEnd)"></path><path d="M758.516,235.689L848.675,266.491C938.835,297.293,1119.154,358.896,1209.313,396.365C1299.473,433.833,1299.473,447.167,1299.473,453.833L1299.473,460.5" id="id_entity-FACT_CASH_CONSUMPTION-0_entity-DIM_LEASE-5_4" class="edge-thickness-normal edge-pattern-solid relationshipLine" style="undefined;;;undefined" data-edge="true" data-et="edge" data-id="id_entity-FACT_CASH_CONSUMPTION-0_entity-DIM_LEASE-5_4" data-points="W3sieCI6NzU4LjUxNTYyNSwieSI6MjM1LjY4OTQyMDMwMzUzMjU2fSx7IngiOjEyOTkuNDcyNjU2MjUsInkiOjQyMC41fSx7IngiOjEyOTkuNDcyNjU2MjUsInkiOjQ2MC41fV0=" marker-start="url(#mermaid-_r_sh__er-zeroOrMoreStart)" marker-end="url(#mermaid-_r_sh__er-onlyOneEnd)"></path></g><g class="edgeLabels"><g><rect class="background" style="stroke: none"></rect></g><g><rect class="background" style="stroke: none"></rect></g><g><rect class="background" style="stroke: none"></rect></g><g><rect class="background" style="stroke: none"></rect></g><g><rect class="background" style="stroke: none"></rect></g><g class="edgeLabel"><g class="label" data-id="id_entity-FACT_CASH_CONSUMPTION-0_entity-DIM_DATE-1_0" transform="translate(0, 0)"><text y="-10.1"><tspan class="text-outer-tspan" x="0" y="-0.1em" dy="1.1em"></tspan></text></g></g><g class="edgeLabel"><g class="label" data-id="id_entity-FACT_CASH_CONSUMPTION-0_entity-DIM_BRANCH-2_1" transform="translate(0, 0)"><text y="-10.1"><tspan class="text-outer-tspan" x="0" y="-0.1em" dy="1.1em"></tspan></text></g></g><g class="edgeLabel"><g class="label" data-id="id_entity-FACT_CASH_CONSUMPTION-0_entity-DIM_BANK-3_2" transform="translate(0, 0)"><text y="-10.1"><tspan class="text-outer-tspan" x="0" y="-0.1em" dy="1.1em"></tspan></text></g></g><g class="edgeLabel"><g class="label" data-id="id_entity-FACT_CASH_CONSUMPTION-0_entity-DIM_CURRENCY-4_3" transform="translate(0, 0)"><text y="-10.1"><tspan class="text-outer-tspan" x="0" y="-0.1em" dy="1.1em"></tspan></text></g></g><g class="edgeLabel"><g class="label" data-id="id_entity-FACT_CASH_CONSUMPTION-0_entity-DIM_LEASE-5_4" transform="translate(0, 0)"><text y="-10.1"><tspan class="text-outer-tspan" x="0" y="-0.1em" dy="1.1em"></tspan></text></g></g></g><g class="nodes"><g class="node default" id="entity-FACT_CASH_CONSUMPTION-0" transform="translate(637.21875, 194.25)"><g style=""><path d="M-121.296875 -186.25 L121.296875 -186.25 L121.296875 186.25 L-121.296875 186.25" stroke="none" stroke-width="0" fill="#1f2020"></path><path d="M-121.296875 -186.25 C-30.23348380446879 -186.25, 60.82990739106242 -186.25, 121.296875 -186.25 M-121.296875 -186.25 C-40.43822678482775 -186.25, 40.420421430344504 -186.25, 121.296875 -186.25 M121.296875 -186.25 C121.296875 -101.55143982649403, 121.296875 -16.852879652988065, 121.296875 186.25 M121.296875 -186.25 C121.296875 -50.348779830457545, 121.296875 85.55244033908491, 121.296875 186.25 M121.296875 186.25 C69.46711699267635 186.25, 17.637358985352705 186.25, -121.296875 186.25 M121.296875 186.25 C39.26820417053183 186.25, -42.76046665893634 186.25, -121.296875 186.25 M-121.296875 186.25 C-121.296875 101.58156877573887, -121.296875 16.913137551477746, -121.296875 -186.25 M-121.296875 186.25 C-121.296875 96.05081238614797, -121.296875 5.851624772295935, -121.296875 -186.25" stroke="#ccc" stroke-width="1.3" fill="none" stroke-dasharray="0 0"></path></g><g style="" class="row-rect-odd"><path d="M-121.296875 -149 L121.296875 -149 L121.296875 -111.75 L-121.296875 -111.75" stroke="none" stroke-width="0" fill="hsl(180, 1.5873015873%, 17.3529411765%)"></path><path d="M-121.296875 -149 C-61.66058102891045 -149, -2.0242870578208993 -149, 121.296875 -149 M-121.296875 -149 C-45.997790568315466 -149, 29.301293863369068 -149, 121.296875 -149 M121.296875 -149 C121.296875 -136.2932132439753, 121.296875 -123.58642648795059, 121.296875 -111.75 M121.296875 -149 C121.296875 -134.20792792688312, 121.296875 -119.41585585376622, 121.296875 -111.75 M121.296875 -111.75 C63.86759990320886 -111.75, 6.438324806417725 -111.75, -121.296875 -111.75 M121.296875 -111.75 C36.14876034492869 -111.75, -48.99935431014262 -111.75, -121.296875 -111.75 M-121.296875 -111.75 C-121.296875 -120.18045973763101, -121.296875 -128.61091947526202, -121.296875 -149 M-121.296875 -111.75 C-121.296875 -121.74625758589607, -121.296875 -131.74251517179215, -121.296875 -149" stroke="#ccc" stroke-width="1.3" fill="none" stroke-dasharray="0 0"></path></g><g style="" class="row-rect-even"><path d="M-121.296875 -111.75 L121.296875 -111.75 L121.296875 -74.5 L-121.296875 -74.5" stroke="none" stroke-width="0" fill="hsl(180, 1.5873015873%, 2.3529411765%)"></path><path d="M-121.296875 -111.75 C-27.214943059628368 -111.75, 66.86698888074326 -111.75, 121.296875 -111.75 M-121.296875 -111.75 C-35.28192568387573 -111.75, 50.733023632248546 -111.75, 121.296875 -111.75 M121.296875 -111.75 C121.296875 -100.94566272269377, 121.296875 -90.14132544538754, 121.296875 -74.5 M121.296875 -111.75 C121.296875 -100.14272421065802, 121.296875 -88.53544842131603, 121.296875 -74.5 M121.296875 -74.5 C68.38699275959746 -74.5, 15.477110519194937 -74.5, -121.296875 -74.5 M121.296875 -74.5 C42.044041054637844 -74.5, -37.20879289072431 -74.5, -121.296875 -74.5 M-121.296875 -74.5 C-121.296875 -88.53690288936457, -121.296875 -102.57380577872914, -121.296875 -111.75 M-121.296875 -74.5 C-121.296875 -87.9642864770687, -121.296875 -101.42857295413738, -121.296875 -111.75" stroke="#ccc" stroke-width="1.3" fill="none" stroke-dasharray="0 0"></path></g><g style="" class="row-rect-odd"><path d="M-121.296875 -74.5 L121.296875 -74.5 L121.296875 -37.25 L-121.296875 -37.25" stroke="none" stroke-width="0" fill="hsl(180, 1.5873015873%, 17.3529411765%)"></path><path d="M-121.296875 -74.5 C-27.725159653108307 -74.5, 65.84655569378339 -74.5, 121.296875 -74.5 M-121.296875 -74.5 C-39.636294823242025 -74.5, 42.02428535351595 -74.5, 121.296875 -74.5 M121.296875 -74.5 C121.296875 -63.53743095817121, 121.296875 -52.574861916342414, 121.296875 -37.25 M121.296875 -74.5 C121.296875 -61.468095222296796, 121.296875 -48.436190444593585, 121.296875 -37.25 M121.296875 -37.25 C71.16623221359619 -37.25, 21.035589427192377 -37.25, -121.296875 -37.25 M121.296875 -37.25 C63.90861355463825 -37.25, 6.5203521092765016 -37.25, -121.296875 -37.25 M-121.296875 -37.25 C-121.296875 -50.573925519435846, -121.296875 -63.89785103887169, -121.296875 -74.5 M-121.296875 -37.25 C-121.296875 -48.184212354664595, -121.296875 -59.11842470932919, -121.296875 -74.5" stroke="#ccc" stroke-width="1.3" fill="none" stroke-dasharray="0 0"></path></g><g style="" class="row-rect-even"><path d="M-121.296875 -37.25 L121.296875 -37.25 L121.296875 0 L-121.296875 0" stroke="none" stroke-width="0" fill="hsl(180, 1.5873015873%, 2.3529411765%)"></path><path d="M-121.296875 -37.25 C-70.67859086581115 -37.25, -20.060306731622276 -37.25, 121.296875 -37.25 M-121.296875 -37.25 C-52.407447819720915 -37.25, 16.48197936055817 -37.25, 121.296875 -37.25 M121.296875 -37.25 C121.296875 -23.7800381102215, 121.296875 -10.310076220443001, 121.296875 0 M121.296875 -37.25 C121.296875 -27.029215951894827, 121.296875 -16.80843190378965, 121.296875 0 M121.296875 0 C51.94040308277671 0, -17.416068834446577 0, -121.296875 0 M121.296875 0 C29.67471220807542 0, -61.94745058384916 0, -121.296875 0 M-121.296875 0 C-121.296875 -14.396951798477275, -121.296875 -28.79390359695455, -121.296875 -37.25 M-121.296875 0 C-121.296875 -9.778232044292459, -121.296875 -19.556464088584917, -121.296875 -37.25" stroke="#ccc" stroke-width="1.3" fill="none" stroke-dasharray="0 0"></path></g><g style="" class="row-rect-odd"><path d="M-121.296875 0 L121.296875 0 L121.296875 37.25 L-121.296875 37.25" stroke="none" stroke-width="0" fill="hsl(180, 1.5873015873%, 17.3529411765%)"></path><path d="M-121.296875 0 C-46.25064785310306 0, 28.795579293793878 0, 121.296875 0 M-121.296875 0 C-66.10366028847695 0, -10.91044557695389 0, 121.296875 0 M121.296875 0 C121.296875 12.731362582221497, 121.296875 25.462725164442993, 121.296875 37.25 M121.296875 0 C121.296875 13.57183986295456, 121.296875 27.14367972590912, 121.296875 37.25 M121.296875 37.25 C52.094105487298776 37.25, -17.108664025402447 37.25, -121.296875 37.25 M121.296875 37.25 C43.49775188090911 37.25, -34.30137123818179 37.25, -121.296875 37.25 M-121.296875 37.25 C-121.296875 26.22193971573744, -121.296875 15.19387943147488, -121.296875 0 M-121.296875 37.25 C-121.296875 26.922955556006283, -121.296875 16.595911112012566, -121.296875 0" stroke="#ccc" stroke-width="1.3" fill="none" stroke-dasharray="0 0"></path></g><g style="" class="row-rect-even"><path d="M-121.296875 37.25 L121.296875 37.25 L121.296875 74.5 L-121.296875 74.5" stroke="none" stroke-width="0" fill="hsl(180, 1.5873015873%, 2.3529411765%)"></path><path d="M-121.296875 37.25 C-57.885864587362306 37.25, 5.525145825275388 37.25, 121.296875 37.25 M-121.296875 37.25 C-59.121081489298774 37.25, 3.0547120214024517 37.25, 121.296875 37.25 M121.296875 37.25 C121.296875 51.88906083738127, 121.296875 66.52812167476255, 121.296875 74.5 M121.296875 37.25 C121.296875 47.7344024407293, 121.296875 58.21880488145859, 121.296875 74.5 M121.296875 74.5 C57.49974061090426 74.5, -6.297393778191477 74.5, -121.296875 74.5 M121.296875 74.5 C59.564859807625005 74.5, -2.1671553847499894 74.5, -121.296875 74.5 M-121.296875 74.5 C-121.296875 62.617611732627445, -121.296875 50.73522346525489, -121.296875 37.25 M-121.296875 74.5 C-121.296875 61.55811917337864, -121.296875 48.616238346757285, -121.296875 37.25" stroke="#ccc" stroke-width="1.3" fill="none" stroke-dasharray="0 0"></path></g><g style="" class="row-rect-odd"><path d="M-121.296875 74.5 L121.296875 74.5 L121.296875 111.75 L-121.296875 111.75" stroke="none" stroke-width="0" fill="hsl(180, 1.5873015873%, 17.3529411765%)"></path><path d="M-121.296875 74.5 C-51.333575518769294 74.5, 18.629723962461412 74.5, 121.296875 74.5 M-121.296875 74.5 C-32.171615963610435 74.5, 56.95364307277913 74.5, 121.296875 74.5 M121.296875 74.5 C121.296875 85.17063009679465, 121.296875 95.8412601935893, 121.296875 111.75 M121.296875 74.5 C121.296875 87.71842763987144, 121.296875 100.93685527974287, 121.296875 111.75 M121.296875 111.75 C62.96828221608227 111.75, 4.639689432164545 111.75, -121.296875 111.75 M121.296875 111.75 C70.55310201393061 111.75, 19.80932902786124 111.75, -121.296875 111.75 M-121.296875 111.75 C-121.296875 98.76513362140557, -121.296875 85.78026724281112, -121.296875 74.5 M-121.296875 111.75 C-121.296875 97.41458775699196, -121.296875 83.07917551398393, -121.296875 74.5" stroke="#ccc" stroke-width="1.3" fill="none" stroke-dasharray="0 0"></path></g><g style="" class="row-rect-even"><path d="M-121.296875 111.75 L121.296875 111.75 L121.296875 149 L-121.296875 149" stroke="none" stroke-width="0" fill="hsl(180, 1.5873015873%, 2.3529411765%)"></path><path d="M-121.296875 111.75 C-61.95863781483911 111.75, -2.6204006296782154 111.75, 121.296875 111.75 M-121.296875 111.75 C-71.55264100158035 111.75, -21.808407003160724 111.75, 121.296875 111.75 M121.296875 111.75 C121.296875 126.07929135372649, 121.296875 140.40858270745298, 121.296875 149 M121.296875 111.75 C121.296875 119.69995157982106, 121.296875 127.64990315964211, 121.296875 149 M121.296875 149 C49.34942003626777 149, -22.598034927464454 149, -121.296875 149 M121.296875 149 C60.46494852090014 149, -0.3669779581997261 149, -121.296875 149 M-121.296875 149 C-121.296875 138.51597249933928, -121.296875 128.03194499867854, -121.296875 111.75 M-121.296875 149 C-121.296875 139.8926059706998, -121.296875 130.78521194139958, -121.296875 111.75" stroke="#ccc" stroke-width="1.3" fill="none" stroke-dasharray="0 0"></path></g><g style="" class="row-rect-odd"><path d="M-121.296875 149 L121.296875 149 L121.296875 186.25 L-121.296875 186.25" stroke="none" stroke-width="0" fill="hsl(180, 1.5873015873%, 17.3529411765%)"></path><path d="M-121.296875 149 C-32.55577795319846 149, 56.185319093603084 149, 121.296875 149 M-121.296875 149 C-43.92160218022049 149, 33.45367063955902 149, 121.296875 149 M121.296875 149 C121.296875 157.81099919339005, 121.296875 166.62199838678006, 121.296875 186.25 M121.296875 149 C121.296875 160.1597552290922, 121.296875 171.31951045818442, 121.296875 186.25 M121.296875 186.25 C61.53403150127906 186.25, 1.7711880025581195 186.25, -121.296875 186.25 M121.296875 186.25 C28.97278402984368 186.25, -63.35130694031264 186.25, -121.296875 186.25 M-121.296875 186.25 C-121.296875 175.8646153142385, -121.296875 165.47923062847698, -121.296875 149 M-121.296875 186.25 C-121.296875 177.29732750277051, -121.296875 168.344655005541, -121.296875 149" stroke="#ccc" stroke-width="1.3" fill="none" stroke-dasharray="0 0"></path></g><g class="label name" transform="translate(-96.296875, -176.875)" style=""><g><rect class="background" style="stroke: none"></rect></g><text y="-10.1" style=""><tspan class="text-outer-tspan" x="0" y="-0.1em" dy="1.1em"><tspan font-style="normal" class="text-inner-tspan" font-weight="normal">FACT_CASH_CONSUMPTION</tspan></tspan></text></g><g class="label attribute-type" transform="translate(-108.796875, -139.625)" style=""><g><rect class="background" style="stroke: none"></rect></g><text y="-10.1" style=""><tspan class="text-outer-tspan" x="0" y="-0.1em" dy="1.1em"><tspan font-style="normal" class="text-inner-tspan" font-weight="normal">int</tspan></tspan></text></g><g class="label attribute-name" transform="translate(-26.22265625, -139.625)" style=""><g><rect class="background" style="stroke: none"></rect></g><text y="-10.1" style=""><tspan class="text-outer-tspan" x="0" y="-0.1em" dy="1.1em"><tspan font-style="normal" class="text-inner-tspan" font-weight="normal">date_sk</tspan></tspan></text></g><g class="label attribute-keys" transform="translate(133.796875, -139.625)" style=""><g><rect class="background" style="stroke: none"></rect></g><text y="-10.1" style=""><tspan class="text-outer-tspan" x="0" y="-0.1em" dy="1.1em"></tspan></text></g><g class="label attribute-comment" transform="translate(133.796875, -139.625)" style=""><g><rect class="background" style="stroke: none"></rect></g><text y="-10.1" style=""><tspan class="text-outer-tspan" x="0" y="-0.1em" dy="1.1em"></tspan></text></g><g class="label attribute-type" transform="translate(-108.796875, -102.375)" style=""><g><rect class="background" style="stroke: none"></rect></g><text y="-10.1" style=""><tspan class="text-outer-tspan" x="0" y="-0.1em" dy="1.1em"><tspan font-style="normal" class="text-inner-tspan" font-weight="normal">int</tspan></tspan></text></g><g class="label attribute-name" transform="translate(-26.22265625, -102.375)" style=""><g><rect class="background" style="stroke: none"></rect></g><text y="-10.1" style=""><tspan class="text-outer-tspan" x="0" y="-0.1em" dy="1.1em"><tspan font-style="normal" class="text-inner-tspan" font-weight="normal">branch_sk</tspan></tspan></text></g><g class="label attribute-keys" transform="translate(133.796875, -102.375)" style=""><g><rect class="background" style="stroke: none"></rect></g><text y="-10.1" style=""><tspan class="text-outer-tspan" x="0" y="-0.1em" dy="1.1em"></tspan></text></g><g class="label attribute-comment" transform="translate(133.796875, -102.375)" style=""><g><rect class="background" style="stroke: none"></rect></g><text y="-10.1" style=""><tspan class="text-outer-tspan" x="0" y="-0.1em" dy="1.1em"></tspan></text></g><g class="label attribute-type" transform="translate(-108.796875, -65.125)" style=""><g><rect class="background" style="stroke: none"></rect></g><text y="-10.1" style=""><tspan class="text-outer-tspan" x="0" y="-0.1em" dy="1.1em"><tspan font-style="normal" class="text-inner-tspan" font-weight="normal">int</tspan></tspan></text></g><g class="label attribute-name" transform="translate(-26.22265625, -65.125)" style=""><g><rect class="background" style="stroke: none"></rect></g><text y="-10.1" style=""><tspan class="text-outer-tspan" x="0" y="-0.1em" dy="1.1em"><tspan font-style="normal" class="text-inner-tspan" font-weight="normal">bank_sk</tspan></tspan></text></g><g class="label attribute-keys" transform="translate(133.796875, -65.125)" style=""><g><rect class="background" style="stroke: none"></rect></g><text y="-10.1" style=""><tspan class="text-outer-tspan" x="0" y="-0.1em" dy="1.1em"></tspan></text></g><g class="label attribute-comment" transform="translate(133.796875, -65.125)" style=""><g><rect class="background" style="stroke: none"></rect></g><text y="-10.1" style=""><tspan class="text-outer-tspan" x="0" y="-0.1em" dy="1.1em"></tspan></text></g><g class="label attribute-type" transform="translate(-108.796875, -27.875)" style=""><g><rect class="background" style="stroke: none"></rect></g><text y="-10.1" style=""><tspan class="text-outer-tspan" x="0" y="-0.1em" dy="1.1em"><tspan font-style="normal" class="text-inner-tspan" font-weight="normal">int</tspan></tspan></text></g><g class="label attribute-name" transform="translate(-26.22265625, -27.875)" style=""><g><rect class="background" style="stroke: none"></rect></g><text y="-10.1" style=""><tspan class="text-outer-tspan" x="0" y="-0.1em" dy="1.1em"><tspan font-style="normal" class="text-inner-tspan" font-weight="normal">currency_sk</tspan></tspan></text></g><g class="label attribute-keys" transform="translate(133.796875, -27.875)" style=""><g><rect class="background" style="stroke: none"></rect></g><text y="-10.1" style=""><tspan class="text-outer-tspan" x="0" y="-0.1em" dy="1.1em"></tspan></text></g><g class="label attribute-comment" transform="translate(133.796875, -27.875)" style=""><g><rect class="background" style="stroke: none"></rect></g><text y="-10.1" style=""><tspan class="text-outer-tspan" x="0" y="-0.1em" dy="1.1em"></tspan></text></g><g class="label attribute-type" transform="translate(-108.796875, 9.375)" style=""><g><rect class="background" style="stroke: none"></rect></g><text y="-10.1" style=""><tspan class="text-outer-tspan" x="0" y="-0.1em" dy="1.1em"><tspan font-style="normal" class="text-inner-tspan" font-weight="normal">int</tspan></tspan></text></g><g class="label attribute-name" transform="translate(-26.22265625, 9.375)" style=""><g><rect class="background" style="stroke: none"></rect></g><text y="-10.1" style=""><tspan class="text-outer-tspan" x="0" y="-0.1em" dy="1.1em"><tspan font-style="normal" class="text-inner-tspan" font-weight="normal">lease_sk</tspan></tspan></text></g><g class="label attribute-keys" transform="translate(133.796875, 9.375)" style=""><g><rect class="background" style="stroke: none"></rect></g><text y="-10.1" style=""><tspan class="text-outer-tspan" x="0" y="-0.1em" dy="1.1em"></tspan></text></g><g class="label attribute-comment" transform="translate(133.796875, 9.375)" style=""><g><rect class="background" style="stroke: none"></rect></g><text y="-10.1" style=""><tspan class="text-outer-tspan" x="0" y="-0.1em" dy="1.1em"></tspan></text></g><g class="label attribute-type" transform="translate(-108.796875, 46.625)" style=""><g><rect class="background" style="stroke: none"></rect></g><text y="-10.1" style=""><tspan class="text-outer-tspan" x="0" y="-0.1em" dy="1.1em"><tspan font-style="normal" class="text-inner-tspan" font-weight="normal">decimal</tspan></tspan></text></g><g class="label attribute-name" transform="translate(-26.22265625, 46.625)" style=""><g><rect class="background" style="stroke: none"></rect></g><text y="-10.1" style=""><tspan class="text-outer-tspan" x="0" y="-0.1em" dy="1.1em"><tspan font-style="normal" class="text-inner-tspan" font-weight="normal">opening_balance</tspan></tspan></text></g><g class="label attribute-keys" transform="translate(133.796875, 46.625)" style=""><g><rect class="background" style="stroke: none"></rect></g><text y="-10.1" style=""><tspan class="text-outer-tspan" x="0" y="-0.1em" dy="1.1em"></tspan></text></g><g class="label attribute-comment" transform="translate(133.796875, 46.625)" style=""><g><rect class="background" style="stroke: none"></rect></g><text y="-10.1" style=""><tspan class="text-outer-tspan" x="0" y="-0.1em" dy="1.1em"></tspan></text></g><g class="label attribute-type" transform="translate(-108.796875, 83.875)" style=""><g><rect class="background" style="stroke: none"></rect></g><text y="-10.1" style=""><tspan class="text-outer-tspan" x="0" y="-0.1em" dy="1.1em"><tspan font-style="normal" class="text-inner-tspan" font-weight="normal">decimal</tspan></tspan></text></g><g class="label attribute-name" transform="translate(-26.22265625, 83.875)" style=""><g><rect class="background" style="stroke: none"></rect></g><text y="-10.1" style=""><tspan class="text-outer-tspan" x="0" y="-0.1em" dy="1.1em"><tspan font-style="normal" class="text-inner-tspan" font-weight="normal">closing_balance</tspan></tspan></text></g><g class="label attribute-keys" transform="translate(133.796875, 83.875)" style=""><g><rect class="background" style="stroke: none"></rect></g><text y="-10.1" style=""><tspan class="text-outer-tspan" x="0" y="-0.1em" dy="1.1em"></tspan></text></g><g class="label attribute-comment" transform="translate(133.796875, 83.875)" style=""><g><rect class="background" style="stroke: none"></rect></g><text y="-10.1" style=""><tspan class="text-outer-tspan" x="0" y="-0.1em" dy="1.1em"></tspan></text></g><g class="label attribute-type" transform="translate(-108.796875, 121.125)" style=""><g><rect class="background" style="stroke: none"></rect></g><text y="-10.1" style=""><tspan class="text-outer-tspan" x="0" y="-0.1em" dy="1.1em"><tspan font-style="normal" class="text-inner-tspan" font-weight="normal">decimal</tspan></tspan></text></g><g class="label attribute-name" transform="translate(-26.22265625, 121.125)" style=""><g><rect class="background" style="stroke: none"></rect></g><text y="-10.1" style=""><tspan class="text-outer-tspan" x="0" y="-0.1em" dy="1.1em"><tspan font-style="normal" class="text-inner-tspan" font-weight="normal">total_sold_amount</tspan></tspan></text></g><g class="label attribute-keys" transform="translate(133.796875, 121.125)" style=""><g><rect class="background" style="stroke: none"></rect></g><text y="-10.1" style=""><tspan class="text-outer-tspan" x="0" y="-0.1em" dy="1.1em"></tspan></text></g><g class="label attribute-comment" transform="translate(133.796875, 121.125)" style=""><g><rect class="background" style="stroke: none"></rect></g><text y="-10.1" style=""><tspan class="text-outer-tspan" x="0" y="-0.1em" dy="1.1em"></tspan></text></g><g class="label attribute-type" transform="translate(-108.796875, 158.375)" style=""><g><rect class="background" style="stroke: none"></rect></g><text y="-10.1" style=""><tspan class="text-outer-tspan" x="0" y="-0.1em" dy="1.1em"><tspan font-style="normal" class="text-inner-tspan" font-weight="normal">decimal</tspan></tspan></text></g><g class="label attribute-name" transform="translate(-26.22265625, 158.375)" style=""><g><rect class="background" style="stroke: none"></rect></g><text y="-10.1" style=""><tspan class="text-outer-tspan" x="0" y="-0.1em" dy="1.1em"><tspan font-style="normal" class="text-inner-tspan" font-weight="normal">consumption_rate</tspan></tspan></text></g><g class="label attribute-keys" transform="translate(133.796875, 158.375)" style=""><g><rect class="background" style="stroke: none"></rect></g><text y="-10.1" style=""><tspan class="text-outer-tspan" x="0" y="-0.1em" dy="1.1em"></tspan></text></g><g class="label attribute-comment" transform="translate(133.796875, 158.375)" style=""><g><rect class="background" style="stroke: none"></rect></g><text y="-10.1" style=""><tspan class="text-outer-tspan" x="0" y="-0.1em" dy="1.1em"></tspan></text></g><g class="divider"><path d="M-121.296875 -149 C-48.02657091877104 -149, 25.243733162457914 -149, 121.296875 -149 M-121.296875 -149 C-32.589716220722266 -149, 56.11744255855547 -149, 121.296875 -149" stroke="#ccc" stroke-width="1.3" fill="none" stroke-dasharray="0 0"></path></g><g class="divider"><path d="M-38.72265625 -149 C-38.72265625 -19.245536641573466, -38.72265625 110.50892671685307, -38.72265625 186.25 M-38.72265625 -149 C-38.72265625 -70.43071727743221, -38.72265625 8.138565445135583, -38.72265625 186.25" stroke="#ccc" stroke-width="1.3" fill="none" stroke-dasharray="0 0"></path></g><g class="divider"><path d="M-121.296875 -149 C-67.81033371087685 -149, -14.323792421753694 -149, 121.296875 -149 M-121.296875 -149 C-67.60426922446332 -149, -13.911663448926646 -149, 121.296875 -149" stroke="#ccc" stroke-width="1.3" fill="none" stroke-dasharray="0 0"></path></g></g><g class="node default" id="entity-DIM_DATE-1" transform="translate(62.78125, 572.25)"><rect class="basic label-container" style="" x="-54.78125" y="-39.25" width="109.5625" height="78.5"></rect><g class="label" style="" transform="translate(0, -9.25)"><rect></rect><g><rect class="background" style="stroke: none"></rect><text y="-10.1" style="" transform="translate(-34.78125, 0)"><tspan class="text-outer-tspan" x="0" y="-0.1em" dy="1.1em"><tspan font-style="normal" class="text-inner-tspan" font-weight="normal">DIM_DATE</tspan></tspan></text></g></g></g><g class="node default" id="entity-DIM_BRANCH-2" transform="translate(323.59375, 572.25)"><rect class="basic label-container" style="" x="-66.03125" y="-39.25" width="132.0625" height="78.5"></rect><g class="label" style="" transform="translate(0, -9.25)"><rect></rect><g><rect class="background" style="stroke: none"></rect><text y="-10.1" style="" transform="translate(-46.03125, 0)"><tspan class="text-outer-tspan" x="0" y="-0.1em" dy="1.1em"><tspan font-style="normal" class="text-inner-tspan" font-weight="normal">DIM_BRANCH</tspan></tspan></text></g></g></g><g class="node default" id="entity-DIM_BANK-3" transform="translate(637.21875, 572.25)"><g style=""><path d="M-107.59375 -74.5 L107.59375 -74.5 L107.59375 74.5 L-107.59375 74.5" stroke="none" stroke-width="0" fill="#1f2020"></path><path d="M-107.59375 -74.5 C-31.370656855549342 -74.5, 44.852436288901316 -74.5, 107.59375 -74.5 M-107.59375 -74.5 C-45.45156655940227 -74.5, 16.690616881195453 -74.5, 107.59375 -74.5 M107.59375 -74.5 C107.59375 -35.203215247997825, 107.59375 4.09356950400435, 107.59375 74.5 M107.59375 -74.5 C107.59375 -26.420514846202416, 107.59375 21.65897030759517, 107.59375 74.5 M107.59375 74.5 C47.66965014047773 74.5, -12.254449719044544 74.5, -107.59375 74.5 M107.59375 74.5 C22.767525562659316 74.5, -62.05869887468137 74.5, -107.59375 74.5 M-107.59375 74.5 C-107.59375 16.32538086389014, -107.59375 -41.84923827221972, -107.59375 -74.5 M-107.59375 74.5 C-107.59375 16.085016359759535, -107.59375 -42.32996728048093, -107.59375 -74.5" stroke="#ccc" stroke-width="1.3" fill="none" stroke-dasharray="0 0"></path></g><g style="" class="row-rect-odd"><path d="M-107.59375 -37.25 L107.59375 -37.25 L107.59375 0 L-107.59375 0" stroke="none" stroke-width="0" fill="hsl(180, 1.5873015873%, 17.3529411765%)"></path><path d="M-107.59375 -37.25 C-47.93964927999252 -37.25, 11.714451440014955 -37.25, 107.59375 -37.25 M-107.59375 -37.25 C-58.45602628746165 -37.25, -9.318302574923294 -37.25, 107.59375 -37.25 M107.59375 -37.25 C107.59375 -25.349277193146047, 107.59375 -13.448554386292095, 107.59375 0 M107.59375 -37.25 C107.59375 -23.839551274935104, 107.59375 -10.429102549870205, 107.59375 0 M107.59375 0 C25.46543755699473 0, -56.66287488601054 0, -107.59375 0 M107.59375 0 C63.002304809637124 0, 18.410859619274248 0, -107.59375 0 M-107.59375 0 C-107.59375 -7.648507869431688, -107.59375 -15.297015738863376, -107.59375 -37.25 M-107.59375 0 C-107.59375 -14.792277119178323, -107.59375 -29.584554238356645, -107.59375 -37.25" stroke="#ccc" stroke-width="1.3" fill="none" stroke-dasharray="0 0"></path></g><g style="" class="row-rect-even"><path d="M-107.59375 0 L107.59375 0 L107.59375 37.25 L-107.59375 37.25" stroke="none" stroke-width="0" fill="hsl(180, 1.5873015873%, 2.3529411765%)"></path><path d="M-107.59375 0 C-35.23541203843398 0, 37.122925923132044 0, 107.59375 0 M-107.59375 0 C-63.33607506232989 0, -19.07840012465978 0, 107.59375 0 M107.59375 0 C107.59375 13.543625622113645, 107.59375 27.08725124422729, 107.59375 37.25 M107.59375 0 C107.59375 7.741506532497669, 107.59375 15.483013064995339, 107.59375 37.25 M107.59375 37.25 C59.28428910645407 37.25, 10.974828212908136 37.25, -107.59375 37.25 M107.59375 37.25 C55.78604145693138 37.25, 3.978332913862758 37.25, -107.59375 37.25 M-107.59375 37.25 C-107.59375 29.362411761900518, -107.59375 21.47482352380104, -107.59375 0 M-107.59375 37.25 C-107.59375 28.642116840308834, -107.59375 20.034233680617668, -107.59375 0" stroke="#ccc" stroke-width="1.3" fill="none" stroke-dasharray="0 0"></path></g><g style="" class="row-rect-odd"><path d="M-107.59375 37.25 L107.59375 37.25 L107.59375 74.5 L-107.59375 74.5" stroke="none" stroke-width="0" fill="hsl(180, 1.5873015873%, 17.3529411765%)"></path><path d="M-107.59375 37.25 C-53.187828933781596 37.25, 1.2180921324368086 37.25, 107.59375 37.25 M-107.59375 37.25 C-27.306436621247627 37.25, 52.980876757504745 37.25, 107.59375 37.25 M107.59375 37.25 C107.59375 44.728479310359745, 107.59375 52.20695862071949, 107.59375 74.5 M107.59375 37.25 C107.59375 51.44718430666975, 107.59375 65.6443686133395, 107.59375 74.5 M107.59375 74.5 C64.44557269938824 74.5, 21.297395398776487 74.5, -107.59375 74.5 M107.59375 74.5 C55.861046631050954 74.5, 4.128343262101907 74.5, -107.59375 74.5 M-107.59375 74.5 C-107.59375 66.21397917629798, -107.59375 57.92795835259597, -107.59375 37.25 M-107.59375 74.5 C-107.59375 62.85743497568213, -107.59375 51.214869951364264, -107.59375 37.25" stroke="#ccc" stroke-width="1.3" fill="none" stroke-dasharray="0 0"></path></g><g class="label name" transform="translate(-35.9609375, -65.125)" style=""><g><rect class="background" style="stroke: none"></rect></g><text y="-10.1" style=""><tspan class="text-outer-tspan" x="0" y="-0.1em" dy="1.1em"><tspan font-style="normal" class="text-inner-tspan" font-weight="normal">DIM_BANK</tspan></tspan></text></g><g class="label attribute-type" transform="translate(-95.09375, -27.875)" style=""><g><rect class="background" style="stroke: none"></rect></g><text y="-10.1" style=""><tspan class="text-outer-tspan" x="0" y="-0.1em" dy="1.1em"><tspan font-style="normal" class="text-inner-tspan" font-weight="normal">int</tspan></tspan></text></g><g class="label attribute-name" transform="translate(-29.71875, -27.875)" style=""><g><rect class="background" style="stroke: none"></rect></g><text y="-10.1" style=""><tspan class="text-outer-tspan" x="0" y="-0.1em" dy="1.1em"><tspan font-style="normal" class="text-inner-tspan" font-weight="normal">bank_sk</tspan></tspan></text></g><g class="label attribute-keys" transform="translate(76.9609375, -27.875)" style=""><g><rect class="background" style="stroke: none"></rect></g><text y="-10.1" style=""><tspan class="text-outer-tspan" x="0" y="-0.1em" dy="1.1em"><tspan font-style="normal" class="text-inner-tspan" font-weight="normal">PK</tspan></tspan></text></g><g class="label attribute-comment" transform="translate(120.09375, -27.875)" style=""><g><rect class="background" style="stroke: none"></rect></g><text y="-10.1" style=""><tspan class="text-outer-tspan" x="0" y="-0.1em" dy="1.1em"></tspan></text></g><g class="label attribute-type" transform="translate(-95.09375, 9.375)" style=""><g><rect class="background" style="stroke: none"></rect></g><text y="-10.1" style=""><tspan class="text-outer-tspan" x="0" y="-0.1em" dy="1.1em"><tspan font-style="normal" class="text-inner-tspan" font-weight="normal">string</tspan></tspan></text></g><g class="label attribute-name" transform="translate(-29.71875, 9.375)" style=""><g><rect class="background" style="stroke: none"></rect></g><text y="-10.1" style=""><tspan class="text-outer-tspan" x="0" y="-0.1em" dy="1.1em"><tspan font-style="normal" class="text-inner-tspan" font-weight="normal">bank_name</tspan></tspan></text></g><g class="label attribute-keys" transform="translate(76.9609375, 9.375)" style=""><g><rect class="background" style="stroke: none"></rect></g><text y="-10.1" style=""><tspan class="text-outer-tspan" x="0" y="-0.1em" dy="1.1em"></tspan></text></g><g class="label attribute-comment" transform="translate(120.09375, 9.375)" style=""><g><rect class="background" style="stroke: none"></rect></g><text y="-10.1" style=""><tspan class="text-outer-tspan" x="0" y="-0.1em" dy="1.1em"></tspan></text></g><g class="label attribute-type" transform="translate(-95.09375, 46.625)" style=""><g><rect class="background" style="stroke: none"></rect></g><text y="-10.1" style=""><tspan class="text-outer-tspan" x="0" y="-0.1em" dy="1.1em"><tspan font-style="normal" class="text-inner-tspan" font-weight="normal">string</tspan></tspan></text></g><g class="label attribute-name" transform="translate(-29.71875, 46.625)" style=""><g><rect class="background" style="stroke: none"></rect></g><text y="-10.1" style=""><tspan class="text-outer-tspan" x="0" y="-0.1em" dy="1.1em"><tspan font-style="normal" class="text-inner-tspan" font-weight="normal">bank_type</tspan></tspan></text></g><g class="label attribute-keys" transform="translate(76.9609375, 46.625)" style=""><g><rect class="background" style="stroke: none"></rect></g><text y="-10.1" style=""><tspan class="text-outer-tspan" x="0" y="-0.1em" dy="1.1em"></tspan></text></g><g class="label attribute-comment" transform="translate(120.09375, 46.625)" style=""><g><rect class="background" style="stroke: none"></rect></g><text y="-10.1" style=""><tspan class="text-outer-tspan" x="0" y="-0.1em" dy="1.1em"></tspan></text></g><g class="divider"><path d="M-107.59375 -37.25 C-24.637321426706535 -37.25, 58.31910714658693 -37.25, 107.59375 -37.25 M-107.59375 -37.25 C-43.735696130022774 -37.25, 20.122357739954452 -37.25, 107.59375 -37.25" stroke="#ccc" stroke-width="1.3" fill="none" stroke-dasharray="0 0"></path></g><g class="divider"><path d="M-42.21875 -37.25 C-42.21875 2.017531930172794, -42.21875 41.28506386034559, -42.21875 74.5 M-42.21875 -37.25 C-42.21875 1.5362691821061318, -42.21875 40.322538364212264, -42.21875 74.5" stroke="#ccc" stroke-width="1.3" fill="none" stroke-dasharray="0 0"></path></g><g class="divider"><path d="M64.4609375 -37.25 C64.4609375 4.257449728149453, 64.4609375 45.764899456298906, 64.4609375 74.5 M64.4609375 -37.25 C64.4609375 -11.118706990494438, 64.4609375 15.012586019011124, 64.4609375 74.5" stroke="#ccc" stroke-width="1.3" fill="none" stroke-dasharray="0 0"></path></g><g class="divider"><path d="M-107.59375 -37.25 C-52.68434402249807 -37.25, 2.2250619550038664 -37.25, 107.59375 -37.25 M-107.59375 -37.25 C-35.66922336819307 -37.25, 36.255303263613854 -37.25, 107.59375 -37.25" stroke="#ccc" stroke-width="1.3" fill="none" stroke-dasharray="0 0"></path></g></g><g class="node default" id="entity-DIM_CURRENCY-4" transform="translate(959.83984375, 572.25)"><rect class="basic label-container" style="" x="-75.02734375" y="-39.25" width="150.0546875" height="78.5"></rect><g class="label" style="" transform="translate(0, -9.25)"><rect></rect><g><rect class="background" style="stroke: none"></rect><text y="-10.1" style="" transform="translate(-55.02734375, 0)"><tspan class="text-outer-tspan" x="0" y="-0.1em" dy="1.1em"><tspan font-style="normal" class="text-inner-tspan" font-weight="normal">DIM_CURRENCY</tspan></tspan></text></g></g></g><g class="node default" id="entity-DIM_LEASE-5" transform="translate(1299.47265625, 572.25)"><g style=""><path d="M-124.60546875 -111.75 L124.60546875 -111.75 L124.60546875 111.75 L-124.60546875 111.75" stroke="none" stroke-width="0" fill="#1f2020"></path><path d="M-124.60546875 -111.75 C-49.73891439448305 -111.75, 25.127639961033907 -111.75, 124.60546875 -111.75 M-124.60546875 -111.75 C-33.05316205390001 -111.75, 58.49914464219998 -111.75, 124.60546875 -111.75 M124.60546875 -111.75 C124.60546875 -64.13212598732156, 124.60546875 -16.514251974643116, 124.60546875 111.75 M124.60546875 -111.75 C124.60546875 -55.01236735166012, 124.60546875 1.7252652966797655, 124.60546875 111.75 M124.60546875 111.75 C58.170166395622445 111.75, -8.26513595875511 111.75, -124.60546875 111.75 M124.60546875 111.75 C40.2621830833688 111.75, -44.08110258326241 111.75, -124.60546875 111.75 M-124.60546875 111.75 C-124.60546875 26.096517134905326, -124.60546875 -59.55696573018935, -124.60546875 -111.75 M-124.60546875 111.75 C-124.60546875 53.255402901791754, -124.60546875 -5.239194196416491, -124.60546875 -111.75" stroke="#ccc" stroke-width="1.3" fill="none" stroke-dasharray="0 0"></path></g><g style="" class="row-rect-odd"><path d="M-124.60546875 -74.5 L124.60546875 -74.5 L124.60546875 -37.25 L-124.60546875 -37.25" stroke="none" stroke-width="0" fill="hsl(180, 1.5873015873%, 17.3529411765%)"></path><path d="M-124.60546875 -74.5 C-41.534008800091485 -74.5, 41.53745114981703 -74.5, 124.60546875 -74.5 M-124.60546875 -74.5 C-70.42855864216165 -74.5, -16.251648534323294 -74.5, 124.60546875 -74.5 M124.60546875 -74.5 C124.60546875 -63.82885202921284, 124.60546875 -53.15770405842567, 124.60546875 -37.25 M124.60546875 -74.5 C124.60546875 -64.78527454976286, 124.60546875 -55.07054909952573, 124.60546875 -37.25 M124.60546875 -37.25 C45.261360697295856 -37.25, -34.08274735540829 -37.25, -124.60546875 -37.25 M124.60546875 -37.25 C64.504554983156 -37.25, 4.403641216311982 -37.25, -124.60546875 -37.25 M-124.60546875 -37.25 C-124.60546875 -46.279707741107316, -124.60546875 -55.30941548221463, -124.60546875 -74.5 M-124.60546875 -37.25 C-124.60546875 -51.8857563427956, -124.60546875 -66.5215126855912, -124.60546875 -74.5" stroke="#ccc" stroke-width="1.3" fill="none" stroke-dasharray="0 0"></path></g><g style="" class="row-rect-even"><path d="M-124.60546875 -37.25 L124.60546875 -37.25 L124.60546875 0 L-124.60546875 0" stroke="none" stroke-width="0" fill="hsl(180, 1.5873015873%, 2.3529411765%)"></path><path d="M-124.60546875 -37.25 C-29.049116619140833 -37.25, 66.50723551171833 -37.25, 124.60546875 -37.25 M-124.60546875 -37.25 C-39.59527235150823 -37.25, 45.41492404698354 -37.25, 124.60546875 -37.25 M124.60546875 -37.25 C124.60546875 -23.022088370191184, 124.60546875 -8.794176740382373, 124.60546875 0 M124.60546875 -37.25 C124.60546875 -27.952105695522082, 124.60546875 -18.654211391044164, 124.60546875 0 M124.60546875 0 C45.07693612976966 0, -34.45159649046067 0, -124.60546875 0 M124.60546875 0 C70.53738406136603 0, 16.469299372732067 0, -124.60546875 0 M-124.60546875 0 C-124.60546875 -8.432351534425436, -124.60546875 -16.864703068850872, -124.60546875 -37.25 M-124.60546875 0 C-124.60546875 -8.06871332294792, -124.60546875 -16.13742664589584, -124.60546875 -37.25" stroke="#ccc" stroke-width="1.3" fill="none" stroke-dasharray="0 0"></path></g><g style="" class="row-rect-odd"><path d="M-124.60546875 0 L124.60546875 0 L124.60546875 37.25 L-124.60546875 37.25" stroke="none" stroke-width="0" fill="hsl(180, 1.5873015873%, 17.3529411765%)"></path><path d="M-124.60546875 0 C-73.93126887713376 0, -23.25706900426752 0, 124.60546875 0 M-124.60546875 0 C-55.74770856605822 0, 13.110051617883556 0, 124.60546875 0 M124.60546875 0 C124.60546875 8.398070923480178, 124.60546875 16.796141846960357, 124.60546875 37.25 M124.60546875 0 C124.60546875 13.1650666438186, 124.60546875 26.3301332876372, 124.60546875 37.25 M124.60546875 37.25 C59.88124688197206 37.25, -4.842974986055879 37.25, -124.60546875 37.25 M124.60546875 37.25 C37.32359075140745 37.25, -49.9582872471851 37.25, -124.60546875 37.25 M-124.60546875 37.25 C-124.60546875 28.744284953150945, -124.60546875 20.238569906301894, -124.60546875 0 M-124.60546875 37.25 C-124.60546875 28.813693525770677, -124.60546875 20.377387051541355, -124.60546875 0" stroke="#ccc" stroke-width="1.3" fill="none" stroke-dasharray="0 0"></path></g><g style="" class="row-rect-even"><path d="M-124.60546875 37.25 L124.60546875 37.25 L124.60546875 74.5 L-124.60546875 74.5" stroke="none" stroke-width="0" fill="hsl(180, 1.5873015873%, 2.3529411765%)"></path><path d="M-124.60546875 37.25 C-46.10199328392676 37.25, 32.40148218214648 37.25, 124.60546875 37.25 M-124.60546875 37.25 C-62.454153139118255 37.25, -0.302837528236509 37.25, 124.60546875 37.25 M124.60546875 37.25 C124.60546875 50.987087186885105, 124.60546875 64.72417437377021, 124.60546875 74.5 M124.60546875 37.25 C124.60546875 44.9712874210359, 124.60546875 52.69257484207181, 124.60546875 74.5 M124.60546875 74.5 C34.870081037731254 74.5, -54.86530667453749 74.5, -124.60546875 74.5 M124.60546875 74.5 C59.72275185390397 74.5, -5.159965042192056 74.5, -124.60546875 74.5 M-124.60546875 74.5 C-124.60546875 64.53434956734749, -124.60546875 54.56869913469497, -124.60546875 37.25 M-124.60546875 74.5 C-124.60546875 61.59415162198922, -124.60546875 48.68830324397844, -124.60546875 37.25" stroke="#ccc" stroke-width="1.3" fill="none" stroke-dasharray="0 0"></path></g><g style="" class="row-rect-odd"><path d="M-124.60546875 74.5 L124.60546875 74.5 L124.60546875 111.75 L-124.60546875 111.75" stroke="none" stroke-width="0" fill="hsl(180, 1.5873015873%, 17.3529411765%)"></path><path d="M-124.60546875 74.5 C-34.2895333852437 74.5, 56.0264019795126 74.5, 124.60546875 74.5 M-124.60546875 74.5 C-60.912820542104804 74.5, 2.7798276657903926 74.5, 124.60546875 74.5 M124.60546875 74.5 C124.60546875 89.15164520423369, 124.60546875 103.80329040846738, 124.60546875 111.75 M124.60546875 74.5 C124.60546875 84.87394863249735, 124.60546875 95.24789726499468, 124.60546875 111.75 M124.60546875 111.75 C62.87210915881988 111.75, 1.1387495676397634 111.75, -124.60546875 111.75 M124.60546875 111.75 C54.66074255283863 111.75, -15.283983644322745 111.75, -124.60546875 111.75 M-124.60546875 111.75 C-124.60546875 103.46177769865814, -124.60546875 95.17355539731628, -124.60546875 74.5 M-124.60546875 111.75 C-124.60546875 103.14741798700234, -124.60546875 94.54483597400468, -124.60546875 74.5" stroke="#ccc" stroke-width="1.3" fill="none" stroke-dasharray="0 0"></path></g><g class="label name" transform="translate(-38.19140625, -102.375)" style=""><g><rect class="background" style="stroke: none"></rect></g><text y="-10.1" style=""><tspan class="text-outer-tspan" x="0" y="-0.1em" dy="1.1em"><tspan font-style="normal" class="text-inner-tspan" font-weight="normal">DIM_LEASE</tspan></tspan></text></g><g class="label attribute-type" transform="translate(-112.10546875, -65.125)" style=""><g><rect class="background" style="stroke: none"></rect></g><text y="-10.1" style=""><tspan class="text-outer-tspan" x="0" y="-0.1em" dy="1.1em"><tspan font-style="normal" class="text-inner-tspan" font-weight="normal">int</tspan></tspan></text></g><g class="label attribute-name" transform="translate(-30.57421875, -65.125)" style=""><g><rect class="background" style="stroke: none"></rect></g><text y="-10.1" style=""><tspan class="text-outer-tspan" x="0" y="-0.1em" dy="1.1em"><tspan font-style="normal" class="text-inner-tspan" font-weight="normal">lease_sk</tspan></tspan></text></g><g class="label attribute-keys" transform="translate(93.97265625, -65.125)" style=""><g><rect class="background" style="stroke: none"></rect></g><text y="-10.1" style=""><tspan class="text-outer-tspan" x="0" y="-0.1em" dy="1.1em"><tspan font-style="normal" class="text-inner-tspan" font-weight="normal">PK</tspan></tspan></text></g><g class="label attribute-comment" transform="translate(137.10546875, -65.125)" style=""><g><rect class="background" style="stroke: none"></rect></g><text y="-10.1" style=""><tspan class="text-outer-tspan" x="0" y="-0.1em" dy="1.1em"></tspan></text></g><g class="label attribute-type" transform="translate(-112.10546875, -27.875)" style=""><g><rect class="background" style="stroke: none"></rect></g><text y="-10.1" style=""><tspan class="text-outer-tspan" x="0" y="-0.1em" dy="1.1em"><tspan font-style="normal" class="text-inner-tspan" font-weight="normal">decimal</tspan></tspan></text></g><g class="label attribute-name" transform="translate(-30.57421875, -27.875)" style=""><g><rect class="background" style="stroke: none"></rect></g><text y="-10.1" style=""><tspan class="text-outer-tspan" x="0" y="-0.1em" dy="1.1em"><tspan font-style="normal" class="text-inner-tspan" font-weight="normal">lease_amount</tspan></tspan></text></g><g class="label attribute-keys" transform="translate(93.97265625, -27.875)" style=""><g><rect class="background" style="stroke: none"></rect></g><text y="-10.1" style=""><tspan class="text-outer-tspan" x="0" y="-0.1em" dy="1.1em"></tspan></text></g><g class="label attribute-comment" transform="translate(137.10546875, -27.875)" style=""><g><rect class="background" style="stroke: none"></rect></g><text y="-10.1" style=""><tspan class="text-outer-tspan" x="0" y="-0.1em" dy="1.1em"></tspan></text></g><g class="label attribute-type" transform="translate(-112.10546875, 9.375)" style=""><g><rect class="background" style="stroke: none"></rect></g><text y="-10.1" style=""><tspan class="text-outer-tspan" x="0" y="-0.1em" dy="1.1em"><tspan font-style="normal" class="text-inner-tspan" font-weight="normal">decimal</tspan></tspan></text></g><g class="label attribute-name" transform="translate(-30.57421875, 9.375)" style=""><g><rect class="background" style="stroke: none"></rect></g><text y="-10.1" style=""><tspan class="text-outer-tspan" x="0" y="-0.1em" dy="1.1em"><tspan font-style="normal" class="text-inner-tspan" font-weight="normal">interest_rate</tspan></tspan></text></g><g class="label attribute-keys" transform="translate(93.97265625, 9.375)" style=""><g><rect class="background" style="stroke: none"></rect></g><text y="-10.1" style=""><tspan class="text-outer-tspan" x="0" y="-0.1em" dy="1.1em"></tspan></text></g><g class="label attribute-comment" transform="translate(137.10546875, 9.375)" style=""><g><rect class="background" style="stroke: none"></rect></g><text y="-10.1" style=""><tspan class="text-outer-tspan" x="0" y="-0.1em" dy="1.1em"></tspan></text></g><g class="label attribute-type" transform="translate(-112.10546875, 46.625)" style=""><g><rect class="background" style="stroke: none"></rect></g><text y="-10.1" style=""><tspan class="text-outer-tspan" x="0" y="-0.1em" dy="1.1em"><tspan font-style="normal" class="text-inner-tspan" font-weight="normal">date</tspan></tspan></text></g><g class="label attribute-name" transform="translate(-30.57421875, 46.625)" style=""><g><rect class="background" style="stroke: none"></rect></g><text y="-10.1" style=""><tspan class="text-outer-tspan" x="0" y="-0.1em" dy="1.1em"><tspan font-style="normal" class="text-inner-tspan" font-weight="normal">lease_start</tspan></tspan></text></g><g class="label attribute-keys" transform="translate(93.97265625, 46.625)" style=""><g><rect class="background" style="stroke: none"></rect></g><text y="-10.1" style=""><tspan class="text-outer-tspan" x="0" y="-0.1em" dy="1.1em"></tspan></text></g><g class="label attribute-comment" transform="translate(137.10546875, 46.625)" style=""><g><rect class="background" style="stroke: none"></rect></g><text y="-10.1" style=""><tspan class="text-outer-tspan" x="0" y="-0.1em" dy="1.1em"></tspan></text></g><g class="label attribute-type" transform="translate(-112.10546875, 83.875)" style=""><g><rect class="background" style="stroke: none"></rect></g><text y="-10.1" style=""><tspan class="text-outer-tspan" x="0" y="-0.1em" dy="1.1em"><tspan font-style="normal" class="text-inner-tspan" font-weight="normal">date</tspan></tspan></text></g><g class="label attribute-name" transform="translate(-30.57421875, 83.875)" style=""><g><rect class="background" style="stroke: none"></rect></g><text y="-10.1" style=""><tspan class="text-outer-tspan" x="0" y="-0.1em" dy="1.1em"><tspan font-style="normal" class="text-inner-tspan" font-weight="normal">lease_end</tspan></tspan></text></g><g class="label attribute-keys" transform="translate(93.97265625, 83.875)" style=""><g><rect class="background" style="stroke: none"></rect></g><text y="-10.1" style=""><tspan class="text-outer-tspan" x="0" y="-0.1em" dy="1.1em"></tspan></text></g><g class="label attribute-comment" transform="translate(137.10546875, 83.875)" style=""><g><rect class="background" style="stroke: none"></rect></g><text y="-10.1" style=""><tspan class="text-outer-tspan" x="0" y="-0.1em" dy="1.1em"></tspan></text></g><g class="divider"><path d="M-124.60546875 -74.5 C-40.34780297944447 -74.5, 43.90986279111107 -74.5, 124.60546875 -74.5 M-124.60546875 -74.5 C-66.84842710683216 -74.5, -9.091385463664324 -74.5, 124.60546875 -74.5" stroke="#ccc" stroke-width="1.3" fill="none" stroke-dasharray="0 0"></path></g><g class="divider"><path d="M-43.07421875 -74.5 C-43.07421875 -14.619653251717303, -43.07421875 45.260693496565395, -43.07421875 111.75 M-43.07421875 -74.5 C-43.07421875 -31.774189948774314, -43.07421875 10.951620102451372, -43.07421875 111.75" stroke="#ccc" stroke-width="1.3" fill="none" stroke-dasharray="0 0"></path></g><g class="divider"><path d="M81.47265625 -74.5 C81.47265625 -25.572928684603106, 81.47265625 23.35414263079379, 81.47265625 111.75 M81.47265625 -74.5 C81.47265625 -4.812641274399269, 81.47265625 64.87471745120146, 81.47265625 111.75" stroke="#ccc" stroke-width="1.3" fill="none" stroke-dasharray="0 0"></path></g><g class="divider"><path d="M-124.60546875 -74.5 C-58.73867706348503 -74.5, 7.128114623029944 -74.5, 124.60546875 -74.5 M-124.60546875 -74.5 C-39.41267060662969 -74.5, 45.78012753674062 -74.5, 124.60546875 -74.5" stroke="#ccc" stroke-width="1.3" fill="none" stroke-dasharray="0 0"></path></g></g></g></g></g></svg>