<svg id="mermaid-_r_sk_" width="923.921875" xmlns="http://www.w3.org/2000/svg" class="erDiagram" height="509.75" viewBox="0 0 923.921875 509.75" role="graphics-document document" aria-roledescription="er"><style>#mermaid-_r_sk_{font-family:"trebuchet ms",verdana,arial,sans-serif;font-size:16px;fill:#ccc;}@keyframes edge-animation-frame{from{stroke-dashoffset:0;}}@keyframes dash{to{stroke-dashoffset:0;}}#mermaid-_r_sk_ .edge-animation-slow{stroke-dasharray:9,5!important;stroke-dashoffset:900;animation:dash 50s linear infinite;stroke-linecap:round;}#mermaid-_r_sk_ .edge-animation-fast{stroke-dasharray:9,5!important;stroke-dashoffset:900;animation:dash 20s linear infinite;stroke-linecap:round;}#mermaid-_r_sk_ .error-icon{fill:#a44141;}#mermaid-_r_sk_ .error-text{fill:#ddd;stroke:#ddd;}#mermaid-_r_sk_ .edge-thickness-normal{stroke-width:1px;}#mermaid-_r_sk_ .edge-thickness-thick{stroke-width:3.5px;}#mermaid-_r_sk_ .edge-pattern-solid{stroke-dasharray:0;}#mermaid-_r_sk_ .edge-thickness-invisible{stroke-width:0;fill:none;}#mermaid-_r_sk_ .edge-pattern-dashed{stroke-dasharray:3;}#mermaid-_r_sk_ .edge-pattern-dotted{stroke-dasharray:2;}#mermaid-_r_sk_ .marker{fill:lightgrey;stroke:lightgrey;}#mermaid-_r_sk_ .marker.cross{stroke:lightgrey;}#mermaid-_r_sk_ svg{font-family:"trebuchet ms",verdana,arial,sans-serif;font-size:16px;}#mermaid-_r_sk_ p{margin:0;}#mermaid-_r_sk_ .entityBox{fill:#1f2020;stroke:#ccc;}#mermaid-_r_sk_ .relationshipLabelBox{fill:hsl(20, 1.5873015873%, 12.3529411765%);opacity:0.7;background-color:hsl(20, 1.5873015873%, 12.3529411765%);}#mermaid-_r_sk_ .relationshipLabelBox rect{opacity:0.5;}#mermaid-_r_sk_ .labelBkg{background-color:rgba(32.0000000001, 31.3333333334, 31.0000000001, 0.5);}#mermaid-_r_sk_ .edgeLabel .label{fill:#ccc;font-size:14px;}#mermaid-_r_sk_ .label{font-family:"trebuchet ms",verdana,arial,sans-serif;color:#ccc;}#mermaid-_r_sk_ .edge-pattern-dashed{stroke-dasharray:8,8;}#mermaid-_r_sk_ .node rect,#mermaid-_r_sk_ .node circle,#mermaid-_r_sk_ .node ellipse,#mermaid-_r_sk_ .node polygon{fill:#1f2020;stroke:#ccc;stroke-width:1px;}#mermaid-_r_sk_ .relationshipLine{stroke:lightgrey;stroke-width:1;fill:none;}#mermaid-_r_sk_ .marker{fill:none!important;stroke:lightgrey!important;stroke-width:1;}#mermaid-_r_sk_ :root{--mermaid-font-family:"trebuchet ms",verdana,arial,sans-serif;}</style><g><defs><marker id="mermaid-_r_sk__er-onlyOneStart" class="marker onlyOne er" refX="0" refY="9" markerWidth="18" markerHeight="18" orient="auto"><path d="M9,0 L9,18 M15,0 L15,18"></path></marker></defs><defs><marker id="mermaid-_r_sk__er-onlyOneEnd" class="marker onlyOne er" refX="18" refY="9" markerWidth="18" markerHeight="18" orient="auto"><path d="M3,0 L3,18 M9,0 L9,18"></path></marker></defs><defs><marker id="mermaid-_r_sk__er-zeroOrOneStart" class="marker zeroOrOne er" refX="0" refY="9" markerWidth="30" markerHeight="18" orient="auto"><circle fill="white" cx="21" cy="9" r="6"></circle><path d="M9,0 L9,18"></path></marker></defs><defs><marker id="mermaid-_r_sk__er-zeroOrOneEnd" class="marker zeroOrOne er" refX="30" refY="9" markerWidth="30" markerHeight="18" orient="auto"><circle fill="white" cx="9" cy="9" r="6"></circle><path d="M21,0 L21,18"></path></marker></defs><defs><marker id="mermaid-_r_sk__er-oneOrMoreStart" class="marker oneOrMore er" refX="18" refY="18" markerWidth="45" markerHeight="36" orient="auto"><path d="M0,18 Q 18,0 36,18 Q 18,36 0,18 M42,9 L42,27"></path></marker></defs><defs><marker id="mermaid-_r_sk__er-oneOrMoreEnd" class="marker oneOrMore er" refX="27" refY="18" markerWidth="45" markerHeight="36" orient="auto"><path d="M3,9 L3,27 M9,18 Q27,0 45,18 Q27,36 9,18"></path></marker></defs><defs><marker id="mermaid-_r_sk__er-zeroOrMoreStart" class="marker zeroOrMore er" refX="18" refY="18" markerWidth="57" markerHeight="36" orient="auto"><circle fill="white" cx="48" cy="18" r="6"></circle><path d="M0,18 Q18,0 36,18 Q18,36 0,18"></path></marker></defs><defs><marker id="mermaid-_r_sk__er-zeroOrMoreEnd" class="marker zeroOrMore er" refX="39" refY="18" markerWidth="57" markerHeight="36" orient="auto"><circle fill="white" cx="9" cy="18" r="6"></circle><path d="M21,18 Q39,0 57,18 Q39,36 21,18"></path></marker></defs><g class="root"><g class="clusters"></g><g class="edgePaths"><path d="M313.275,245.594L271.526,268.537C229.777,291.48,146.279,337.365,104.53,366.974C62.781,396.583,62.781,409.917,62.781,416.583L62.781,423.25" id="id_entity-FACT_BANK_SETTLEMENT-0_entity-DIM_DATE-1_0" class="edge-thickness-normal edge-pattern-solid relationshipLine" style="undefined;;;undefined" data-edge="true" data-et="edge" data-id="id_entity-FACT_BANK_SETTLEMENT-0_entity-DIM_DATE-1_0" data-points="W3sieCI6MzEzLjI3NTM5MDYyNSwieSI6MjQ1LjU5NDMxMjY2NTc0NjV9LHsieCI6NjIuNzgxMjUsInkiOjM4My4yNX0seyJ4Ijo2Mi43ODEyNSwieSI6NDIzLjI1fV0=" marker-start="url(#mermaid-_r_sk__er-zeroOrMoreStart)" marker-end="url(#mermaid-_r_sk__er-onlyOneEnd)"></path><path d="M338.005,343.25L333.925,349.917C329.845,356.583,321.684,369.917,317.604,383.25C313.523,396.583,313.523,409.917,313.523,416.583L313.523,423.25" id="id_entity-FACT_BANK_SETTLEMENT-0_entity-DIM_BANK-2_1" class="edge-thickness-normal edge-pattern-solid relationshipLine" style="undefined;;;undefined" data-edge="true" data-et="edge" data-id="id_entity-FACT_BANK_SETTLEMENT-0_entity-DIM_BANK-2_1" data-points="W3sieCI6MzM4LjAwNTMwMDgzNTM0MDE3LCJ5IjozNDMuMjV9LHsieCI6MzEzLjUyMzQzNzUsInkiOjM4My4yNX0seyJ4IjozMTMuNTIzNDM3NSwieSI6NDIzLjI1fV0=" marker-start="url(#mermaid-_r_sk__er-zeroOrMoreStart)" marker-end="url(#mermaid-_r_sk__er-onlyOneEnd)"></path><path d="M543.194,343.25L547.274,349.917C551.355,356.583,559.515,369.917,563.595,383.25C567.676,396.583,567.676,409.917,567.676,416.583L567.676,423.25" id="id_entity-FACT_BANK_SETTLEMENT-0_entity-DIM_LEASE-3_2" class="edge-thickness-normal edge-pattern-solid relationshipLine" style="undefined;;;undefined" data-edge="true" data-et="edge" data-id="id_entity-FACT_BANK_SETTLEMENT-0_entity-DIM_LEASE-3_2" data-points="W3sieCI6NTQzLjE5MzkxNzkxNDY1OTksInkiOjM0My4yNX0seyJ4Ijo1NjcuNjc1NzgxMjUsInkiOjM4My4yNX0seyJ4Ijo1NjcuNjc1NzgxMjUsInkiOjQyMy4yNX1d" marker-start="url(#mermaid-_r_sk__er-zeroOrMoreStart)" marker-end="url(#mermaid-_r_sk__er-onlyOneEnd)"></path><path d="M567.924,241.666L613.419,265.263C658.914,288.86,749.904,336.055,795.399,366.319C840.895,396.583,840.895,409.917,840.895,416.583L840.895,423.25" id="id_entity-FACT_BANK_SETTLEMENT-0_entity-DIM_CURRENCY-4_3" class="edge-thickness-normal edge-pattern-solid relationshipLine" style="undefined;;;undefined" data-edge="true" data-et="edge" data-id="id_entity-FACT_BANK_SETTLEMENT-0_entity-DIM_CURRENCY-4_3" data-points="W3sieCI6NTY3LjkyMzgyODEyNSwieSI6MjQxLjY2NTUzNTI5ODY4MTE2fSx7IngiOjg0MC44OTQ1MzEyNSwieSI6MzgzLjI1fSx7IngiOjg0MC44OTQ1MzEyNSwieSI6NDIzLjI1fV0=" marker-start="url(#mermaid-_r_sk__er-zeroOrMoreStart)" marker-end="url(#mermaid-_r_sk__er-onlyOneEnd)"></path></g><g class="edgeLabels"><g><rect class="background" style="stroke: none"></rect></g><g><rect class="background" style="stroke: none"></rect></g><g><rect class="background" style="stroke: none"></rect></g><g><rect class="background" style="stroke: none"></rect></g><g class="edgeLabel"><g class="label" data-id="id_entity-FACT_BANK_SETTLEMENT-0_entity-DIM_DATE-1_0" transform="translate(0, 0)"><text y="-10.1"><tspan class="text-outer-tspan" x="0" y="-0.1em" dy="1.1em"></tspan></text></g></g><g class="edgeLabel"><g class="label" data-id="id_entity-FACT_BANK_SETTLEMENT-0_entity-DIM_BANK-2_1" transform="translate(0, 0)"><text y="-10.1"><tspan class="text-outer-tspan" x="0" y="-0.1em" dy="1.1em"></tspan></text></g></g><g class="edgeLabel"><g class="label" data-id="id_entity-FACT_BANK_SETTLEMENT-0_entity-DIM_LEASE-3_2" transform="translate(0, 0)"><text y="-10.1"><tspan class="text-outer-tspan" x="0" y="-0.1em" dy="1.1em"></tspan></text></g></g><g class="edgeLabel"><g class="label" data-id="id_entity-FACT_BANK_SETTLEMENT-0_entity-DIM_CURRENCY-4_3" transform="translate(0, 0)"><text y="-10.1"><tspan class="text-outer-tspan" x="0" y="-0.1em" dy="1.1em"></tspan></text></g></g></g><g class="nodes"><g class="node default" id="entity-FACT_BANK_SETTLEMENT-0" transform="translate(440.599609375, 175.625)"><g style=""><path d="M-127.32421875 -167.625 L127.32421875 -167.625 L127.32421875 167.625 L-127.32421875 167.625" stroke="none" stroke-width="0" fill="#1f2020"></path><path d="M-127.32421875 -167.625 C-64.71207719561677 -167.625, -2.099935641233543 -167.625, 127.32421875 -167.625 M-127.32421875 -167.625 C-27.722651846598424 -167.625, 71.87891505680315 -167.625, 127.32421875 -167.625 M127.32421875 -167.625 C127.32421875 -82.68177110474846, 127.32421875 2.261457790503073, 127.32421875 167.625 M127.32421875 -167.625 C127.32421875 -93.48728326087685, 127.32421875 -19.3495665217537, 127.32421875 167.625 M127.32421875 167.625 C38.55680230822766 167.625, -50.21061413354468 167.625, -127.32421875 167.625 M127.32421875 167.625 C41.71754450605796 167.625, -43.889129737884076 167.625, -127.32421875 167.625 M-127.32421875 167.625 C-127.32421875 93.11627253525565, -127.32421875 18.607545070511293, -127.32421875 -167.625 M-127.32421875 167.625 C-127.32421875 39.5035957448994, -127.32421875 -88.6178085102012, -127.32421875 -167.625" stroke="#ccc" stroke-width="1.3" fill="none" stroke-dasharray="0 0"></path></g><g style="" class="row-rect-odd"><path d="M-127.32421875 -130.375 L127.32421875 -130.375 L127.32421875 -93.125 L-127.32421875 -93.125" stroke="none" stroke-width="0" fill="hsl(180, 1.5873015873%, 17.3529411765%)"></path><path d="M-127.32421875 -130.375 C-72.23834962785176 -130.375, -17.152480505703537 -130.375, 127.32421875 -130.375 M-127.32421875 -130.375 C-62.56038361797296 -130.375, 2.2034515140540805 -130.375, 127.32421875 -130.375 M127.32421875 -130.375 C127.32421875 -118.87339176224835, 127.32421875 -107.37178352449669, 127.32421875 -93.125 M127.32421875 -130.375 C127.32421875 -122.58311507681371, 127.32421875 -114.79123015362742, 127.32421875 -93.125 M127.32421875 -93.125 C32.29206888699437 -93.125, -62.74008097601126 -93.125, -127.32421875 -93.125 M127.32421875 -93.125 C49.577064441681316 -93.125, -28.17008986663737 -93.125, -127.32421875 -93.125 M-127.32421875 -93.125 C-127.32421875 -105.36229737603297, -127.32421875 -117.59959475206593, -127.32421875 -130.375 M-127.32421875 -93.125 C-127.32421875 -100.98340031857379, -127.32421875 -108.84180063714759, -127.32421875 -130.375" stroke="#ccc" stroke-width="1.3" fill="none" stroke-dasharray="0 0"></path></g><g style="" class="row-rect-even"><path d="M-127.32421875 -93.125 L127.32421875 -93.125 L127.32421875 -55.875 L-127.32421875 -55.875" stroke="none" stroke-width="0" fill="hsl(180, 1.5873015873%, 2.3529411765%)"></path><path d="M-127.32421875 -93.125 C-26.122478230644575 -93.125, 75.07926228871085 -93.125, 127.32421875 -93.125 M-127.32421875 -93.125 C-35.32630556132237 -93.125, 56.67160762735526 -93.125, 127.32421875 -93.125 M127.32421875 -93.125 C127.32421875 -81.02680565898885, 127.32421875 -68.9286113179777, 127.32421875 -55.875 M127.32421875 -93.125 C127.32421875 -82.95326235085741, 127.32421875 -72.78152470171483, 127.32421875 -55.875 M127.32421875 -55.875 C62.344346784316286 -55.875, -2.635525181367427 -55.875, -127.32421875 -55.875 M127.32421875 -55.875 C37.839475068425116 -55.875, -51.64526861314977 -55.875, -127.32421875 -55.875 M-127.32421875 -55.875 C-127.32421875 -67.16910734202668, -127.32421875 -78.46321468405336, -127.32421875 -93.125 M-127.32421875 -55.875 C-127.32421875 -66.47451477784303, -127.32421875 -77.07402955568605, -127.32421875 -93.125" stroke="#ccc" stroke-width="1.3" fill="none" stroke-dasharray="0 0"></path></g><g style="" class="row-rect-odd"><path d="M-127.32421875 -55.875 L127.32421875 -55.875 L127.32421875 -18.625 L-127.32421875 -18.625" stroke="none" stroke-width="0" fill="hsl(180, 1.5873015873%, 17.3529411765%)"></path><path d="M-127.32421875 -55.875 C-49.367183856225594 -55.875, 28.58985103754881 -55.875, 127.32421875 -55.875 M-127.32421875 -55.875 C-30.031937756566762 -55.875, 67.26034323686648 -55.875, 127.32421875 -55.875 M127.32421875 -55.875 C127.32421875 -42.372354939756676, 127.32421875 -28.869709879513348, 127.32421875 -18.625 M127.32421875 -55.875 C127.32421875 -42.00761330434976, 127.32421875 -28.14022660869952, 127.32421875 -18.625 M127.32421875 -18.625 C39.19035807446488 -18.625, -48.943502601070236 -18.625, -127.32421875 -18.625 M127.32421875 -18.625 C51.78836255236122 -18.625, -23.747493645277558 -18.625, -127.32421875 -18.625 M-127.32421875 -18.625 C-127.32421875 -29.7574752689066, -127.32421875 -40.8899505378132, -127.32421875 -55.875 M-127.32421875 -18.625 C-127.32421875 -33.345895382994904, -127.32421875 -48.06679076598981, -127.32421875 -55.875" stroke="#ccc" stroke-width="1.3" fill="none" stroke-dasharray="0 0"></path></g><g style="" class="row-rect-even"><path d="M-127.32421875 -18.625 L127.32421875 -18.625 L127.32421875 18.625 L-127.32421875 18.625" stroke="none" stroke-width="0" fill="hsl(180, 1.5873015873%, 2.3529411765%)"></path><path d="M-127.32421875 -18.625 C-52.28896477996598 -18.625, 22.74628919006804 -18.625, 127.32421875 -18.625 M-127.32421875 -18.625 C-25.594651233213767 -18.625, 76.13491628357247 -18.625, 127.32421875 -18.625 M127.32421875 -18.625 C127.32421875 -4.154648212201424, 127.32421875 10.315703575597151, 127.32421875 18.625 M127.32421875 -18.625 C127.32421875 -7.72666464751712, 127.32421875 3.1716707049657593, 127.32421875 18.625 M127.32421875 18.625 C68.2324413405718 18.625, 9.140663931143592 18.625, -127.32421875 18.625 M127.32421875 18.625 C66.27942849551549 18.625, 5.234638241030979 18.625, -127.32421875 18.625 M-127.32421875 18.625 C-127.32421875 6.637989794979889, -127.32421875 -5.349020410040222, -127.32421875 -18.625 M-127.32421875 18.625 C-127.32421875 7.762202978193887, -127.32421875 -3.100594043612226, -127.32421875 -18.625" stroke="#ccc" stroke-width="1.3" fill="none" stroke-dasharray="0 0"></path></g><g style="" class="row-rect-odd"><path d="M-127.32421875 18.625 L127.32421875 18.625 L127.32421875 55.875 L-127.32421875 55.875" stroke="none" stroke-width="0" fill="hsl(180, 1.5873015873%, 17.3529411765%)"></path><path d="M-127.32421875 18.625 C-35.44436431017155 18.625, 56.4354901296569 18.625, 127.32421875 18.625 M-127.32421875 18.625 C-64.19321816322591 18.625, -1.0622175764518005 18.625, 127.32421875 18.625 M127.32421875 18.625 C127.32421875 28.318738438890833, 127.32421875 38.012476877781666, 127.32421875 55.875 M127.32421875 18.625 C127.32421875 29.776451670763507, 127.32421875 40.92790334152701, 127.32421875 55.875 M127.32421875 55.875 C56.23700058629504 55.875, -14.850217577409921 55.875, -127.32421875 55.875 M127.32421875 55.875 C74.26492401712781 55.875, 21.205629284255608 55.875, -127.32421875 55.875 M-127.32421875 55.875 C-127.32421875 43.739458319228795, -127.32421875 31.603916638457594, -127.32421875 18.625 M-127.32421875 55.875 C-127.32421875 45.05317164991472, -127.32421875 34.23134329982944, -127.32421875 18.625" stroke="#ccc" stroke-width="1.3" fill="none" stroke-dasharray="0 0"></path></g><g style="" class="row-rect-even"><path d="M-127.32421875 55.875 L127.32421875 55.875 L127.32421875 93.125 L-127.32421875 93.125" stroke="none" stroke-width="0" fill="hsl(180, 1.5873015873%, 2.3529411765%)"></path><path d="M-127.32421875 55.875 C-53.06985501116361 55.875, 21.184508727672778 55.875, 127.32421875 55.875 M-127.32421875 55.875 C-48.90709902917351 55.875, 29.510020691652983 55.875, 127.32421875 55.875 M127.32421875 55.875 C127.32421875 69.06975760475399, 127.32421875 82.26451520950796, 127.32421875 93.125 M127.32421875 55.875 C127.32421875 65.72942625087089, 127.32421875 75.58385250174177, 127.32421875 93.125 M127.32421875 93.125 C46.17588263086229 93.125, -34.97245348827542 93.125, -127.32421875 93.125 M127.32421875 93.125 C46.10723231736526 93.125, -35.10975411526948 93.125, -127.32421875 93.125 M-127.32421875 93.125 C-127.32421875 84.38956928183029, -127.32421875 75.65413856366058, -127.32421875 55.875 M-127.32421875 93.125 C-127.32421875 84.56780891742562, -127.32421875 76.01061783485123, -127.32421875 55.875" stroke="#ccc" stroke-width="1.3" fill="none" stroke-dasharray="0 0"></path></g><g style="" class="row-rect-odd"><path d="M-127.32421875 93.125 L127.32421875 93.125 L127.32421875 130.375 L-127.32421875 130.375" stroke="none" stroke-width="0" fill="hsl(180, 1.5873015873%, 17.3529411765%)"></path><path d="M-127.32421875 93.125 C-48.46550506503296 93.125, 30.393208619934086 93.125, 127.32421875 93.125 M-127.32421875 93.125 C-34.095142970795436 93.125, 59.13393280840913 93.125, 127.32421875 93.125 M127.32421875 93.125 C127.32421875 104.38842226147753, 127.32421875 115.65184452295506, 127.32421875 130.375 M127.32421875 93.125 C127.32421875 101.94117842040899, 127.32421875 110.75735684081798, 127.32421875 130.375 M127.32421875 130.375 C27.867849458640933 130.375, -71.58851983271813 130.375, -127.32421875 130.375 M127.32421875 130.375 C34.91590405302806 130.375, -57.492410643943884 130.375, -127.32421875 130.375 M-127.32421875 130.375 C-127.32421875 119.31449621180329, -127.32421875 108.25399242360658, -127.32421875 93.125 M-127.32421875 130.375 C-127.32421875 117.55499558354816, -127.32421875 104.73499116709633, -127.32421875 93.125" stroke="#ccc" stroke-width="1.3" fill="none" stroke-dasharray="0 0"></path></g><g style="" class="row-rect-even"><path d="M-127.32421875 130.375 L127.32421875 130.375 L127.32421875 167.625 L-127.32421875 167.625" stroke="none" stroke-width="0" fill="hsl(180, 1.5873015873%, 2.3529411765%)"></path><path d="M-127.32421875 130.375 C-61.081873688735556 130.375, 5.160471372528889 130.375, 127.32421875 130.375 M-127.32421875 130.375 C-71.2181147622078 130.375, -15.112010774415609 130.375, 127.32421875 130.375 M127.32421875 130.375 C127.32421875 144.41716501508796, 127.32421875 158.45933003017595, 127.32421875 167.625 M127.32421875 130.375 C127.32421875 138.9193842480497, 127.32421875 147.46376849609942, 127.32421875 167.625 M127.32421875 167.625 C28.58363434492179 167.625, -70.15695006015642 167.625, -127.32421875 167.625 M127.32421875 167.625 C60.96780338831334 167.625, -5.388611973373315 167.625, -127.32421875 167.625 M-127.32421875 167.625 C-127.32421875 156.31532977953165, -127.32421875 145.0056595590633, -127.32421875 130.375 M-127.32421875 167.625 C-127.32421875 155.77124506657316, -127.32421875 143.91749013314632, -127.32421875 130.375" stroke="#ccc" stroke-width="1.3" fill="none" stroke-dasharray="0 0"></path></g><g class="label name" transform="translate(-90.31640625, -158.25)" style=""><g><rect class="background" style="stroke: none"></rect></g><text y="-10.1" style=""><tspan class="text-outer-tspan" x="0" y="-0.1em" dy="1.1em"><tspan font-style="normal" class="text-inner-tspan" font-weight="normal">FACT_BANK_SETTLEMENT</tspan></tspan></text></g><g class="label attribute-type" transform="translate(-114.82421875, -121)" style=""><g><rect class="background" style="stroke: none"></rect></g><text y="-10.1" style=""><tspan class="text-outer-tspan" x="0" y="-0.1em" dy="1.1em"><tspan font-style="normal" class="text-inner-tspan" font-weight="normal">int</tspan></tspan></text></g><g class="label attribute-name" transform="translate(-33.29296875, -121)" style=""><g><rect class="background" style="stroke: none"></rect></g><text y="-10.1" style=""><tspan class="text-outer-tspan" x="0" y="-0.1em" dy="1.1em"><tspan font-style="normal" class="text-inner-tspan" font-weight="normal">date_sk</tspan></tspan></text></g><g class="label attribute-keys" transform="translate(139.82421875, -121)" style=""><g><rect class="background" style="stroke: none"></rect></g><text y="-10.1" style=""><tspan class="text-outer-tspan" x="0" y="-0.1em" dy="1.1em"></tspan></text></g><g class="label attribute-comment" transform="translate(139.82421875, -121)" style=""><g><rect class="background" style="stroke: none"></rect></g><text y="-10.1" style=""><tspan class="text-outer-tspan" x="0" y="-0.1em" dy="1.1em"></tspan></text></g><g class="label attribute-type" transform="translate(-114.82421875, -83.75)" style=""><g><rect class="background" style="stroke: none"></rect></g><text y="-10.1" style=""><tspan class="text-outer-tspan" x="0" y="-0.1em" dy="1.1em"><tspan font-style="normal" class="text-inner-tspan" font-weight="normal">int</tspan></tspan></text></g><g class="label attribute-name" transform="translate(-33.29296875, -83.75)" style=""><g><rect class="background" style="stroke: none"></rect></g><text y="-10.1" style=""><tspan class="text-outer-tspan" x="0" y="-0.1em" dy="1.1em"><tspan font-style="normal" class="text-inner-tspan" font-weight="normal">bank_sk</tspan></tspan></text></g><g class="label attribute-keys" transform="translate(139.82421875, -83.75)" style=""><g><rect class="background" style="stroke: none"></rect></g><text y="-10.1" style=""><tspan class="text-outer-tspan" x="0" y="-0.1em" dy="1.1em"></tspan></text></g><g class="label attribute-comment" transform="translate(139.82421875, -83.75)" style=""><g><rect class="background" style="stroke: none"></rect></g><text y="-10.1" style=""><tspan class="text-outer-tspan" x="0" y="-0.1em" dy="1.1em"></tspan></text></g><g class="label attribute-type" transform="translate(-114.82421875, -46.5)" style=""><g><rect class="background" style="stroke: none"></rect></g><text y="-10.1" style=""><tspan class="text-outer-tspan" x="0" y="-0.1em" dy="1.1em"><tspan font-style="normal" class="text-inner-tspan" font-weight="normal">int</tspan></tspan></text></g><g class="label attribute-name" transform="translate(-33.29296875, -46.5)" style=""><g><rect class="background" style="stroke: none"></rect></g><text y="-10.1" style=""><tspan class="text-outer-tspan" x="0" y="-0.1em" dy="1.1em"><tspan font-style="normal" class="text-inner-tspan" font-weight="normal">lease_sk</tspan></tspan></text></g><g class="label attribute-keys" transform="translate(139.82421875, -46.5)" style=""><g><rect class="background" style="stroke: none"></rect></g><text y="-10.1" style=""><tspan class="text-outer-tspan" x="0" y="-0.1em" dy="1.1em"></tspan></text></g><g class="label attribute-comment" transform="translate(139.82421875, -46.5)" style=""><g><rect class="background" style="stroke: none"></rect></g><text y="-10.1" style=""><tspan class="text-outer-tspan" x="0" y="-0.1em" dy="1.1em"></tspan></text></g><g class="label attribute-type" transform="translate(-114.82421875, -9.25)" style=""><g><rect class="background" style="stroke: none"></rect></g><text y="-10.1" style=""><tspan class="text-outer-tspan" x="0" y="-0.1em" dy="1.1em"><tspan font-style="normal" class="text-inner-tspan" font-weight="normal">int</tspan></tspan></text></g><g class="label attribute-name" transform="translate(-33.29296875, -9.25)" style=""><g><rect class="background" style="stroke: none"></rect></g><text y="-10.1" style=""><tspan class="text-outer-tspan" x="0" y="-0.1em" dy="1.1em"><tspan font-style="normal" class="text-inner-tspan" font-weight="normal">currency_sk</tspan></tspan></text></g><g class="label attribute-keys" transform="translate(139.82421875, -9.25)" style=""><g><rect class="background" style="stroke: none"></rect></g><text y="-10.1" style=""><tspan class="text-outer-tspan" x="0" y="-0.1em" dy="1.1em"></tspan></text></g><g class="label attribute-comment" transform="translate(139.82421875, -9.25)" style=""><g><rect class="background" style="stroke: none"></rect></g><text y="-10.1" style=""><tspan class="text-outer-tspan" x="0" y="-0.1em" dy="1.1em"></tspan></text></g><g class="label attribute-type" transform="translate(-114.82421875, 28)" style=""><g><rect class="background" style="stroke: none"></rect></g><text y="-10.1" style=""><tspan class="text-outer-tspan" x="0" y="-0.1em" dy="1.1em"><tspan font-style="normal" class="text-inner-tspan" font-weight="normal">decimal</tspan></tspan></text></g><g class="label attribute-name" transform="translate(-33.29296875, 28)" style=""><g><rect class="background" style="stroke: none"></rect></g><text y="-10.1" style=""><tspan class="text-outer-tspan" x="0" y="-0.1em" dy="1.1em"><tspan font-style="normal" class="text-inner-tspan" font-weight="normal">lease_amount</tspan></tspan></text></g><g class="label attribute-keys" transform="translate(139.82421875, 28)" style=""><g><rect class="background" style="stroke: none"></rect></g><text y="-10.1" style=""><tspan class="text-outer-tspan" x="0" y="-0.1em" dy="1.1em"></tspan></text></g><g class="label attribute-comment" transform="translate(139.82421875, 28)" style=""><g><rect class="background" style="stroke: none"></rect></g><text y="-10.1" style=""><tspan class="text-outer-tspan" x="0" y="-0.1em" dy="1.1em"></tspan></text></g><g class="label attribute-type" transform="translate(-114.82421875, 65.25)" style=""><g><rect class="background" style="stroke: none"></rect></g><text y="-10.1" style=""><tspan class="text-outer-tspan" x="0" y="-0.1em" dy="1.1em"><tspan font-style="normal" class="text-inner-tspan" font-weight="normal">decimal</tspan></tspan></text></g><g class="label attribute-name" transform="translate(-33.29296875, 65.25)" style=""><g><rect class="background" style="stroke: none"></rect></g><text y="-10.1" style=""><tspan class="text-outer-tspan" x="0" y="-0.1em" dy="1.1em"><tspan font-style="normal" class="text-inner-tspan" font-weight="normal">interest_amount</tspan></tspan></text></g><g class="label attribute-keys" transform="translate(139.82421875, 65.25)" style=""><g><rect class="background" style="stroke: none"></rect></g><text y="-10.1" style=""><tspan class="text-outer-tspan" x="0" y="-0.1em" dy="1.1em"></tspan></text></g><g class="label attribute-comment" transform="translate(139.82421875, 65.25)" style=""><g><rect class="background" style="stroke: none"></rect></g><text y="-10.1" style=""><tspan class="text-outer-tspan" x="0" y="-0.1em" dy="1.1em"></tspan></text></g><g class="label attribute-type" transform="translate(-114.82421875, 102.5)" style=""><g><rect class="background" style="stroke: none"></rect></g><text y="-10.1" style=""><tspan class="text-outer-tspan" x="0" y="-0.1em" dy="1.1em"><tspan font-style="normal" class="text-inner-tspan" font-weight="normal">decimal</tspan></tspan></text></g><g class="label attribute-name" transform="translate(-33.29296875, 102.5)" style=""><g><rect class="background" style="stroke: none"></rect></g><text y="-10.1" style=""><tspan class="text-outer-tspan" x="0" y="-0.1em" dy="1.1em"><tspan font-style="normal" class="text-inner-tspan" font-weight="normal">settlement_amount</tspan></tspan></text></g><g class="label attribute-keys" transform="translate(139.82421875, 102.5)" style=""><g><rect class="background" style="stroke: none"></rect></g><text y="-10.1" style=""><tspan class="text-outer-tspan" x="0" y="-0.1em" dy="1.1em"></tspan></text></g><g class="label attribute-comment" transform="translate(139.82421875, 102.5)" style=""><g><rect class="background" style="stroke: none"></rect></g><text y="-10.1" style=""><tspan class="text-outer-tspan" x="0" y="-0.1em" dy="1.1em"></tspan></text></g><g class="label attribute-type" transform="translate(-114.82421875, 139.75)" style=""><g><rect class="background" style="stroke: none"></rect></g><text y="-10.1" style=""><tspan class="text-outer-tspan" x="0" y="-0.1em" dy="1.1em"><tspan font-style="normal" class="text-inner-tspan" font-weight="normal">decimal</tspan></tspan></text></g><g class="label attribute-name" transform="translate(-33.29296875, 139.75)" style=""><g><rect class="background" style="stroke: none"></rect></g><text y="-10.1" style=""><tspan class="text-outer-tspan" x="0" y="-0.1em" dy="1.1em"><tspan font-style="normal" class="text-inner-tspan" font-weight="normal">outstanding_balance</tspan></tspan></text></g><g class="label attribute-keys" transform="translate(139.82421875, 139.75)" style=""><g><rect class="background" style="stroke: none"></rect></g><text y="-10.1" style=""><tspan class="text-outer-tspan" x="0" y="-0.1em" dy="1.1em"></tspan></text></g><g class="label attribute-comment" transform="translate(139.82421875, 139.75)" style=""><g><rect class="background" style="stroke: none"></rect></g><text y="-10.1" style=""><tspan class="text-outer-tspan" x="0" y="-0.1em" dy="1.1em"></tspan></text></g><g class="divider"><path d="M-127.32421875 -130.375 C-35.01995348693832 -130.375, 57.28431177612336 -130.375, 127.32421875 -130.375 M-127.32421875 -130.375 C-44.302505762947845 -130.375, 38.71920722410431 -130.375, 127.32421875 -130.375" stroke="#ccc" stroke-width="1.3" fill="none" stroke-dasharray="0 0"></path></g><g class="divider"><path d="M-45.79296875 -130.375 C-45.79296875 -12.406200020403872, -45.79296875 105.56259995919226, -45.79296875 167.625 M-45.79296875 -130.375 C-45.79296875 -53.80950617541875, -45.79296875 22.755987649162506, -45.79296875 167.625" stroke="#ccc" stroke-width="1.3" fill="none" stroke-dasharray="0 0"></path></g><g class="divider"><path d="M-127.32421875 -130.375 C-44.093914967450786 -130.375, 39.13638881509843 -130.375, 127.32421875 -130.375 M-127.32421875 -130.375 C-72.5256208295121 -130.375, -17.727022909024214 -130.375, 127.32421875 -130.375" stroke="#ccc" stroke-width="1.3" fill="none" stroke-dasharray="0 0"></path></g></g><g class="node default" id="entity-DIM_DATE-1" transform="translate(62.78125, 462.5)"><rect class="basic label-container" style="" x="-54.78125" y="-39.25" width="109.5625" height="78.5"></rect><g class="label" style="" transform="translate(0, -9.25)"><rect></rect><g><rect class="background" style="stroke: none"></rect><text y="-10.1" style="" transform="translate(-34.78125, 0)"><tspan class="text-outer-tspan" x="0" y="-0.1em" dy="1.1em"><tspan font-style="normal" class="text-inner-tspan" font-weight="normal">DIM_DATE</tspan></tspan></text></g></g></g><g class="node default" id="entity-DIM_BANK-2" transform="translate(313.5234375, 462.5)"><rect class="basic label-container" style="" x="-55.9609375" y="-39.25" width="111.921875" height="78.5"></rect><g class="label" style="" transform="translate(0, -9.25)"><rect></rect><g><rect class="background" style="stroke: none"></rect><text y="-10.1" style="" transform="translate(-35.9609375, 0)"><tspan class="text-outer-tspan" x="0" y="-0.1em" dy="1.1em"><tspan font-style="normal" class="text-inner-tspan" font-weight="normal">DIM_BANK</tspan></tspan></text></g></g></g><g class="node default" id="entity-DIM_LEASE-3" transform="translate(567.67578125, 462.5)"><rect class="basic label-container" style="" x="-58.19140625" y="-39.25" width="116.3828125" height="78.5"></rect><g class="label" style="" transform="translate(0, -9.25)"><rect></rect><g><rect class="background" style="stroke: none"></rect><text y="-10.1" style="" transform="translate(-38.19140625, 0)"><tspan class="text-outer-tspan" x="0" y="-0.1em" dy="1.1em"><tspan font-style="normal" class="text-inner-tspan" font-weight="normal">DIM_LEASE</tspan></tspan></text></g></g></g><g class="node default" id="entity-DIM_CURRENCY-4" transform="translate(840.89453125, 462.5)"><rect class="basic label-container" style="" x="-75.02734375" y="-39.25" width="150.0546875" height="78.5"></rect><g class="label" style="" transform="translate(0, -9.25)"><rect></rect><g><rect class="background" style="stroke: none"></rect><text y="-10.1" style="" transform="translate(-55.02734375, 0)"><tspan class="text-outer-tspan" x="0" y="-0.1em" dy="1.1em"><tspan font-style="normal" class="text-inner-tspan" font-weight="normal">DIM_CURRENCY</tspan></tspan></text></g></g></g></g></g></g></svg>