<svg id="mermaid-_r_sb_" width="3617.38671875" xmlns="http://www.w3.org/2000/svg" class="erDiagram" height="286.25" viewBox="0 0 3617.38671875 286.25" role="graphics-document document" aria-roledescription="er"><style>#mermaid-_r_sb_{font-family:"trebuchet ms",verdana,arial,sans-serif;font-size:16px;fill:#ccc;}@keyframes edge-animation-frame{from{stroke-dashoffset:0;}}@keyframes dash{to{stroke-dashoffset:0;}}#mermaid-_r_sb_ .edge-animation-slow{stroke-dasharray:9,5!important;stroke-dashoffset:900;animation:dash 50s linear infinite;stroke-linecap:round;}#mermaid-_r_sb_ .edge-animation-fast{stroke-dasharray:9,5!important;stroke-dashoffset:900;animation:dash 20s linear infinite;stroke-linecap:round;}#mermaid-_r_sb_ .error-icon{fill:#a44141;}#mermaid-_r_sb_ .error-text{fill:#ddd;stroke:#ddd;}#mermaid-_r_sb_ .edge-thickness-normal{stroke-width:1px;}#mermaid-_r_sb_ .edge-thickness-thick{stroke-width:3.5px;}#mermaid-_r_sb_ .edge-pattern-solid{stroke-dasharray:0;}#mermaid-_r_sb_ .edge-thickness-invisible{stroke-width:0;fill:none;}#mermaid-_r_sb_ .edge-pattern-dashed{stroke-dasharray:3;}#mermaid-_r_sb_ .edge-pattern-dotted{stroke-dasharray:2;}#mermaid-_r_sb_ .marker{fill:lightgrey;stroke:lightgrey;}#mermaid-_r_sb_ .marker.cross{stroke:lightgrey;}#mermaid-_r_sb_ svg{font-family:"trebuchet ms",verdana,arial,sans-serif;font-size:16px;}#mermaid-_r_sb_ p{margin:0;}#mermaid-_r_sb_ .entityBox{fill:#1f2020;stroke:#ccc;}#mermaid-_r_sb_ .relationshipLabelBox{fill:hsl(20, 1.5873015873%, 12.3529411765%);opacity:0.7;background-color:hsl(20, 1.5873015873%, 12.3529411765%);}#mermaid-_r_sb_ .relationshipLabelBox rect{opacity:0.5;}#mermaid-_r_sb_ .labelBkg{background-color:rgba(32.0000000001, 31.3333333334, 31.0000000001, 0.5);}#mermaid-_r_sb_ .edgeLabel .label{fill:#ccc;font-size:14px;}#mermaid-_r_sb_ .label{font-family:"trebuchet ms",verdana,arial,sans-serif;color:#ccc;}#mermaid-_r_sb_ .edge-pattern-dashed{stroke-dasharray:8,8;}#mermaid-_r_sb_ .node rect,#mermaid-_r_sb_ .node circle,#mermaid-_r_sb_ .node ellipse,#mermaid-_r_sb_ .node polygon{fill:#1f2020;stroke:#ccc;stroke-width:1px;}#mermaid-_r_sb_ .relationshipLine{stroke:lightgrey;stroke-width:1;fill:none;}#mermaid-_r_sb_ .marker{fill:none!important;stroke:lightgrey!important;stroke-width:1;}#mermaid-_r_sb_ :root{--mermaid-font-family:"trebuchet ms",verdana,arial,sans-serif;}</style><g><defs><marker id="mermaid-_r_sb__er-onlyOneStart" class="marker onlyOne er" refX="0" refY="9" markerWidth="18" markerHeight="18" orient="auto"><path d="M9,0 L9,18 M15,0 L15,18"></path></marker></defs><defs><marker id="mermaid-_r_sb__er-onlyOneEnd" class="marker onlyOne er" refX="18" refY="9" markerWidth="18" markerHeight="18" orient="auto"><path d="M3,0 L3,18 M9,0 L9,18"></path></marker></defs><defs><marker id="mermaid-_r_sb__er-zeroOrOneStart" class="marker zeroOrOne er" refX="0" refY="9" markerWidth="30" markerHeight="18" orient="auto"><circle fill="white" cx="21" cy="9" r="6"></circle><path d="M9,0 L9,18"></path></marker></defs><defs><marker id="mermaid-_r_sb__er-zeroOrOneEnd" class="marker zeroOrOne er" refX="30" refY="9" markerWidth="30" markerHeight="18" orient="auto"><circle fill="white" cx="9" cy="9" r="6"></circle><path d="M21,0 L21,18"></path></marker></defs><defs><marker id="mermaid-_r_sb__er-oneOrMoreStart" class="marker oneOrMore er" refX="18" refY="18" markerWidth="45" markerHeight="36" orient="auto"><path d="M0,18 Q 18,0 36,18 Q 18,36 0,18 M42,9 L42,27"></path></marker></defs><defs><marker id="mermaid-_r_sb__er-oneOrMoreEnd" class="marker oneOrMore er" refX="27" refY="18" markerWidth="45" markerHeight="36" orient="auto"><path d="M3,9 L3,27 M9,18 Q27,0 45,18 Q27,36 9,18"></path></marker></defs><defs><marker id="mermaid-_r_sb__er-zeroOrMoreStart" class="marker zeroOrMore er" refX="18" refY="18" markerWidth="57" markerHeight="36" orient="auto"><circle fill="white" cx="48" cy="18" r="6"></circle><path d="M0,18 Q18,0 36,18 Q18,36 0,18"></path></marker></defs><defs><marker id="mermaid-_r_sb__er-zeroOrMoreEnd" class="marker zeroOrMore er" refX="39" refY="18" markerWidth="57" markerHeight="36" orient="auto"><circle fill="white" cx="9" cy="18" r="6"></circle><path d="M21,18 Q39,0 57,18 Q39,36 21,18"></path></marker></defs><g class="root"><g class="clusters"></g><g class="edgePaths"><path d="M613.041,110.304L633.01,118.545C652.98,126.786,692.919,143.268,727.834,158.176C762.749,173.083,792.641,186.417,807.586,193.083L822.532,199.75" id="id_entity-HUB_CUSTOMER-0_entity-LINK_TXN_CUSTOMER-1_0" class="edge-thickness-normal edge-pattern-solid relationshipLine" style="undefined;;;undefined" data-edge="true" data-et="edge" data-id="id_entity-HUB_CUSTOMER-0_entity-LINK_TXN_CUSTOMER-1_0" data-points="W3sieCI6NjEzLjA0MTAxNTYyNSwieSI6MTEwLjMwMzYyMjE3MTAzMjcxfSx7IngiOjczMi44NTc0MjE4NzUsInkiOjE1OS43NX0seyJ4Ijo4MjIuNTMyMTA2NDE3NTg2OCwieSI6MTk5Ljc1fV0=" marker-start="url(#mermaid-_r_sb__er-onlyOneStart)" marker-end="url(#mermaid-_r_sb__er-zeroOrMoreEnd)"></path><path d="M1410.34,87.918L1350.723,99.89C1291.105,111.862,1171.871,135.806,1100.299,154.445C1028.727,173.083,1004.818,186.417,992.863,193.083L980.909,199.75" id="id_entity-HUB_TRANSACTION-2_entity-LINK_TXN_CUSTOMER-1_1" class="edge-thickness-normal edge-pattern-solid relationshipLine" style="undefined;;;undefined" data-edge="true" data-et="edge" data-id="id_entity-HUB_TRANSACTION-2_entity-LINK_TXN_CUSTOMER-1_1" data-points="W3sieCI6MTQxMC4zMzk4NDM3NSwieSI6ODcuOTE4NDY2NjU1MjEyMn0seyJ4IjoxMDUyLjYzNjcxODc1LCJ5IjoxNTkuNzV9LHsieCI6OTgwLjkwODYwMzYwODA0NDEsInkiOjE5OS43NX1d" marker-start="url(#mermaid-_r_sb__er-onlyOneStart)" marker-end="url(#mermaid-_r_sb__er-zeroOrMoreEnd)"></path><path d="M1410.34,88.97L1354.056,100.766C1297.772,112.563,1185.204,136.157,1142.558,154.62C1099.911,173.083,1127.185,186.417,1140.822,193.083L1154.459,199.75" id="id_entity-HUB_TRANSACTION-2_entity-LINK_TXN_BRANCH-3_2" class="edge-thickness-normal edge-pattern-solid relationshipLine" style="undefined;;;undefined" data-edge="true" data-et="edge" data-id="id_entity-HUB_TRANSACTION-2_entity-LINK_TXN_BRANCH-3_2" data-points="W3sieCI6MTQxMC4zMzk4NDM3NSwieSI6ODguOTY5Njk5NzUxNTAwODF9LHsieCI6MTA3Mi42MzY3MTg3NSwieSI6MTU5Ljc1fSx7IngiOjExNTQuNDU5NDcxMTE1OTMwNywieSI6MTk5Ljc1fV0=" marker-start="url(#mermaid-_r_sb__er-onlyOneStart)" marker-end="url(#mermaid-_r_sb__er-zeroOrMoreEnd)"></path><path d="M1789.801,83.385L1722.069,96.113C1654.338,108.84,1518.875,134.295,1438.638,153.689C1358.4,173.083,1333.388,186.417,1320.883,193.083L1308.377,199.75" id="id_entity-HUB_BRANCH-4_entity-LINK_TXN_BRANCH-3_3" class="edge-thickness-normal edge-pattern-solid relationshipLine" style="undefined;;;undefined" data-edge="true" data-et="edge" data-id="id_entity-HUB_BRANCH-4_entity-LINK_TXN_BRANCH-3_3" data-points="W3sieCI6MTc4OS44MDA3ODEyNSwieSI6ODMuMzg1Mzc1ODc0MjI2MjZ9LHsieCI6MTM4My40MTIxMDkzNzUsInkiOjE1OS43NX0seyJ4IjoxMzA4LjM3NjYyMDQxNjAwOTUsInkiOjE5OS43NX1d" marker-start="url(#mermaid-_r_sb__er-onlyOneStart)" marker-end="url(#mermaid-_r_sb__er-zeroOrMoreEnd)"></path><path d="M1649.801,92.937L1695.676,104.073C1741.551,115.208,1833.302,137.479,1892.903,155.281C1952.504,173.083,1979.955,186.417,1993.68,193.083L2007.406,199.75" id="id_entity-HUB_TRANSACTION-2_entity-LINK_TXN_CURRENCY-5_4" class="edge-thickness-normal edge-pattern-solid relationshipLine" style="undefined;;;undefined" data-edge="true" data-et="edge" data-id="id_entity-HUB_TRANSACTION-2_entity-LINK_TXN_CURRENCY-5_4" data-points="W3sieCI6MTY0OS44MDA3ODEyNSwieSI6OTIuOTM3NDU0NTY5Mjc5Njh9LHsieCI6MTkyNS4wNTI3MzQzNzUsInkiOjE1OS43NX0seyJ4IjoyMDA3LjQwNTg0OTUxNjk1NTksInkiOjE5OS43NX1d" marker-start="url(#mermaid-_r_sb__er-onlyOneStart)" marker-end="url(#mermaid-_r_sb__er-zeroOrMoreEnd)"></path><path d="M2186.699,118.905L2171.952,125.713C2157.204,132.52,2127.71,146.135,2112.121,159.609C2096.532,173.083,2094.85,186.417,2094.009,193.083L2093.168,199.75" id="id_entity-HUB_CURRENCY-6_entity-LINK_TXN_CURRENCY-5_5" class="edge-thickness-normal edge-pattern-solid relationshipLine" style="undefined;;;undefined" data-edge="true" data-et="edge" data-id="id_entity-HUB_CURRENCY-6_entity-LINK_TXN_CURRENCY-5_5" data-points="W3sieCI6MjE4Ni42OTkyMTg3NSwieSI6MTE4LjkwNTE2OTE3MTE2NDczfSx7IngiOjIwOTguMjE0ODQzNzUsInkiOjE1OS43NX0seyJ4IjoyMDkzLjE2NzUyNTEzODAxMjUsInkiOjE5OS43NX1d" marker-start="url(#mermaid-_r_sb__er-onlyOneStart)" marker-end="url(#mermaid-_r_sb__er-zeroOrMoreEnd)"></path><path d="M2748.191,119.75L2758.528,126.417C2768.865,133.083,2789.54,146.417,2813.939,159.75C2838.337,173.083,2866.46,186.417,2880.521,193.083L2894.582,199.75" id="id_entity-HUB_BANK-7_entity-LINK_LEASE_BANK-8_6" class="edge-thickness-normal edge-pattern-solid relationshipLine" style="undefined;;;undefined" data-edge="true" data-et="edge" data-id="id_entity-HUB_BANK-7_entity-LINK_LEASE_BANK-8_6" data-points="W3sieCI6Mjc0OC4xOTA3MjM4MDIxNTEzLCJ5IjoxMTkuNzV9LHsieCI6MjgxMC4yMTQ4NDM3NSwieSI6MTU5Ljc1fSx7IngiOjI4OTQuNTgxOTU3MzE0NjY4NywieSI6MTk5Ljc1fV0=" marker-start="url(#mermaid-_r_sb__er-onlyOneStart)" marker-end="url(#mermaid-_r_sb__er-zeroOrMoreEnd)"></path><path d="M3082.495,119.75L3092.833,126.417C3103.17,133.083,3123.845,146.417,3120.121,159.75C3116.397,173.083,3088.275,186.417,3074.214,193.083L3060.152,199.75" id="id_entity-HUB_CASH_LEASE-9_entity-LINK_LEASE_BANK-8_7" class="edge-thickness-normal edge-pattern-solid relationshipLine" style="undefined;;;undefined" data-edge="true" data-et="edge" data-id="id_entity-HUB_CASH_LEASE-9_entity-LINK_LEASE_BANK-8_7" data-points="W3sieCI6MzA4Mi40OTU0MTEzMDIxNTEzLCJ5IjoxMTkuNzV9LHsieCI6MzE0NC41MTk1MzEyNSwieSI6MTU5Ljc1fSx7IngiOjMwNjAuMTUyNDE3Njg1MzMxMywieSI6MTk5Ljc1fV0=" marker-start="url(#mermaid-_r_sb__er-onlyOneStart)" marker-end="url(#mermaid-_r_sb__er-zeroOrMoreEnd)"></path><path d="M2897.973,77.523L2799.684,91.227C2701.396,104.932,2504.819,132.341,2419.998,152.712C2335.178,173.083,2362.113,186.417,2375.581,193.083L2389.049,199.75" id="id_entity-HUB_CASH_LEASE-9_entity-LINK_LEASE_CURRENCY-10_8" class="edge-thickness-normal edge-pattern-solid relationshipLine" style="undefined;;;undefined" data-edge="true" data-et="edge" data-id="id_entity-HUB_CASH_LEASE-9_entity-LINK_LEASE_CURRENCY-10_8" data-points="W3sieCI6Mjg5Ny45NzI2NTYyNSwieSI6NzcuNTIyOTU0MzE0MzQ1OTJ9LHsieCI6MjMwOC4yNDIxODc1LCJ5IjoxNTkuNzV9LHsieCI6MjM4OS4wNDg1NzU1MTI2MTgzLCJ5IjoxOTkuNzV9XQ==" marker-start="url(#mermaid-_r_sb__er-onlyOneStart)" marker-end="url(#mermaid-_r_sb__er-zeroOrMoreEnd)"></path><path d="M2425.129,99.99L2458.007,109.95C2490.885,119.91,2556.641,139.83,2576.559,156.457C2596.477,173.083,2570.558,186.417,2557.599,193.083L2544.639,199.75" id="id_entity-HUB_CURRENCY-6_entity-LINK_LEASE_CURRENCY-10_9" class="edge-thickness-normal edge-pattern-solid relationshipLine" style="undefined;;;undefined" data-edge="true" data-et="edge" data-id="id_entity-HUB_CURRENCY-6_entity-LINK_LEASE_CURRENCY-10_9" data-points="W3sieCI6MjQyNS4xMjg5MDYyNSwieSI6OTkuOTg5ODc1MTIyNjU1NjZ9LHsieCI6MjYyMi4zOTY0ODQzNzUsInkiOjE1OS43NX0seyJ4IjoyNTQ0LjYzOTE4OTQyMjMxODQsInkiOjE5OS43NX1d" marker-start="url(#mermaid-_r_sb__er-onlyOneStart)" marker-end="url(#mermaid-_r_sb__er-zeroOrMoreEnd)"></path><path d="M3093.738,94.721L3128.13,105.559C3162.522,116.398,3231.306,138.074,3279.849,155.579C3328.393,173.083,3356.696,186.417,3370.848,193.083L3384.999,199.75" id="id_entity-HUB_CASH_LEASE-9_entity-LINK_SETTLEMENT_LEASE-11_10" class="edge-thickness-normal edge-pattern-solid relationshipLine" style="undefined;;;undefined" data-edge="true" data-et="edge" data-id="id_entity-HUB_CASH_LEASE-9_entity-LINK_SETTLEMENT_LEASE-11_10" data-points="W3sieCI6MzA5My43MzgyODEyNSwieSI6OTQuNzIxMzMyMzY2MDgyODl9LHsieCI6MzMwMC4wODk4NDM3NSwieSI6MTU5Ljc1fSx7IngiOjMzODQuOTk5MTQ5NzQzNjkxLCJ5IjoxOTkuNzV9XQ==" marker-start="url(#mermaid-_r_sb__er-onlyOneStart)" marker-end="url(#mermaid-_r_sb__er-zeroOrMoreEnd)"></path><path d="M3478.316,119.75L3478.316,126.417C3478.316,133.083,3478.316,146.417,3477.475,159.75C3476.634,173.083,3474.952,186.417,3474.11,193.083L3473.269,199.75" id="id_entity-HUB_SETTLEMENT-12_entity-LINK_SETTLEMENT_LEASE-11_11" class="edge-thickness-normal edge-pattern-solid relationshipLine" style="undefined;;;undefined" data-edge="true" data-et="edge" data-id="id_entity-HUB_SETTLEMENT-12_entity-LINK_SETTLEMENT_LEASE-11_11" data-points="W3sieCI6MzQ3OC4zMTY0MDYyNSwieSI6MTE5Ljc1fSx7IngiOjM0NzguMzE2NDA2MjUsInkiOjE1OS43NX0seyJ4IjozNDczLjI2OTA4NzYzODAxMjUsInkiOjE5OS43NX1d" marker-start="url(#mermaid-_r_sb__er-onlyOneStart)" marker-end="url(#mermaid-_r_sb__er-zeroOrMoreEnd)"></path><path d="M388.033,91.749L342.29,103.083C296.547,114.416,205.061,137.083,160.159,155.083C115.257,173.083,116.939,186.417,117.78,193.083L118.622,199.75" id="id_entity-HUB_CUSTOMER-0_entity-LINK_CUSTOMER_CONSENT-13_12" class="edge-thickness-normal edge-pattern-solid relationshipLine" style="undefined;;;undefined" data-edge="true" data-et="edge" data-id="id_entity-HUB_CUSTOMER-0_entity-LINK_CUSTOMER_CONSENT-13_12" data-points="W3sieCI6Mzg4LjAzMzIwMzEyNSwieSI6OTEuNzQ5MjgwMTI2MTgyOTd9LHsieCI6MTEzLjU3NDIxODc1LCJ5IjoxNTkuNzV9LHsieCI6MTE4LjYyMTUzNzM2MTk4NzM4LCJ5IjoxOTkuNzV9XQ==" marker-start="url(#mermaid-_r_sb__er-onlyOneStart)" marker-end="url(#mermaid-_r_sb__er-zeroOrMoreEnd)"></path><path d="M225.564,119.75L237.732,126.417C249.901,133.083,274.239,146.417,271.686,159.75C269.133,173.083,239.69,186.417,224.969,193.083L210.247,199.75" id="id_entity-HUB_CONSENT-14_entity-LINK_CUSTOMER_CONSENT-13_13" class="edge-thickness-normal edge-pattern-solid relationshipLine" style="undefined;;;undefined" data-edge="true" data-et="edge" data-id="id_entity-HUB_CONSENT-14_entity-LINK_CUSTOMER_CONSENT-13_13" data-points="W3sieCI6MjI1LjU2MzYyMjk4MzIxMzgsInkiOjExOS43NX0seyJ4IjoyOTguNTc2MTcxODc1LCJ5IjoxNTkuNzV9LHsieCI6MjEwLjI0NzExMDM2MDgwNDQsInkiOjE5OS43NX1d" marker-start="url(#mermaid-_r_sb__er-onlyOneStart)" marker-end="url(#mermaid-_r_sb__er-zeroOrMoreEnd)"></path><path d="M915.313,85.718L851.959,98.056C788.605,110.395,661.897,135.073,600.226,154.078C538.554,173.083,541.919,186.417,543.602,193.083L545.284,199.75" id="id_entity-HUB_FEEDBACK-15_entity-LINK_FEEDBACK_CUSTOMER-16_14" class="edge-thickness-normal edge-pattern-solid relationshipLine" style="undefined;;;undefined" data-edge="true" data-et="edge" data-id="id_entity-HUB_FEEDBACK-15_entity-LINK_FEEDBACK_CUSTOMER-16_14" data-points="W3sieCI6OTE1LjMxMjUsInkiOjg1LjcxNzY2NDAwODQxMTE5fSx7IngiOjUzNS4xODk0NTMxMjUsInkiOjE1OS43NX0seyJ4Ijo1NDUuMjg0MDkwMzQ4OTc0OCwieSI6MTk5Ljc1fV0=" marker-start="url(#mermaid-_r_sb__er-onlyOneStart)" marker-end="url(#mermaid-_r_sb__er-zeroOrMoreEnd)"></path><path d="M613.041,114.677L629.677,122.189C646.313,129.701,679.585,144.726,682.958,158.905C686.331,173.083,659.804,186.417,646.541,193.083L633.277,199.75" id="id_entity-HUB_CUSTOMER-0_entity-LINK_FEEDBACK_CUSTOMER-16_15" class="edge-thickness-normal edge-pattern-solid relationshipLine" style="undefined;;;undefined" data-edge="true" data-et="edge" data-id="id_entity-HUB_CUSTOMER-0_entity-LINK_FEEDBACK_CUSTOMER-16_15" data-points="W3sieCI6NjEzLjA0MTAxNTYyNSwieSI6MTE0LjY3NzA3Mjk4NDUwODk1fSx7IngiOjcxMi44NTc0MjE4NzUsInkiOjE1OS43NX0seyJ4Ijo2MzMuMjc3Mzc0NTU2Mzg4LCJ5IjoxOTkuNzV9XQ==" marker-start="url(#mermaid-_r_sb__er-onlyOneStart)" marker-end="url(#mermaid-_r_sb__er-zeroOrMoreEnd)"></path><path d="M1139.617,92.476L1183.583,103.689C1227.549,114.901,1315.48,137.325,1373.635,155.204C1431.789,173.083,1460.166,186.417,1474.354,193.083L1488.542,199.75" id="id_entity-HUB_FEEDBACK-15_entity-LINK_FEEDBACK_BRANCH-17_16" class="edge-thickness-normal edge-pattern-solid relationshipLine" style="undefined;;;undefined" data-edge="true" data-et="edge" data-id="id_entity-HUB_FEEDBACK-15_entity-LINK_FEEDBACK_BRANCH-17_16" data-points="W3sieCI6MTEzOS42MTcxODc1LCJ5Ijo5Mi40NzYzNjc2MzkwMzY4MX0seyJ4IjoxNDAzLjQxMjEwOTM3NSwieSI6MTU5Ljc1fSx7IngiOjE0ODguNTQyMjM1NTU3OTY1MywieSI6MTk5Ljc1fV0=" marker-start="url(#mermaid-_r_sb__er-onlyOneStart)" marker-end="url(#mermaid-_r_sb__er-zeroOrMoreEnd)"></path><path d="M1900.287,119.75L1901.081,126.417C1901.875,133.083,1903.464,146.417,1867.049,161.939C1830.633,177.462,1756.214,195.174,1719.005,204.03L1681.795,212.886" id="id_entity-HUB_BRANCH-4_entity-LINK_FEEDBACK_BRANCH-17_17" class="edge-thickness-normal edge-pattern-solid relationshipLine" style="undefined;;;undefined" data-edge="true" data-et="edge" data-id="id_entity-HUB_BRANCH-4_entity-LINK_FEEDBACK_BRANCH-17_17" data-points="W3sieCI6MTkwMC4yODY2MDAwODU1NjA2LCJ5IjoxMTkuNzV9LHsieCI6MTkwNS4wNTI3MzQzNzUsInkiOjE1OS43NX0seyJ4IjoxNjgxLjc5NDkyMTg3NSwieSI6MjEyLjg4NjQxNzQ5MzcyMzc0fV0=" marker-start="url(#mermaid-_r_sb__er-onlyOneStart)" marker-end="url(#mermaid-_r_sb__er-zeroOrMoreEnd)"></path></g><g class="edgeLabels"><g><rect class="background" style="stroke: none"></rect></g><g><rect class="background" style="stroke: none"></rect></g><g><rect class="background" style="stroke: none"></rect></g><g><rect class="background" style="stroke: none"></rect></g><g><rect class="background" style="stroke: none"></rect></g><g><rect class="background" style="stroke: none"></rect></g><g><rect class="background" style="stroke: none"></rect></g><g><rect class="background" style="stroke: none"></rect></g><g><rect class="background" style="stroke: none"></rect></g><g><rect class="background" style="stroke: none"></rect></g><g><rect class="background" style="stroke: none"></rect></g><g><rect class="background" style="stroke: none"></rect></g><g><rect class="background" style="stroke: none"></rect></g><g><rect class="background" style="stroke: none"></rect></g><g><rect class="background" style="stroke: none"></rect></g><g><rect class="background" style="stroke: none"></rect></g><g><rect class="background" style="stroke: none"></rect></g><g><rect class="background" style="stroke: none"></rect></g><g class="edgeLabel"><g class="label" data-id="id_entity-HUB_CUSTOMER-0_entity-LINK_TXN_CUSTOMER-1_0" transform="translate(0, 0)"><text y="-10.1"><tspan class="text-outer-tspan" x="0" y="-0.1em" dy="1.1em"></tspan></text></g></g><g class="edgeLabel"><g class="label" data-id="id_entity-HUB_TRANSACTION-2_entity-LINK_TXN_CUSTOMER-1_1" transform="translate(0, 0)"><text y="-10.1"><tspan class="text-outer-tspan" x="0" y="-0.1em" dy="1.1em"></tspan></text></g></g><g class="edgeLabel"><g class="label" data-id="id_entity-HUB_TRANSACTION-2_entity-LINK_TXN_BRANCH-3_2" transform="translate(0, 0)"><text y="-10.1"><tspan class="text-outer-tspan" x="0" y="-0.1em" dy="1.1em"></tspan></text></g></g><g class="edgeLabel"><g class="label" data-id="id_entity-HUB_BRANCH-4_entity-LINK_TXN_BRANCH-3_3" transform="translate(0, 0)"><text y="-10.1"><tspan class="text-outer-tspan" x="0" y="-0.1em" dy="1.1em"></tspan></text></g></g><g class="edgeLabel"><g class="label" data-id="id_entity-HUB_TRANSACTION-2_entity-LINK_TXN_CURRENCY-5_4" transform="translate(0, 0)"><text y="-10.1"><tspan class="text-outer-tspan" x="0" y="-0.1em" dy="1.1em"></tspan></text></g></g><g class="edgeLabel"><g class="label" data-id="id_entity-HUB_CURRENCY-6_entity-LINK_TXN_CURRENCY-5_5" transform="translate(0, 0)"><text y="-10.1"><tspan class="text-outer-tspan" x="0" y="-0.1em" dy="1.1em"></tspan></text></g></g><g class="edgeLabel"><g class="label" data-id="id_entity-HUB_BANK-7_entity-LINK_LEASE_BANK-8_6" transform="translate(0, 0)"><text y="-10.1"><tspan class="text-outer-tspan" x="0" y="-0.1em" dy="1.1em"></tspan></text></g></g><g class="edgeLabel"><g class="label" data-id="id_entity-HUB_CASH_LEASE-9_entity-LINK_LEASE_BANK-8_7" transform="translate(0, 0)"><text y="-10.1"><tspan class="text-outer-tspan" x="0" y="-0.1em" dy="1.1em"></tspan></text></g></g><g class="edgeLabel"><g class="label" data-id="id_entity-HUB_CASH_LEASE-9_entity-LINK_LEASE_CURRENCY-10_8" transform="translate(0, 0)"><text y="-10.1"><tspan class="text-outer-tspan" x="0" y="-0.1em" dy="1.1em"></tspan></text></g></g><g class="edgeLabel"><g class="label" data-id="id_entity-HUB_CURRENCY-6_entity-LINK_LEASE_CURRENCY-10_9" transform="translate(0, 0)"><text y="-10.1"><tspan class="text-outer-tspan" x="0" y="-0.1em" dy="1.1em"></tspan></text></g></g><g class="edgeLabel"><g class="label" data-id="id_entity-HUB_CASH_LEASE-9_entity-LINK_SETTLEMENT_LEASE-11_10" transform="translate(0, 0)"><text y="-10.1"><tspan class="text-outer-tspan" x="0" y="-0.1em" dy="1.1em"></tspan></text></g></g><g class="edgeLabel"><g class="label" data-id="id_entity-HUB_SETTLEMENT-12_entity-LINK_SETTLEMENT_LEASE-11_11" transform="translate(0, 0)"><text y="-10.1"><tspan class="text-outer-tspan" x="0" y="-0.1em" dy="1.1em"></tspan></text></g></g><g class="edgeLabel"><g class="label" data-id="id_entity-HUB_CUSTOMER-0_entity-LINK_CUSTOMER_CONSENT-13_12" transform="translate(0, 0)"><text y="-10.1"><tspan class="text-outer-tspan" x="0" y="-0.1em" dy="1.1em"></tspan></text></g></g><g class="edgeLabel"><g class="label" data-id="id_entity-HUB_CONSENT-14_entity-LINK_CUSTOMER_CONSENT-13_13" transform="translate(0, 0)"><text y="-10.1"><tspan class="text-outer-tspan" x="0" y="-0.1em" dy="1.1em"></tspan></text></g></g><g class="edgeLabel"><g class="label" data-id="id_entity-HUB_FEEDBACK-15_entity-LINK_FEEDBACK_CUSTOMER-16_14" transform="translate(0, 0)"><text y="-10.1"><tspan class="text-outer-tspan" x="0" y="-0.1em" dy="1.1em"></tspan></text></g></g><g class="edgeLabel"><g class="label" data-id="id_entity-HUB_CUSTOMER-0_entity-LINK_FEEDBACK_CUSTOMER-16_15" transform="translate(0, 0)"><text y="-10.1"><tspan class="text-outer-tspan" x="0" y="-0.1em" dy="1.1em"></tspan></text></g></g><g class="edgeLabel"><g class="label" data-id="id_entity-HUB_FEEDBACK-15_entity-LINK_FEEDBACK_BRANCH-17_16" transform="translate(0, 0)"><text y="-10.1"><tspan class="text-outer-tspan" x="0" y="-0.1em" dy="1.1em"></tspan></text></g></g><g class="edgeLabel"><g class="label" data-id="id_entity-HUB_BRANCH-4_entity-LINK_FEEDBACK_BRANCH-17_17" transform="translate(0, 0)"><text y="-10.1"><tspan class="text-outer-tspan" x="0" y="-0.1em" dy="1.1em"></tspan></text></g></g></g><g class="nodes"><g class="node default" id="entity-HUB_CUSTOMER-0" transform="translate(500.537109375, 63.875)"><g style=""><path d="M-112.50390625 -55.875 L112.50390625 -55.875 L112.50390625 55.875 L-112.50390625 55.875" stroke="none" stroke-width="0" fill="#1f2020"></path><path d="M-112.50390625 -55.875 C-47.30676172849441 -55.875, 17.890382793011185 -55.875, 112.50390625 -55.875 M-112.50390625 -55.875 C-28.695190360674488 -55.875, 55.113525528651024 -55.875, 112.50390625 -55.875 M112.50390625 -55.875 C112.50390625 -29.0011236570918, 112.50390625 -2.127247314183599, 112.50390625 55.875 M112.50390625 -55.875 C112.50390625 -15.963633753128846, 112.50390625 23.947732493742308, 112.50390625 55.875 M112.50390625 55.875 C31.8033255707348 55.875, -48.8972551085304 55.875, -112.50390625 55.875 M112.50390625 55.875 C37.255464482706714 55.875, -37.99297728458657 55.875, -112.50390625 55.875 M-112.50390625 55.875 C-112.50390625 24.48735879089253, -112.50390625 -6.9002824182149425, -112.50390625 -55.875 M-112.50390625 55.875 C-112.50390625 29.32142913467204, -112.50390625 2.7678582693440816, -112.50390625 -55.875" stroke="#ccc" stroke-width="1.3" fill="none" stroke-dasharray="0 0"></path></g><g style="" class="row-rect-odd"><path d="M-112.50390625 -18.625 L112.50390625 -18.625 L112.50390625 18.625 L-112.50390625 18.625" stroke="none" stroke-width="0" fill="hsl(180, 1.5873015873%, 17.3529411765%)"></path><path d="M-112.50390625 -18.625 C-38.1459628974676 -18.625, 36.211980455064804 -18.625, 112.50390625 -18.625 M-112.50390625 -18.625 C-46.13720684491307 -18.625, 20.229492560173867 -18.625, 112.50390625 -18.625 M112.50390625 -18.625 C112.50390625 -4.6839612138505995, 112.50390625 9.257077572298801, 112.50390625 18.625 M112.50390625 -18.625 C112.50390625 -3.816074129212751, 112.50390625 10.992851741574498, 112.50390625 18.625 M112.50390625 18.625 C59.38175108216481 18.625, 6.259595914329623 18.625, -112.50390625 18.625 M112.50390625 18.625 C54.08322276101692 18.625, -4.33746072796616 18.625, -112.50390625 18.625 M-112.50390625 18.625 C-112.50390625 8.652254788181843, -112.50390625 -1.3204904236363149, -112.50390625 -18.625 M-112.50390625 18.625 C-112.50390625 5.955889926750798, -112.50390625 -6.713220146498404, -112.50390625 -18.625" stroke="#ccc" stroke-width="1.3" fill="none" stroke-dasharray="0 0"></path></g><g style="" class="row-rect-even"><path d="M-112.50390625 18.625 L112.50390625 18.625 L112.50390625 55.875 L-112.50390625 55.875" stroke="none" stroke-width="0" fill="hsl(180, 1.5873015873%, 2.3529411765%)"></path><path d="M-112.50390625 18.625 C-59.345822662363155 18.625, -6.187739074726309 18.625, 112.50390625 18.625 M-112.50390625 18.625 C-57.70046025713796 18.625, -2.8970142642759242 18.625, 112.50390625 18.625 M112.50390625 18.625 C112.50390625 28.67452128401777, 112.50390625 38.72404256803554, 112.50390625 55.875 M112.50390625 18.625 C112.50390625 29.37822024446638, 112.50390625 40.13144048893276, 112.50390625 55.875 M112.50390625 55.875 C33.874811821328166 55.875, -44.75428260734367 55.875, -112.50390625 55.875 M112.50390625 55.875 C49.11733209793237 55.875, -14.269242054135262 55.875, -112.50390625 55.875 M-112.50390625 55.875 C-112.50390625 48.26216280301772, -112.50390625 40.64932560603545, -112.50390625 18.625 M-112.50390625 55.875 C-112.50390625 43.628473085579614, -112.50390625 31.38194617115923, -112.50390625 18.625" stroke="#ccc" stroke-width="1.3" fill="none" stroke-dasharray="0 0"></path></g><g class="label name" transform="translate(-57.17578125, -46.5)" style=""><g><rect class="background" style="stroke: none"></rect></g><text y="-10.1" style=""><tspan class="text-outer-tspan" x="0" y="-0.1em" dy="1.1em"><tspan font-style="normal" class="text-inner-tspan" font-weight="normal">HUB_CUSTOMER</tspan></tspan></text></g><g class="label attribute-type" transform="translate(-100.00390625, -9.25)" style=""><g><rect class="background" style="stroke: none"></rect></g><text y="-10.1" style=""><tspan class="text-outer-tspan" x="0" y="-0.1em" dy="1.1em"><tspan font-style="normal" class="text-inner-tspan" font-weight="normal">string</tspan></tspan></text></g><g class="label attribute-name" transform="translate(-34.62890625, -9.25)" style=""><g><rect class="background" style="stroke: none"></rect></g><text y="-10.1" style=""><tspan class="text-outer-tspan" x="0" y="-0.1em" dy="1.1em"><tspan font-style="normal" class="text-inner-tspan" font-weight="normal">customer_hk</tspan></tspan></text></g><g class="label attribute-keys" transform="translate(81.87109375, -9.25)" style=""><g><rect class="background" style="stroke: none"></rect></g><text y="-10.1" style=""><tspan class="text-outer-tspan" x="0" y="-0.1em" dy="1.1em"><tspan font-style="normal" class="text-inner-tspan" font-weight="normal">PK</tspan></tspan></text></g><g class="label attribute-comment" transform="translate(125.00390625, -9.25)" style=""><g><rect class="background" style="stroke: none"></rect></g><text y="-10.1" style=""><tspan class="text-outer-tspan" x="0" y="-0.1em" dy="1.1em"></tspan></text></g><g class="label attribute-type" transform="translate(-100.00390625, 28)" style=""><g><rect class="background" style="stroke: none"></rect></g><text y="-10.1" style=""><tspan class="text-outer-tspan" x="0" y="-0.1em" dy="1.1em"><tspan font-style="normal" class="text-inner-tspan" font-weight="normal">string</tspan></tspan></text></g><g class="label attribute-name" transform="translate(-34.62890625, 28)" style=""><g><rect class="background" style="stroke: none"></rect></g><text y="-10.1" style=""><tspan class="text-outer-tspan" x="0" y="-0.1em" dy="1.1em"><tspan font-style="normal" class="text-inner-tspan" font-weight="normal">customer_id</tspan></tspan></text></g><g class="label attribute-keys" transform="translate(81.87109375, 28)" style=""><g><rect class="background" style="stroke: none"></rect></g><text y="-10.1" style=""><tspan class="text-outer-tspan" x="0" y="-0.1em" dy="1.1em"></tspan></text></g><g class="label attribute-comment" transform="translate(125.00390625, 28)" style=""><g><rect class="background" style="stroke: none"></rect></g><text y="-10.1" style=""><tspan class="text-outer-tspan" x="0" y="-0.1em" dy="1.1em"></tspan></text></g><g class="divider"><path d="M-112.50390625 -18.625 C-51.647429754135665 -18.625, 9.20904674172867 -18.625, 112.50390625 -18.625 M-112.50390625 -18.625 C-32.570248671970944 -18.625, 47.36340890605811 -18.625, 112.50390625 -18.625" stroke="#ccc" stroke-width="1.3" fill="none" stroke-dasharray="0 0"></path></g><g class="divider"><path d="M-47.12890625 -18.625 C-47.12890625 10.278576127049373, -47.12890625 39.182152254098746, -47.12890625 55.875 M-47.12890625 -18.625 C-47.12890625 9.568582187785466, -47.12890625 37.76216437557093, -47.12890625 55.875" stroke="#ccc" stroke-width="1.3" fill="none" stroke-dasharray="0 0"></path></g><g class="divider"><path d="M69.37109375 -18.625 C69.37109375 9.792732400112978, 69.37109375 38.21046480022596, 69.37109375 55.875 M69.37109375 -18.625 C69.37109375 6.09609436667359, 69.37109375 30.81718873334718, 69.37109375 55.875" stroke="#ccc" stroke-width="1.3" fill="none" stroke-dasharray="0 0"></path></g><g class="divider"><path d="M-112.50390625 -18.625 C-63.378147044953984 -18.625, -14.252387839907968 -18.625, 112.50390625 -18.625 M-112.50390625 -18.625 C-37.80988056819922 -18.625, 36.88414511360156 -18.625, 112.50390625 -18.625" stroke="#ccc" stroke-width="1.3" fill="none" stroke-dasharray="0 0"></path></g></g><g class="node default" id="entity-LINK_TXN_CUSTOMER-1" transform="translate(910.525390625, 239)"><rect class="basic label-container" style="" x="-96.61328125" y="-39.25" width="193.2265625" height="78.5"></rect><g class="label" style="" transform="translate(0, -9.25)"><rect></rect><g><rect class="background" style="stroke: none"></rect><text y="-10.1" style="" transform="translate(-76.61328125, 0)"><tspan class="text-outer-tspan" x="0" y="-0.1em" dy="1.1em"><tspan font-style="normal" class="text-inner-tspan" font-weight="normal">LINK_TXN_CUSTOMER</tspan></tspan></text></g></g></g><g class="node default" id="entity-HUB_TRANSACTION-2" transform="translate(1530.0703125, 63.875)"><g style=""><path d="M-119.73046875 -55.875 L119.73046875 -55.875 L119.73046875 55.875 L-119.73046875 55.875" stroke="none" stroke-width="0" fill="#1f2020"></path><path d="M-119.73046875 -55.875 C-46.74497954380358 -55.875, 26.24050966239284 -55.875, 119.73046875 -55.875 M-119.73046875 -55.875 C-65.34277810033173 -55.875, -10.955087450663456 -55.875, 119.73046875 -55.875 M119.73046875 -55.875 C119.73046875 -15.5764108134399, 119.73046875 24.7221783731202, 119.73046875 55.875 M119.73046875 -55.875 C119.73046875 -29.131420348792627, 119.73046875 -2.387840697585254, 119.73046875 55.875 M119.73046875 55.875 C64.64842896190342 55.875, 9.566389173806854 55.875, -119.73046875 55.875 M119.73046875 55.875 C28.679965398540745 55.875, -62.37053795291851 55.875, -119.73046875 55.875 M-119.73046875 55.875 C-119.73046875 32.55386737504995, -119.73046875 9.232734750099901, -119.73046875 -55.875 M-119.73046875 55.875 C-119.73046875 14.994591090695664, -119.73046875 -25.885817818608672, -119.73046875 -55.875" stroke="#ccc" stroke-width="1.3" fill="none" stroke-dasharray="0 0"></path></g><g style="" class="row-rect-odd"><path d="M-119.73046875 -18.625 L119.73046875 -18.625 L119.73046875 18.625 L-119.73046875 18.625" stroke="none" stroke-width="0" fill="hsl(180, 1.5873015873%, 17.3529411765%)"></path><path d="M-119.73046875 -18.625 C-56.82318531859427 -18.625, 6.084098112811461 -18.625, 119.73046875 -18.625 M-119.73046875 -18.625 C-52.83911156401682 -18.625, 14.052245621966364 -18.625, 119.73046875 -18.625 M119.73046875 -18.625 C119.73046875 -10.66867106365719, 119.73046875 -2.712342127314381, 119.73046875 18.625 M119.73046875 -18.625 C119.73046875 -5.531774027430156, 119.73046875 7.561451945139687, 119.73046875 18.625 M119.73046875 18.625 C71.5183272936055 18.625, 23.306185837211004 18.625, -119.73046875 18.625 M119.73046875 18.625 C30.97205268326013 18.625, -57.78636338347974 18.625, -119.73046875 18.625 M-119.73046875 18.625 C-119.73046875 9.781481951696716, -119.73046875 0.937963903393431, -119.73046875 -18.625 M-119.73046875 18.625 C-119.73046875 8.064184609721337, -119.73046875 -2.496630780557325, -119.73046875 -18.625" stroke="#ccc" stroke-width="1.3" fill="none" stroke-dasharray="0 0"></path></g><g style="" class="row-rect-even"><path d="M-119.73046875 18.625 L119.73046875 18.625 L119.73046875 55.875 L-119.73046875 55.875" stroke="none" stroke-width="0" fill="hsl(180, 1.5873015873%, 2.3529411765%)"></path><path d="M-119.73046875 18.625 C-26.58120732390026 18.625, 66.56805410219948 18.625, 119.73046875 18.625 M-119.73046875 18.625 C-47.95582214058685 18.625, 23.818824468826307 18.625, 119.73046875 18.625 M119.73046875 18.625 C119.73046875 28.074362430272572, 119.73046875 37.523724860545144, 119.73046875 55.875 M119.73046875 18.625 C119.73046875 31.09882759500818, 119.73046875 43.57265519001636, 119.73046875 55.875 M119.73046875 55.875 C29.246916916791406 55.875, -61.23663491641719 55.875, -119.73046875 55.875 M119.73046875 55.875 C31.650646758920573 55.875, -56.429175232158855 55.875, -119.73046875 55.875 M-119.73046875 55.875 C-119.73046875 45.52470964598592, -119.73046875 35.17441929197185, -119.73046875 18.625 M-119.73046875 55.875 C-119.73046875 41.2110692192174, -119.73046875 26.547138438434796, -119.73046875 18.625" stroke="#ccc" stroke-width="1.3" fill="none" stroke-dasharray="0 0"></path></g><g class="label name" transform="translate(-68.98828125, -46.5)" style=""><g><rect class="background" style="stroke: none"></rect></g><text y="-10.1" style=""><tspan class="text-outer-tspan" x="0" y="-0.1em" dy="1.1em"><tspan font-style="normal" class="text-inner-tspan" font-weight="normal">HUB_TRANSACTION</tspan></tspan></text></g><g class="label attribute-type" transform="translate(-107.23046875, -9.25)" style=""><g><rect class="background" style="stroke: none"></rect></g><text y="-10.1" style=""><tspan class="text-outer-tspan" x="0" y="-0.1em" dy="1.1em"><tspan font-style="normal" class="text-inner-tspan" font-weight="normal">string</tspan></tspan></text></g><g class="label attribute-name" transform="translate(-41.85546875, -9.25)" style=""><g><rect class="background" style="stroke: none"></rect></g><text y="-10.1" style=""><tspan class="text-outer-tspan" x="0" y="-0.1em" dy="1.1em"><tspan font-style="normal" class="text-inner-tspan" font-weight="normal">transaction_hk</tspan></tspan></text></g><g class="label attribute-keys" transform="translate(89.09765625, -9.25)" style=""><g><rect class="background" style="stroke: none"></rect></g><text y="-10.1" style=""><tspan class="text-outer-tspan" x="0" y="-0.1em" dy="1.1em"><tspan font-style="normal" class="text-inner-tspan" font-weight="normal">PK</tspan></tspan></text></g><g class="label attribute-comment" transform="translate(132.23046875, -9.25)" style=""><g><rect class="background" style="stroke: none"></rect></g><text y="-10.1" style=""><tspan class="text-outer-tspan" x="0" y="-0.1em" dy="1.1em"></tspan></text></g><g class="label attribute-type" transform="translate(-107.23046875, 28)" style=""><g><rect class="background" style="stroke: none"></rect></g><text y="-10.1" style=""><tspan class="text-outer-tspan" x="0" y="-0.1em" dy="1.1em"><tspan font-style="normal" class="text-inner-tspan" font-weight="normal">string</tspan></tspan></text></g><g class="label attribute-name" transform="translate(-41.85546875, 28)" style=""><g><rect class="background" style="stroke: none"></rect></g><text y="-10.1" style=""><tspan class="text-outer-tspan" x="0" y="-0.1em" dy="1.1em"><tspan font-style="normal" class="text-inner-tspan" font-weight="normal">transaction_id</tspan></tspan></text></g><g class="label attribute-keys" transform="translate(89.09765625, 28)" style=""><g><rect class="background" style="stroke: none"></rect></g><text y="-10.1" style=""><tspan class="text-outer-tspan" x="0" y="-0.1em" dy="1.1em"></tspan></text></g><g class="label attribute-comment" transform="translate(132.23046875, 28)" style=""><g><rect class="background" style="stroke: none"></rect></g><text y="-10.1" style=""><tspan class="text-outer-tspan" x="0" y="-0.1em" dy="1.1em"></tspan></text></g><g class="divider"><path d="M-119.73046875 -18.625 C-50.77124441353379 -18.625, 18.187979922932414 -18.625, 119.73046875 -18.625 M-119.73046875 -18.625 C-54.72949587386026 -18.625, 10.271477002279482 -18.625, 119.73046875 -18.625" stroke="#ccc" stroke-width="1.3" fill="none" stroke-dasharray="0 0"></path></g><g class="divider"><path d="M-54.35546875 -18.625 C-54.35546875 2.4287052183737465, -54.35546875 23.482410436747493, -54.35546875 55.875 M-54.35546875 -18.625 C-54.35546875 8.491406926520494, -54.35546875 35.60781385304099, -54.35546875 55.875" stroke="#ccc" stroke-width="1.3" fill="none" stroke-dasharray="0 0"></path></g><g class="divider"><path d="M76.59765625 -18.625 C76.59765625 3.083369940836622, 76.59765625 24.791739881673244, 76.59765625 55.875 M76.59765625 -18.625 C76.59765625 0.10382512345655215, 76.59765625 18.832650246913104, 76.59765625 55.875" stroke="#ccc" stroke-width="1.3" fill="none" stroke-dasharray="0 0"></path></g><g class="divider"><path d="M-119.73046875 -18.625 C-67.74773281571203 -18.625, -15.76499688142404 -18.625, 119.73046875 -18.625 M-119.73046875 -18.625 C-29.0942850160217 -18.625, 61.5418987179566 -18.625, 119.73046875 -18.625" stroke="#ccc" stroke-width="1.3" fill="none" stroke-dasharray="0 0"></path></g></g><g class="node default" id="entity-LINK_TXN_BRANCH-3" transform="translate(1234.748046875, 239)"><rect class="basic label-container" style="" x="-87.609375" y="-39.25" width="175.21875" height="78.5"></rect><g class="label" style="" transform="translate(0, -9.25)"><rect></rect><g><rect class="background" style="stroke: none"></rect><text y="-10.1" style="" transform="translate(-67.609375, 0)"><tspan class="text-outer-tspan" x="0" y="-0.1em" dy="1.1em"><tspan font-style="normal" class="text-inner-tspan" font-weight="normal">LINK_TXN_BRANCH</tspan></tspan></text></g></g></g><g class="node default" id="entity-HUB_BRANCH-4" transform="translate(1893.62890625, 63.875)"><g style=""><path d="M-103.828125 -55.875 L103.828125 -55.875 L103.828125 55.875 L-103.828125 55.875" stroke="none" stroke-width="0" fill="#1f2020"></path><path d="M-103.828125 -55.875 C-32.92218943880596 -55.875, 37.983746122388084 -55.875, 103.828125 -55.875 M-103.828125 -55.875 C-26.537143273335914 -55.875, 50.75383845332817 -55.875, 103.828125 -55.875 M103.828125 -55.875 C103.828125 -30.15889695634543, 103.828125 -4.44279391269086, 103.828125 55.875 M103.828125 -55.875 C103.828125 -24.222972631518598, 103.828125 7.429054736962804, 103.828125 55.875 M103.828125 55.875 C24.85709737543317 55.875, -54.11393024913366 55.875, -103.828125 55.875 M103.828125 55.875 C34.26613026023986 55.875, -35.295864479520276 55.875, -103.828125 55.875 M-103.828125 55.875 C-103.828125 27.57520382710551, -103.828125 -0.7245923457889774, -103.828125 -55.875 M-103.828125 55.875 C-103.828125 14.409026997290681, -103.828125 -27.056946005418638, -103.828125 -55.875" stroke="#ccc" stroke-width="1.3" fill="none" stroke-dasharray="0 0"></path></g><g style="" class="row-rect-odd"><path d="M-103.828125 -18.625 L103.828125 -18.625 L103.828125 18.625 L-103.828125 18.625" stroke="none" stroke-width="0" fill="hsl(180, 1.5873015873%, 17.3529411765%)"></path><path d="M-103.828125 -18.625 C-39.71968879722212 -18.625, 24.388747405555762 -18.625, 103.828125 -18.625 M-103.828125 -18.625 C-24.36163426680352 -18.625, 55.10485646639296 -18.625, 103.828125 -18.625 M103.828125 -18.625 C103.828125 -10.75551223083408, 103.828125 -2.8860244616681605, 103.828125 18.625 M103.828125 -18.625 C103.828125 -6.019988481458904, 103.828125 6.585023037082191, 103.828125 18.625 M103.828125 18.625 C60.223435066645386 18.625, 16.618745133290773 18.625, -103.828125 18.625 M103.828125 18.625 C55.95248140113063 18.625, 8.076837802261267 18.625, -103.828125 18.625 M-103.828125 18.625 C-103.828125 9.651031412795332, -103.828125 0.6770628255906637, -103.828125 -18.625 M-103.828125 18.625 C-103.828125 9.323165637402877, -103.828125 0.021331274805753253, -103.828125 -18.625" stroke="#ccc" stroke-width="1.3" fill="none" stroke-dasharray="0 0"></path></g><g style="" class="row-rect-even"><path d="M-103.828125 18.625 L103.828125 18.625 L103.828125 55.875 L-103.828125 55.875" stroke="none" stroke-width="0" fill="hsl(180, 1.5873015873%, 2.3529411765%)"></path><path d="M-103.828125 18.625 C-46.22682615127515 18.625, 11.374472697449704 18.625, 103.828125 18.625 M-103.828125 18.625 C-38.7699028630235 18.625, 26.288319273952993 18.625, 103.828125 18.625 M103.828125 18.625 C103.828125 26.2540701204009, 103.828125 33.8831402408018, 103.828125 55.875 M103.828125 18.625 C103.828125 27.734747506985904, 103.828125 36.84449501397181, 103.828125 55.875 M103.828125 55.875 C22.7580002150071 55.875, -58.3121245699858 55.875, -103.828125 55.875 M103.828125 55.875 C25.246627478829367 55.875, -53.334870042341265 55.875, -103.828125 55.875 M-103.828125 55.875 C-103.828125 44.21008575882952, -103.828125 32.54517151765904, -103.828125 18.625 M-103.828125 55.875 C-103.828125 43.1833001837555, -103.828125 30.491600367511, -103.828125 18.625" stroke="#ccc" stroke-width="1.3" fill="none" stroke-dasharray="0 0"></path></g><g class="label name" transform="translate(-48.171875, -46.5)" style=""><g><rect class="background" style="stroke: none"></rect></g><text y="-10.1" style=""><tspan class="text-outer-tspan" x="0" y="-0.1em" dy="1.1em"><tspan font-style="normal" class="text-inner-tspan" font-weight="normal">HUB_BRANCH</tspan></tspan></text></g><g class="label attribute-type" transform="translate(-91.328125, -9.25)" style=""><g><rect class="background" style="stroke: none"></rect></g><text y="-10.1" style=""><tspan class="text-outer-tspan" x="0" y="-0.1em" dy="1.1em"><tspan font-style="normal" class="text-inner-tspan" font-weight="normal">string</tspan></tspan></text></g><g class="label attribute-name" transform="translate(-25.953125, -9.25)" style=""><g><rect class="background" style="stroke: none"></rect></g><text y="-10.1" style=""><tspan class="text-outer-tspan" x="0" y="-0.1em" dy="1.1em"><tspan font-style="normal" class="text-inner-tspan" font-weight="normal">branch_hk</tspan></tspan></text></g><g class="label attribute-keys" transform="translate(73.1953125, -9.25)" style=""><g><rect class="background" style="stroke: none"></rect></g><text y="-10.1" style=""><tspan class="text-outer-tspan" x="0" y="-0.1em" dy="1.1em"><tspan font-style="normal" class="text-inner-tspan" font-weight="normal">PK</tspan></tspan></text></g><g class="label attribute-comment" transform="translate(116.328125, -9.25)" style=""><g><rect class="background" style="stroke: none"></rect></g><text y="-10.1" style=""><tspan class="text-outer-tspan" x="0" y="-0.1em" dy="1.1em"></tspan></text></g><g class="label attribute-type" transform="translate(-91.328125, 28)" style=""><g><rect class="background" style="stroke: none"></rect></g><text y="-10.1" style=""><tspan class="text-outer-tspan" x="0" y="-0.1em" dy="1.1em"><tspan font-style="normal" class="text-inner-tspan" font-weight="normal">string</tspan></tspan></text></g><g class="label attribute-name" transform="translate(-25.953125, 28)" style=""><g><rect class="background" style="stroke: none"></rect></g><text y="-10.1" style=""><tspan class="text-outer-tspan" x="0" y="-0.1em" dy="1.1em"><tspan font-style="normal" class="text-inner-tspan" font-weight="normal">branch_id</tspan></tspan></text></g><g class="label attribute-keys" transform="translate(73.1953125, 28)" style=""><g><rect class="background" style="stroke: none"></rect></g><text y="-10.1" style=""><tspan class="text-outer-tspan" x="0" y="-0.1em" dy="1.1em"></tspan></text></g><g class="label attribute-comment" transform="translate(116.328125, 28)" style=""><g><rect class="background" style="stroke: none"></rect></g><text y="-10.1" style=""><tspan class="text-outer-tspan" x="0" y="-0.1em" dy="1.1em"></tspan></text></g><g class="divider"><path d="M-103.828125 -18.625 C-49.16671399425233 -18.625, 5.494697011495333 -18.625, 103.828125 -18.625 M-103.828125 -18.625 C-59.10808755931773 -18.625, -14.388050118635462 -18.625, 103.828125 -18.625" stroke="#ccc" stroke-width="1.3" fill="none" stroke-dasharray="0 0"></path></g><g class="divider"><path d="M-38.453125 -18.625 C-38.453125 5.011254685550902, -38.453125 28.647509371101805, -38.453125 55.875 M-38.453125 -18.625 C-38.453125 1.176117282777792, -38.453125 20.977234565555584, -38.453125 55.875" stroke="#ccc" stroke-width="1.3" fill="none" stroke-dasharray="0 0"></path></g><g class="divider"><path d="M60.6953125 -18.625 C60.6953125 5.793574116532557, 60.6953125 30.212148233065115, 60.6953125 55.875 M60.6953125 -18.625 C60.6953125 10.467284052458588, 60.6953125 39.559568104917176, 60.6953125 55.875" stroke="#ccc" stroke-width="1.3" fill="none" stroke-dasharray="0 0"></path></g><g class="divider"><path d="M-103.828125 -18.625 C-30.316240822933395 -18.625, 43.19564335413321 -18.625, 103.828125 -18.625 M-103.828125 -18.625 C-22.62575198058306 -18.625, 58.57662103883388 -18.625, 103.828125 -18.625" stroke="#ccc" stroke-width="1.3" fill="none" stroke-dasharray="0 0"></path></g></g><g class="node default" id="entity-LINK_TXN_CURRENCY-5" transform="translate(2088.21484375, 239)"><rect class="basic label-container" style="" x="-96.60546875" y="-39.25" width="193.2109375" height="78.5"></rect><g class="label" style="" transform="translate(0, -9.25)"><rect></rect><g><rect class="background" style="stroke: none"></rect><text y="-10.1" style="" transform="translate(-76.60546875, 0)"><tspan class="text-outer-tspan" x="0" y="-0.1em" dy="1.1em"><tspan font-style="normal" class="text-inner-tspan" font-weight="normal">LINK_TXN_CURRENCY</tspan></tspan></text></g></g></g><g class="node default" id="entity-HUB_CURRENCY-6" transform="translate(2305.9140625, 63.875)"><g style=""><path d="M-119.21484375 -55.875 L119.21484375 -55.875 L119.21484375 55.875 L-119.21484375 55.875" stroke="none" stroke-width="0" fill="#1f2020"></path><path d="M-119.21484375 -55.875 C-36.58625876900321 -55.875, 46.04232621199358 -55.875, 119.21484375 -55.875 M-119.21484375 -55.875 C-67.88987273216004 -55.875, -16.564901714320087 -55.875, 119.21484375 -55.875 M119.21484375 -55.875 C119.21484375 -25.987664212521263, 119.21484375 3.8996715749574733, 119.21484375 55.875 M119.21484375 -55.875 C119.21484375 -28.734278095373526, 119.21484375 -1.5935561907470515, 119.21484375 55.875 M119.21484375 55.875 C50.600123686507516 55.875, -18.01459637698497 55.875, -119.21484375 55.875 M119.21484375 55.875 C34.49198738591497 55.875, -50.230868978170065 55.875, -119.21484375 55.875 M-119.21484375 55.875 C-119.21484375 13.586026100538149, -119.21484375 -28.702947798923702, -119.21484375 -55.875 M-119.21484375 55.875 C-119.21484375 30.208832562341232, -119.21484375 4.542665124682465, -119.21484375 -55.875" stroke="#ccc" stroke-width="1.3" fill="none" stroke-dasharray="0 0"></path></g><g style="" class="row-rect-odd"><path d="M-119.21484375 -18.625 L119.21484375 -18.625 L119.21484375 18.625 L-119.21484375 18.625" stroke="none" stroke-width="0" fill="hsl(180, 1.5873015873%, 17.3529411765%)"></path><path d="M-119.21484375 -18.625 C-50.97860001974803 -18.625, 17.25764371050394 -18.625, 119.21484375 -18.625 M-119.21484375 -18.625 C-47.1815220317758 -18.625, 24.851799686448402 -18.625, 119.21484375 -18.625 M119.21484375 -18.625 C119.21484375 -4.116067227876744, 119.21484375 10.392865544246511, 119.21484375 18.625 M119.21484375 -18.625 C119.21484375 -8.762396743117506, 119.21484375 1.100206513764988, 119.21484375 18.625 M119.21484375 18.625 C42.78163769964746 18.625, -33.65156835070508 18.625, -119.21484375 18.625 M119.21484375 18.625 C26.059397640695806 18.625, -67.09604846860839 18.625, -119.21484375 18.625 M-119.21484375 18.625 C-119.21484375 4.461344634815974, -119.21484375 -9.702310730368051, -119.21484375 -18.625 M-119.21484375 18.625 C-119.21484375 8.95226306027572, -119.21484375 -0.7204738794485586, -119.21484375 -18.625" stroke="#ccc" stroke-width="1.3" fill="none" stroke-dasharray="0 0"></path></g><g style="" class="row-rect-even"><path d="M-119.21484375 18.625 L119.21484375 18.625 L119.21484375 55.875 L-119.21484375 55.875" stroke="none" stroke-width="0" fill="hsl(180, 1.5873015873%, 2.3529411765%)"></path><path d="M-119.21484375 18.625 C-36.351222773065544 18.625, 46.51239820386891 18.625, 119.21484375 18.625 M-119.21484375 18.625 C-50.078301544951486 18.625, 19.058240660097027 18.625, 119.21484375 18.625 M119.21484375 18.625 C119.21484375 27.049192058396514, 119.21484375 35.47338411679303, 119.21484375 55.875 M119.21484375 18.625 C119.21484375 30.68982870028848, 119.21484375 42.75465740057696, 119.21484375 55.875 M119.21484375 55.875 C40.15708672637838 55.875, -38.90067029724324 55.875, -119.21484375 55.875 M119.21484375 55.875 C63.25711692761625 55.875, 7.299390105232504 55.875, -119.21484375 55.875 M-119.21484375 55.875 C-119.21484375 47.16953022623559, -119.21484375 38.46406045247117, -119.21484375 18.625 M-119.21484375 55.875 C-119.21484375 42.387066662481146, -119.21484375 28.899133324962293, -119.21484375 18.625" stroke="#ccc" stroke-width="1.3" fill="none" stroke-dasharray="0 0"></path></g><g class="label name" transform="translate(-57.16796875, -46.5)" style=""><g><rect class="background" style="stroke: none"></rect></g><text y="-10.1" style=""><tspan class="text-outer-tspan" x="0" y="-0.1em" dy="1.1em"><tspan font-style="normal" class="text-inner-tspan" font-weight="normal">HUB_CURRENCY</tspan></tspan></text></g><g class="label attribute-type" transform="translate(-106.71484375, -9.25)" style=""><g><rect class="background" style="stroke: none"></rect></g><text y="-10.1" style=""><tspan class="text-outer-tspan" x="0" y="-0.1em" dy="1.1em"><tspan font-style="normal" class="text-inner-tspan" font-weight="normal">string</tspan></tspan></text></g><g class="label attribute-name" transform="translate(-41.33984375, -9.25)" style=""><g><rect class="background" style="stroke: none"></rect></g><text y="-10.1" style=""><tspan class="text-outer-tspan" x="0" y="-0.1em" dy="1.1em"><tspan font-style="normal" class="text-inner-tspan" font-weight="normal">currency_hk</tspan></tspan></text></g><g class="label attribute-keys" transform="translate(88.58203125, -9.25)" style=""><g><rect class="background" style="stroke: none"></rect></g><text y="-10.1" style=""><tspan class="text-outer-tspan" x="0" y="-0.1em" dy="1.1em"><tspan font-style="normal" class="text-inner-tspan" font-weight="normal">PK</tspan></tspan></text></g><g class="label attribute-comment" transform="translate(131.71484375, -9.25)" style=""><g><rect class="background" style="stroke: none"></rect></g><text y="-10.1" style=""><tspan class="text-outer-tspan" x="0" y="-0.1em" dy="1.1em"></tspan></text></g><g class="label attribute-type" transform="translate(-106.71484375, 28)" style=""><g><rect class="background" style="stroke: none"></rect></g><text y="-10.1" style=""><tspan class="text-outer-tspan" x="0" y="-0.1em" dy="1.1em"><tspan font-style="normal" class="text-inner-tspan" font-weight="normal">string</tspan></tspan></text></g><g class="label attribute-name" transform="translate(-41.33984375, 28)" style=""><g><rect class="background" style="stroke: none"></rect></g><text y="-10.1" style=""><tspan class="text-outer-tspan" x="0" y="-0.1em" dy="1.1em"><tspan font-style="normal" class="text-inner-tspan" font-weight="normal">currency_code</tspan></tspan></text></g><g class="label attribute-keys" transform="translate(88.58203125, 28)" style=""><g><rect class="background" style="stroke: none"></rect></g><text y="-10.1" style=""><tspan class="text-outer-tspan" x="0" y="-0.1em" dy="1.1em"></tspan></text></g><g class="label attribute-comment" transform="translate(131.71484375, 28)" style=""><g><rect class="background" style="stroke: none"></rect></g><text y="-10.1" style=""><tspan class="text-outer-tspan" x="0" y="-0.1em" dy="1.1em"></tspan></text></g><g class="divider"><path d="M-119.21484375 -18.625 C-34.6182361279443 -18.625, 49.9783714941114 -18.625, 119.21484375 -18.625 M-119.21484375 -18.625 C-29.126718877399412 -18.625, 60.961405995201176 -18.625, 119.21484375 -18.625" stroke="#ccc" stroke-width="1.3" fill="none" stroke-dasharray="0 0"></path></g><g class="divider"><path d="M-53.83984375 -18.625 C-53.83984375 4.479951721117786, -53.83984375 27.58490344223557, -53.83984375 55.875 M-53.83984375 -18.625 C-53.83984375 5.281761575778187, -53.83984375 29.188523151556375, -53.83984375 55.875" stroke="#ccc" stroke-width="1.3" fill="none" stroke-dasharray="0 0"></path></g><g class="divider"><path d="M76.08203125 -18.625 C76.08203125 10.438273618830095, 76.08203125 39.50154723766019, 76.08203125 55.875 M76.08203125 -18.625 C76.08203125 1.2136382035360143, 76.08203125 21.05227640707203, 76.08203125 55.875" stroke="#ccc" stroke-width="1.3" fill="none" stroke-dasharray="0 0"></path></g><g class="divider"><path d="M-119.21484375 -18.625 C-33.09456446909745 -18.625, 53.0257148118051 -18.625, 119.21484375 -18.625 M-119.21484375 -18.625 C-66.7766924179943 -18.625, -14.338541085988581 -18.625, 119.21484375 -18.625" stroke="#ccc" stroke-width="1.3" fill="none" stroke-dasharray="0 0"></path></g></g><g class="node default" id="entity-HUB_BANK-7" transform="translate(2661.55078125, 63.875)"><g style=""><path d="M-96.421875 -55.875 L96.421875 -55.875 L96.421875 55.875 L-96.421875 55.875" stroke="none" stroke-width="0" fill="#1f2020"></path><path d="M-96.421875 -55.875 C-53.74508806780938 -55.875, -11.068301135618754 -55.875, 96.421875 -55.875 M-96.421875 -55.875 C-24.29554128184519 -55.875, 47.83079243630962 -55.875, 96.421875 -55.875 M96.421875 -55.875 C96.421875 -11.452520942219522, 96.421875 32.96995811556096, 96.421875 55.875 M96.421875 -55.875 C96.421875 -17.224271594280914, 96.421875 21.42645681143817, 96.421875 55.875 M96.421875 55.875 C43.914885845824436 55.875, -8.592103308351128 55.875, -96.421875 55.875 M96.421875 55.875 C57.75827331347439 55.875, 19.09467162694878 55.875, -96.421875 55.875 M-96.421875 55.875 C-96.421875 11.707071269455554, -96.421875 -32.46085746108889, -96.421875 -55.875 M-96.421875 55.875 C-96.421875 14.928483995890318, -96.421875 -26.018032008219365, -96.421875 -55.875" stroke="#ccc" stroke-width="1.3" fill="none" stroke-dasharray="0 0"></path></g><g style="" class="row-rect-odd"><path d="M-96.421875 -18.625 L96.421875 -18.625 L96.421875 18.625 L-96.421875 18.625" stroke="none" stroke-width="0" fill="hsl(180, 1.5873015873%, 17.3529411765%)"></path><path d="M-96.421875 -18.625 C-22.28128464050687 -18.625, 51.85930571898626 -18.625, 96.421875 -18.625 M-96.421875 -18.625 C-26.103004834515204 -18.625, 44.21586533096959 -18.625, 96.421875 -18.625 M96.421875 -18.625 C96.421875 -5.834049167219998, 96.421875 6.956901665560004, 96.421875 18.625 M96.421875 -18.625 C96.421875 -7.716848725812827, 96.421875 3.1913025483743453, 96.421875 18.625 M96.421875 18.625 C23.09934882895253 18.625, -50.22317734209494 18.625, -96.421875 18.625 M96.421875 18.625 C48.35015035849098 18.625, 0.27842571698195684 18.625, -96.421875 18.625 M-96.421875 18.625 C-96.421875 5.025853001112317, -96.421875 -8.573293997775366, -96.421875 -18.625 M-96.421875 18.625 C-96.421875 7.222090952545527, -96.421875 -4.180818094908947, -96.421875 -18.625" stroke="#ccc" stroke-width="1.3" fill="none" stroke-dasharray="0 0"></path></g><g style="" class="row-rect-even"><path d="M-96.421875 18.625 L96.421875 18.625 L96.421875 55.875 L-96.421875 55.875" stroke="none" stroke-width="0" fill="hsl(180, 1.5873015873%, 2.3529411765%)"></path><path d="M-96.421875 18.625 C-54.62560901835662 18.625, -12.82934303671324 18.625, 96.421875 18.625 M-96.421875 18.625 C-51.67768841255909 18.625, -6.933501825118185 18.625, 96.421875 18.625 M96.421875 18.625 C96.421875 33.09129435204109, 96.421875 47.557588704082185, 96.421875 55.875 M96.421875 18.625 C96.421875 29.831406523704565, 96.421875 41.03781304740913, 96.421875 55.875 M96.421875 55.875 C38.57676348341706 55.875, -19.26834803316588 55.875, -96.421875 55.875 M96.421875 55.875 C39.12386147161749 55.875, -18.174152056765024 55.875, -96.421875 55.875 M-96.421875 55.875 C-96.421875 40.99784181674992, -96.421875 26.12068363349984, -96.421875 18.625 M-96.421875 55.875 C-96.421875 41.443477319338776, -96.421875 27.011954638677548, -96.421875 18.625" stroke="#ccc" stroke-width="1.3" fill="none" stroke-dasharray="0 0"></path></g><g class="label name" transform="translate(-38.1015625, -46.5)" style=""><g><rect class="background" style="stroke: none"></rect></g><text y="-10.1" style=""><tspan class="text-outer-tspan" x="0" y="-0.1em" dy="1.1em"><tspan font-style="normal" class="text-inner-tspan" font-weight="normal">HUB_BANK</tspan></tspan></text></g><g class="label attribute-type" transform="translate(-83.921875, -9.25)" style=""><g><rect class="background" style="stroke: none"></rect></g><text y="-10.1" style=""><tspan class="text-outer-tspan" x="0" y="-0.1em" dy="1.1em"><tspan font-style="normal" class="text-inner-tspan" font-weight="normal">string</tspan></tspan></text></g><g class="label attribute-name" transform="translate(-18.546875, -9.25)" style=""><g><rect class="background" style="stroke: none"></rect></g><text y="-10.1" style=""><tspan class="text-outer-tspan" x="0" y="-0.1em" dy="1.1em"><tspan font-style="normal" class="text-inner-tspan" font-weight="normal">bank_hk</tspan></tspan></text></g><g class="label attribute-keys" transform="translate(65.7890625, -9.25)" style=""><g><rect class="background" style="stroke: none"></rect></g><text y="-10.1" style=""><tspan class="text-outer-tspan" x="0" y="-0.1em" dy="1.1em"><tspan font-style="normal" class="text-inner-tspan" font-weight="normal">PK</tspan></tspan></text></g><g class="label attribute-comment" transform="translate(108.921875, -9.25)" style=""><g><rect class="background" style="stroke: none"></rect></g><text y="-10.1" style=""><tspan class="text-outer-tspan" x="0" y="-0.1em" dy="1.1em"></tspan></text></g><g class="label attribute-type" transform="translate(-83.921875, 28)" style=""><g><rect class="background" style="stroke: none"></rect></g><text y="-10.1" style=""><tspan class="text-outer-tspan" x="0" y="-0.1em" dy="1.1em"><tspan font-style="normal" class="text-inner-tspan" font-weight="normal">string</tspan></tspan></text></g><g class="label attribute-name" transform="translate(-18.546875, 28)" style=""><g><rect class="background" style="stroke: none"></rect></g><text y="-10.1" style=""><tspan class="text-outer-tspan" x="0" y="-0.1em" dy="1.1em"><tspan font-style="normal" class="text-inner-tspan" font-weight="normal">bank_id</tspan></tspan></text></g><g class="label attribute-keys" transform="translate(65.7890625, 28)" style=""><g><rect class="background" style="stroke: none"></rect></g><text y="-10.1" style=""><tspan class="text-outer-tspan" x="0" y="-0.1em" dy="1.1em"></tspan></text></g><g class="label attribute-comment" transform="translate(108.921875, 28)" style=""><g><rect class="background" style="stroke: none"></rect></g><text y="-10.1" style=""><tspan class="text-outer-tspan" x="0" y="-0.1em" dy="1.1em"></tspan></text></g><g class="divider"><path d="M-96.421875 -18.625 C-45.24044422531663 -18.625, 5.940986549366741 -18.625, 96.421875 -18.625 M-96.421875 -18.625 C-45.02226030316017 -18.625, 6.377354393679667 -18.625, 96.421875 -18.625" stroke="#ccc" stroke-width="1.3" fill="none" stroke-dasharray="0 0"></path></g><g class="divider"><path d="M-31.046875 -18.625 C-31.046875 -3.0589740252155213, -31.046875 12.507051949568957, -31.046875 55.875 M-31.046875 -18.625 C-31.046875 3.1126215228037175, -31.046875 24.850243045607435, -31.046875 55.875" stroke="#ccc" stroke-width="1.3" fill="none" stroke-dasharray="0 0"></path></g><g class="divider"><path d="M53.2890625 -18.625 C53.2890625 3.495797268061917, 53.2890625 25.616594536123834, 53.2890625 55.875 M53.2890625 -18.625 C53.2890625 8.625191258528623, 53.2890625 35.87538251705725, 53.2890625 55.875" stroke="#ccc" stroke-width="1.3" fill="none" stroke-dasharray="0 0"></path></g><g class="divider"><path d="M-96.421875 -18.625 C-47.09426901694846 -18.625, 2.2333369661030815 -18.625, 96.421875 -18.625 M-96.421875 -18.625 C-48.315505165272775 -18.625, -0.2091353305455499 -18.625, 96.421875 -18.625" stroke="#ccc" stroke-width="1.3" fill="none" stroke-dasharray="0 0"></path></g></g><g class="node default" id="entity-LINK_LEASE_BANK-8" transform="translate(2977.3671875, 239)"><rect class="basic label-container" style="" x="-84.5234375" y="-39.25" width="169.046875" height="78.5"></rect><g class="label" style="" transform="translate(0, -9.25)"><rect></rect><g><rect class="background" style="stroke: none"></rect><text y="-10.1" style="" transform="translate(-64.5234375, 0)"><tspan class="text-outer-tspan" x="0" y="-0.1em" dy="1.1em"><tspan font-style="normal" class="text-inner-tspan" font-weight="normal">LINK_LEASE_BANK</tspan></tspan></text></g></g></g><g class="node default" id="entity-HUB_CASH_LEASE-9" transform="translate(2995.85546875, 63.875)"><g style=""><path d="M-97.8828125 -55.875 L97.8828125 -55.875 L97.8828125 55.875 L-97.8828125 55.875" stroke="none" stroke-width="0" fill="#1f2020"></path><path d="M-97.8828125 -55.875 C-29.482296390130955 -55.875, 38.91821971973809 -55.875, 97.8828125 -55.875 M-97.8828125 -55.875 C-58.23272886874747 -55.875, -18.582645237494944 -55.875, 97.8828125 -55.875 M97.8828125 -55.875 C97.8828125 -11.375782194982754, 97.8828125 33.12343561003449, 97.8828125 55.875 M97.8828125 -55.875 C97.8828125 -25.853723626918885, 97.8828125 4.1675527461622295, 97.8828125 55.875 M97.8828125 55.875 C38.30353500339208 55.875, -21.275742493215844 55.875, -97.8828125 55.875 M97.8828125 55.875 C47.55983748806083 55.875, -2.763137523878342 55.875, -97.8828125 55.875 M-97.8828125 55.875 C-97.8828125 33.04206544157202, -97.8828125 10.209130883144041, -97.8828125 -55.875 M-97.8828125 55.875 C-97.8828125 28.86792221771829, -97.8828125 1.860844435436583, -97.8828125 -55.875" stroke="#ccc" stroke-width="1.3" fill="none" stroke-dasharray="0 0"></path></g><g style="" class="row-rect-odd"><path d="M-97.8828125 -18.625 L97.8828125 -18.625 L97.8828125 18.625 L-97.8828125 18.625" stroke="none" stroke-width="0" fill="hsl(180, 1.5873015873%, 17.3529411765%)"></path><path d="M-97.8828125 -18.625 C-56.24637837276637 -18.625, -14.609944245532745 -18.625, 97.8828125 -18.625 M-97.8828125 -18.625 C-35.24549362910916 -18.625, 27.391825241781675 -18.625, 97.8828125 -18.625 M97.8828125 -18.625 C97.8828125 -8.463164171867476, 97.8828125 1.6986716562650486, 97.8828125 18.625 M97.8828125 -18.625 C97.8828125 -5.508789236711513, 97.8828125 7.6074215265769745, 97.8828125 18.625 M97.8828125 18.625 C24.89781200999782 18.625, -48.08718848000436 18.625, -97.8828125 18.625 M97.8828125 18.625 C38.74302711563654 18.625, -20.396758268726927 18.625, -97.8828125 18.625 M-97.8828125 18.625 C-97.8828125 7.092416061130878, -97.8828125 -4.440167877738244, -97.8828125 -18.625 M-97.8828125 18.625 C-97.8828125 7.804150528417887, -97.8828125 -3.0166989431642257, -97.8828125 -18.625" stroke="#ccc" stroke-width="1.3" fill="none" stroke-dasharray="0 0"></path></g><g style="" class="row-rect-even"><path d="M-97.8828125 18.625 L97.8828125 18.625 L97.8828125 55.875 L-97.8828125 55.875" stroke="none" stroke-width="0" fill="hsl(180, 1.5873015873%, 2.3529411765%)"></path><path d="M-97.8828125 18.625 C-45.85568263320451 18.625, 6.171447233590982 18.625, 97.8828125 18.625 M-97.8828125 18.625 C-33.32996970858012 18.625, 31.222873082839754 18.625, 97.8828125 18.625 M97.8828125 18.625 C97.8828125 30.61098135844739, 97.8828125 42.59696271689478, 97.8828125 55.875 M97.8828125 18.625 C97.8828125 27.71536502607274, 97.8828125 36.80573005214548, 97.8828125 55.875 M97.8828125 55.875 C55.486166419468496 55.875, 13.089520338936993 55.875, -97.8828125 55.875 M97.8828125 55.875 C31.71287015136616 55.875, -34.45707219726768 55.875, -97.8828125 55.875 M-97.8828125 55.875 C-97.8828125 46.09384833435007, -97.8828125 36.312696668700134, -97.8828125 18.625 M-97.8828125 55.875 C-97.8828125 43.31130264503613, -97.8828125 30.74760529007226, -97.8828125 18.625" stroke="#ccc" stroke-width="1.3" fill="none" stroke-dasharray="0 0"></path></g><g class="label name" transform="translate(-63.11328125, -46.5)" style=""><g><rect class="background" style="stroke: none"></rect></g><text y="-10.1" style=""><tspan class="text-outer-tspan" x="0" y="-0.1em" dy="1.1em"><tspan font-style="normal" class="text-inner-tspan" font-weight="normal">HUB_CASH_LEASE</tspan></tspan></text></g><g class="label attribute-type" transform="translate(-85.3828125, -9.25)" style=""><g><rect class="background" style="stroke: none"></rect></g><text y="-10.1" style=""><tspan class="text-outer-tspan" x="0" y="-0.1em" dy="1.1em"><tspan font-style="normal" class="text-inner-tspan" font-weight="normal">string</tspan></tspan></text></g><g class="label attribute-name" transform="translate(-20.0078125, -9.25)" style=""><g><rect class="background" style="stroke: none"></rect></g><text y="-10.1" style=""><tspan class="text-outer-tspan" x="0" y="-0.1em" dy="1.1em"><tspan font-style="normal" class="text-inner-tspan" font-weight="normal">lease_hk</tspan></tspan></text></g><g class="label attribute-keys" transform="translate(67.25, -9.25)" style=""><g><rect class="background" style="stroke: none"></rect></g><text y="-10.1" style=""><tspan class="text-outer-tspan" x="0" y="-0.1em" dy="1.1em"><tspan font-style="normal" class="text-inner-tspan" font-weight="normal">PK</tspan></tspan></text></g><g class="label attribute-comment" transform="translate(110.3828125, -9.25)" style=""><g><rect class="background" style="stroke: none"></rect></g><text y="-10.1" style=""><tspan class="text-outer-tspan" x="0" y="-0.1em" dy="1.1em"></tspan></text></g><g class="label attribute-type" transform="translate(-85.3828125, 28)" style=""><g><rect class="background" style="stroke: none"></rect></g><text y="-10.1" style=""><tspan class="text-outer-tspan" x="0" y="-0.1em" dy="1.1em"><tspan font-style="normal" class="text-inner-tspan" font-weight="normal">string</tspan></tspan></text></g><g class="label attribute-name" transform="translate(-20.0078125, 28)" style=""><g><rect class="background" style="stroke: none"></rect></g><text y="-10.1" style=""><tspan class="text-outer-tspan" x="0" y="-0.1em" dy="1.1em"><tspan font-style="normal" class="text-inner-tspan" font-weight="normal">lease_id</tspan></tspan></text></g><g class="label attribute-keys" transform="translate(67.25, 28)" style=""><g><rect class="background" style="stroke: none"></rect></g><text y="-10.1" style=""><tspan class="text-outer-tspan" x="0" y="-0.1em" dy="1.1em"></tspan></text></g><g class="label attribute-comment" transform="translate(110.3828125, 28)" style=""><g><rect class="background" style="stroke: none"></rect></g><text y="-10.1" style=""><tspan class="text-outer-tspan" x="0" y="-0.1em" dy="1.1em"></tspan></text></g><g class="divider"><path d="M-97.8828125 -18.625 C-30.68721188148831 -18.625, 36.50838873702338 -18.625, 97.8828125 -18.625 M-97.8828125 -18.625 C-49.13351976284626 -18.625, -0.38422702569252465 -18.625, 97.8828125 -18.625" stroke="#ccc" stroke-width="1.3" fill="none" stroke-dasharray="0 0"></path></g><g class="divider"><path d="M-32.5078125 -18.625 C-32.5078125 6.347828141363198, -32.5078125 31.320656282726397, -32.5078125 55.875 M-32.5078125 -18.625 C-32.5078125 0.7160080497293961, -32.5078125 20.057016099458792, -32.5078125 55.875" stroke="#ccc" stroke-width="1.3" fill="none" stroke-dasharray="0 0"></path></g><g class="divider"><path d="M54.75 -18.625 C54.75 7.528242331432562, 54.75 33.681484662865124, 54.75 55.875 M54.75 -18.625 C54.75 10.964467763852824, 54.75 40.55393552770565, 54.75 55.875" stroke="#ccc" stroke-width="1.3" fill="none" stroke-dasharray="0 0"></path></g><g class="divider"><path d="M-97.8828125 -18.625 C-53.03470474784322 -18.625, -8.186596995686443 -18.625, 97.8828125 -18.625 M-97.8828125 -18.625 C-49.216730398571805 -18.625, -0.55064829714361 -18.625, 97.8828125 -18.625" stroke="#ccc" stroke-width="1.3" fill="none" stroke-dasharray="0 0"></path></g></g><g class="node default" id="entity-LINK_LEASE_CURRENCY-10" transform="translate(2468.33984375, 239)"><rect class="basic label-container" style="" x="-103.58984375" y="-39.25" width="207.1796875" height="78.5"></rect><g class="label" style="" transform="translate(0, -9.25)"><rect></rect><g><rect class="background" style="stroke: none"></rect><text y="-10.1" style="" transform="translate(-83.58984375, 0)"><tspan class="text-outer-tspan" x="0" y="-0.1em" dy="1.1em"><tspan font-style="normal" class="text-inner-tspan" font-weight="normal">LINK_LEASE_CURRENCY</tspan></tspan></text></g></g></g><g class="node default" id="entity-LINK_SETTLEMENT_LEASE-11" transform="translate(3468.31640625, 239)"><rect class="basic label-container" style="" x="-111.03515625" y="-39.25" width="222.0703125" height="78.5"></rect><g class="label" style="" transform="translate(0, -9.25)"><rect></rect><g><rect class="background" style="stroke: none"></rect><text y="-10.1" style="" transform="translate(-91.03515625, 0)"><tspan class="text-outer-tspan" x="0" y="-0.1em" dy="1.1em"><tspan font-style="normal" class="text-inner-tspan" font-weight="normal">LINK_SETTLEMENT_LEASE</tspan></tspan></text></g></g></g><g class="node default" id="entity-HUB_SETTLEMENT-12" transform="translate(3478.31640625, 63.875)"><g style=""><path d="M-118.5703125 -55.875 L118.5703125 -55.875 L118.5703125 55.875 L-118.5703125 55.875" stroke="none" stroke-width="0" fill="#1f2020"></path><path d="M-118.5703125 -55.875 C-33.6191802958986 -55.875, 51.3319519082028 -55.875, 118.5703125 -55.875 M-118.5703125 -55.875 C-70.39809803539168 -55.875, -22.225883570783367 -55.875, 118.5703125 -55.875 M118.5703125 -55.875 C118.5703125 -23.262955418851348, 118.5703125 9.349089162297304, 118.5703125 55.875 M118.5703125 -55.875 C118.5703125 -31.922677254925958, 118.5703125 -7.970354509851916, 118.5703125 55.875 M118.5703125 55.875 C27.679566915947944 55.875, -63.21117866810411 55.875, -118.5703125 55.875 M118.5703125 55.875 C40.64291314459105 55.875, -37.2844862108179 55.875, -118.5703125 55.875 M-118.5703125 55.875 C-118.5703125 13.888816516211492, -118.5703125 -28.097366967577017, -118.5703125 -55.875 M-118.5703125 55.875 C-118.5703125 25.115936534174175, -118.5703125 -5.643126931651651, -118.5703125 -55.875" stroke="#ccc" stroke-width="1.3" fill="none" stroke-dasharray="0 0"></path></g><g style="" class="row-rect-odd"><path d="M-118.5703125 -18.625 L118.5703125 -18.625 L118.5703125 18.625 L-118.5703125 18.625" stroke="none" stroke-width="0" fill="hsl(180, 1.5873015873%, 17.3529411765%)"></path><path d="M-118.5703125 -18.625 C-47.47681729014086 -18.625, 23.616677919718285 -18.625, 118.5703125 -18.625 M-118.5703125 -18.625 C-53.91243234202858 -18.625, 10.745447815942839 -18.625, 118.5703125 -18.625 M118.5703125 -18.625 C118.5703125 -9.263267727982353, 118.5703125 0.09846454403529492, 118.5703125 18.625 M118.5703125 -18.625 C118.5703125 -6.702401862063589, 118.5703125 5.220196275872823, 118.5703125 18.625 M118.5703125 18.625 C51.74058364992092 18.625, -15.089145200158157 18.625, -118.5703125 18.625 M118.5703125 18.625 C50.133991518507756 18.625, -18.30232946298449 18.625, -118.5703125 18.625 M-118.5703125 18.625 C-118.5703125 9.224328578788702, -118.5703125 -0.17634284242259568, -118.5703125 -18.625 M-118.5703125 18.625 C-118.5703125 8.749058642340673, -118.5703125 -1.1268827153186542, -118.5703125 -18.625" stroke="#ccc" stroke-width="1.3" fill="none" stroke-dasharray="0 0"></path></g><g style="" class="row-rect-even"><path d="M-118.5703125 18.625 L118.5703125 18.625 L118.5703125 55.875 L-118.5703125 55.875" stroke="none" stroke-width="0" fill="hsl(180, 1.5873015873%, 2.3529411765%)"></path><path d="M-118.5703125 18.625 C-65.85691616373376 18.625, -13.143519827467529 18.625, 118.5703125 18.625 M-118.5703125 18.625 C-56.10278832462899 18.625, 6.364735850742022 18.625, 118.5703125 18.625 M118.5703125 18.625 C118.5703125 27.71742432743458, 118.5703125 36.80984865486916, 118.5703125 55.875 M118.5703125 18.625 C118.5703125 30.454982955786605, 118.5703125 42.28496591157321, 118.5703125 55.875 M118.5703125 55.875 C64.8258585342926 55.875, 11.081404568585214 55.875, -118.5703125 55.875 M118.5703125 55.875 C50.63562914619391 55.875, -17.299054207612187 55.875, -118.5703125 55.875 M-118.5703125 55.875 C-118.5703125 45.11388518648781, -118.5703125 34.35277037297563, -118.5703125 18.625 M-118.5703125 55.875 C-118.5703125 48.15267795681574, -118.5703125 40.43035591363147, -118.5703125 18.625" stroke="#ccc" stroke-width="1.3" fill="none" stroke-dasharray="0 0"></path></g><g class="label name" transform="translate(-64.61328125, -46.5)" style=""><g><rect class="background" style="stroke: none"></rect></g><text y="-10.1" style=""><tspan class="text-outer-tspan" x="0" y="-0.1em" dy="1.1em"><tspan font-style="normal" class="text-inner-tspan" font-weight="normal">HUB_SETTLEMENT</tspan></tspan></text></g><g class="label attribute-type" transform="translate(-106.0703125, -9.25)" style=""><g><rect class="background" style="stroke: none"></rect></g><text y="-10.1" style=""><tspan class="text-outer-tspan" x="0" y="-0.1em" dy="1.1em"><tspan font-style="normal" class="text-inner-tspan" font-weight="normal">string</tspan></tspan></text></g><g class="label attribute-name" transform="translate(-40.6953125, -9.25)" style=""><g><rect class="background" style="stroke: none"></rect></g><text y="-10.1" style=""><tspan class="text-outer-tspan" x="0" y="-0.1em" dy="1.1em"><tspan font-style="normal" class="text-inner-tspan" font-weight="normal">settlement_hk</tspan></tspan></text></g><g class="label attribute-keys" transform="translate(87.9375, -9.25)" style=""><g><rect class="background" style="stroke: none"></rect></g><text y="-10.1" style=""><tspan class="text-outer-tspan" x="0" y="-0.1em" dy="1.1em"><tspan font-style="normal" class="text-inner-tspan" font-weight="normal">PK</tspan></tspan></text></g><g class="label attribute-comment" transform="translate(131.0703125, -9.25)" style=""><g><rect class="background" style="stroke: none"></rect></g><text y="-10.1" style=""><tspan class="text-outer-tspan" x="0" y="-0.1em" dy="1.1em"></tspan></text></g><g class="label attribute-type" transform="translate(-106.0703125, 28)" style=""><g><rect class="background" style="stroke: none"></rect></g><text y="-10.1" style=""><tspan class="text-outer-tspan" x="0" y="-0.1em" dy="1.1em"><tspan font-style="normal" class="text-inner-tspan" font-weight="normal">string</tspan></tspan></text></g><g class="label attribute-name" transform="translate(-40.6953125, 28)" style=""><g><rect class="background" style="stroke: none"></rect></g><text y="-10.1" style=""><tspan class="text-outer-tspan" x="0" y="-0.1em" dy="1.1em"><tspan font-style="normal" class="text-inner-tspan" font-weight="normal">settlement_id</tspan></tspan></text></g><g class="label attribute-keys" transform="translate(87.9375, 28)" style=""><g><rect class="background" style="stroke: none"></rect></g><text y="-10.1" style=""><tspan class="text-outer-tspan" x="0" y="-0.1em" dy="1.1em"></tspan></text></g><g class="label attribute-comment" transform="translate(131.0703125, 28)" style=""><g><rect class="background" style="stroke: none"></rect></g><text y="-10.1" style=""><tspan class="text-outer-tspan" x="0" y="-0.1em" dy="1.1em"></tspan></text></g><g class="divider"><path d="M-118.5703125 -18.625 C-47.03821789001 -18.625, 24.493876719979994 -18.625, 118.5703125 -18.625 M-118.5703125 -18.625 C-29.296211508594666 -18.625, 59.97788948281067 -18.625, 118.5703125 -18.625" stroke="#ccc" stroke-width="1.3" fill="none" stroke-dasharray="0 0"></path></g><g class="divider"><path d="M-53.1953125 -18.625 C-53.1953125 6.752425477041438, -53.1953125 32.129850954082876, -53.1953125 55.875 M-53.1953125 -18.625 C-53.1953125 8.308653456824569, -53.1953125 35.24230691364914, -53.1953125 55.875" stroke="#ccc" stroke-width="1.3" fill="none" stroke-dasharray="0 0"></path></g><g class="divider"><path d="M75.4375 -18.625 C75.4375 1.3507990564851902, 75.4375 21.32659811297038, 75.4375 55.875 M75.4375 -18.625 C75.4375 -0.14717382563725678, 75.4375 18.330652348725486, 75.4375 55.875" stroke="#ccc" stroke-width="1.3" fill="none" stroke-dasharray="0 0"></path></g><g class="divider"><path d="M-118.5703125 -18.625 C-68.32583215843704 -18.625, -18.08135181687409 -18.625, 118.5703125 -18.625 M-118.5703125 -18.625 C-38.231531279066246 -18.625, 42.10724994186751 -18.625, 118.5703125 -18.625" stroke="#ccc" stroke-width="1.3" fill="none" stroke-dasharray="0 0"></path></g></g><g class="node default" id="entity-LINK_CUSTOMER_CONSENT-13" transform="translate(123.57421875, 239)"><rect class="basic label-container" style="" x="-115.57421875" y="-39.25" width="231.1484375" height="78.5"></rect><g class="label" style="" transform="translate(0, -9.25)"><rect></rect><g><rect class="background" style="stroke: none"></rect><text y="-10.1" style="" transform="translate(-95.57421875, 0)"><tspan class="text-outer-tspan" x="0" y="-0.1em" dy="1.1em"><tspan font-style="normal" class="text-inner-tspan" font-weight="normal">LINK_CUSTOMER_CONSENT</tspan></tspan></text></g></g></g><g class="node default" id="entity-HUB_CONSENT-14" transform="translate(123.57421875, 63.875)"><g style=""><path d="M-107.125 -55.875 L107.125 -55.875 L107.125 55.875 L-107.125 55.875" stroke="none" stroke-width="0" fill="#1f2020"></path><path d="M-107.125 -55.875 C-53.25837699391954 -55.875, 0.6082460121609188 -55.875, 107.125 -55.875 M-107.125 -55.875 C-57.50190318147618 -55.875, -7.878806362952361 -55.875, 107.125 -55.875 M107.125 -55.875 C107.125 -18.93092650851397, 107.125 18.01314698297206, 107.125 55.875 M107.125 -55.875 C107.125 -15.560379239591875, 107.125 24.75424152081625, 107.125 55.875 M107.125 55.875 C36.7821406785299 55.875, -33.5607186429402 55.875, -107.125 55.875 M107.125 55.875 C41.5427840364177 55.875, -24.0394319271646 55.875, -107.125 55.875 M-107.125 55.875 C-107.125 32.33001895870174, -107.125 8.785037917403479, -107.125 -55.875 M-107.125 55.875 C-107.125 28.747442338928686, -107.125 1.619884677857371, -107.125 -55.875" stroke="#ccc" stroke-width="1.3" fill="none" stroke-dasharray="0 0"></path></g><g style="" class="row-rect-odd"><path d="M-107.125 -18.625 L107.125 -18.625 L107.125 18.625 L-107.125 18.625" stroke="none" stroke-width="0" fill="hsl(180, 1.5873015873%, 17.3529411765%)"></path><path d="M-107.125 -18.625 C-22.205894241002895 -18.625, 62.71321151799421 -18.625, 107.125 -18.625 M-107.125 -18.625 C-27.14691606457319 -18.625, 52.83116787085362 -18.625, 107.125 -18.625 M107.125 -18.625 C107.125 -10.083124748806963, 107.125 -1.5412494976139257, 107.125 18.625 M107.125 -18.625 C107.125 -10.528854716261623, 107.125 -2.4327094325232466, 107.125 18.625 M107.125 18.625 C59.3240623973462 18.625, 11.523124794692393 18.625, -107.125 18.625 M107.125 18.625 C53.47745870780509 18.625, -0.17008258438981727 18.625, -107.125 18.625 M-107.125 18.625 C-107.125 10.849187223908944, -107.125 3.073374447817887, -107.125 -18.625 M-107.125 18.625 C-107.125 8.279056571052436, -107.125 -2.0668868578951276, -107.125 -18.625" stroke="#ccc" stroke-width="1.3" fill="none" stroke-dasharray="0 0"></path></g><g style="" class="row-rect-even"><path d="M-107.125 18.625 L107.125 18.625 L107.125 55.875 L-107.125 55.875" stroke="none" stroke-width="0" fill="hsl(180, 1.5873015873%, 2.3529411765%)"></path><path d="M-107.125 18.625 C-40.366377737778706 18.625, 26.39224452444259 18.625, 107.125 18.625 M-107.125 18.625 C-31.939065141040516 18.625, 43.24686971791897 18.625, 107.125 18.625 M107.125 18.625 C107.125 30.05898981039178, 107.125 41.49297962078356, 107.125 55.875 M107.125 18.625 C107.125 33.48665631059534, 107.125 48.348312621190686, 107.125 55.875 M107.125 55.875 C54.24535536191546 55.875, 1.3657107238309152 55.875, -107.125 55.875 M107.125 55.875 C28.875202566009563 55.875, -49.374594867980875 55.875, -107.125 55.875 M-107.125 55.875 C-107.125 48.11127932279648, -107.125 40.34755864559296, -107.125 18.625 M-107.125 55.875 C-107.125 41.738576931314164, -107.125 27.602153862628324, -107.125 18.625" stroke="#ccc" stroke-width="1.3" fill="none" stroke-dasharray="0 0"></path></g><g class="label name" transform="translate(-52.30859375, -46.5)" style=""><g><rect class="background" style="stroke: none"></rect></g><text y="-10.1" style=""><tspan class="text-outer-tspan" x="0" y="-0.1em" dy="1.1em"><tspan font-style="normal" class="text-inner-tspan" font-weight="normal">HUB_CONSENT</tspan></tspan></text></g><g class="label attribute-type" transform="translate(-94.625, -9.25)" style=""><g><rect class="background" style="stroke: none"></rect></g><text y="-10.1" style=""><tspan class="text-outer-tspan" x="0" y="-0.1em" dy="1.1em"><tspan font-style="normal" class="text-inner-tspan" font-weight="normal">string</tspan></tspan></text></g><g class="label attribute-name" transform="translate(-29.25, -9.25)" style=""><g><rect class="background" style="stroke: none"></rect></g><text y="-10.1" style=""><tspan class="text-outer-tspan" x="0" y="-0.1em" dy="1.1em"><tspan font-style="normal" class="text-inner-tspan" font-weight="normal">consent_hk</tspan></tspan></text></g><g class="label attribute-keys" transform="translate(76.4921875, -9.25)" style=""><g><rect class="background" style="stroke: none"></rect></g><text y="-10.1" style=""><tspan class="text-outer-tspan" x="0" y="-0.1em" dy="1.1em"><tspan font-style="normal" class="text-inner-tspan" font-weight="normal">PK</tspan></tspan></text></g><g class="label attribute-comment" transform="translate(119.625, -9.25)" style=""><g><rect class="background" style="stroke: none"></rect></g><text y="-10.1" style=""><tspan class="text-outer-tspan" x="0" y="-0.1em" dy="1.1em"></tspan></text></g><g class="label attribute-type" transform="translate(-94.625, 28)" style=""><g><rect class="background" style="stroke: none"></rect></g><text y="-10.1" style=""><tspan class="text-outer-tspan" x="0" y="-0.1em" dy="1.1em"><tspan font-style="normal" class="text-inner-tspan" font-weight="normal">string</tspan></tspan></text></g><g class="label attribute-name" transform="translate(-29.25, 28)" style=""><g><rect class="background" style="stroke: none"></rect></g><text y="-10.1" style=""><tspan class="text-outer-tspan" x="0" y="-0.1em" dy="1.1em"><tspan font-style="normal" class="text-inner-tspan" font-weight="normal">consent_id</tspan></tspan></text></g><g class="label attribute-keys" transform="translate(76.4921875, 28)" style=""><g><rect class="background" style="stroke: none"></rect></g><text y="-10.1" style=""><tspan class="text-outer-tspan" x="0" y="-0.1em" dy="1.1em"></tspan></text></g><g class="label attribute-comment" transform="translate(119.625, 28)" style=""><g><rect class="background" style="stroke: none"></rect></g><text y="-10.1" style=""><tspan class="text-outer-tspan" x="0" y="-0.1em" dy="1.1em"></tspan></text></g><g class="divider"><path d="M-107.125 -18.625 C-23.737421393177797 -18.625, 59.650157213644405 -18.625, 107.125 -18.625 M-107.125 -18.625 C-24.37575283003673 -18.625, 58.37349433992654 -18.625, 107.125 -18.625" stroke="#ccc" stroke-width="1.3" fill="none" stroke-dasharray="0 0"></path></g><g class="divider"><path d="M-41.75 -18.625 C-41.75 -2.361872175270996, -41.75 13.901255649458008, -41.75 55.875 M-41.75 -18.625 C-41.75 9.374129936198727, -41.75 37.373259872397455, -41.75 55.875" stroke="#ccc" stroke-width="1.3" fill="none" stroke-dasharray="0 0"></path></g><g class="divider"><path d="M63.9921875 -18.625 C63.9921875 3.7206290346959463, 63.9921875 26.066258069391893, 63.9921875 55.875 M63.9921875 -18.625 C63.9921875 -3.132427167086554, 63.9921875 12.360145665826892, 63.9921875 55.875" stroke="#ccc" stroke-width="1.3" fill="none" stroke-dasharray="0 0"></path></g><g class="divider"><path d="M-107.125 -18.625 C-63.86963308507111 -18.625, -20.614266170142216 -18.625, 107.125 -18.625 M-107.125 -18.625 C-49.98033481163495 -18.625, 7.164330376730106 -18.625, 107.125 -18.625" stroke="#ccc" stroke-width="1.3" fill="none" stroke-dasharray="0 0"></path></g></g><g class="node default" id="entity-HUB_FEEDBACK-15" transform="translate(1027.46484375, 63.875)"><g style=""><path d="M-112.15234375 -55.875 L112.15234375 -55.875 L112.15234375 55.875 L-112.15234375 55.875" stroke="none" stroke-width="0" fill="#1f2020"></path><path d="M-112.15234375 -55.875 C-47.06635304744272 -55.875, 18.019637655114565 -55.875, 112.15234375 -55.875 M-112.15234375 -55.875 C-31.661746328657287 -55.875, 48.828851092685426 -55.875, 112.15234375 -55.875 M112.15234375 -55.875 C112.15234375 -12.242131835298288, 112.15234375 31.390736329403424, 112.15234375 55.875 M112.15234375 -55.875 C112.15234375 -21.099255475487418, 112.15234375 13.676489049025164, 112.15234375 55.875 M112.15234375 55.875 C54.34829060204053 55.875, -3.455762545918944 55.875, -112.15234375 55.875 M112.15234375 55.875 C64.52820440478582 55.875, 16.90406505957165 55.875, -112.15234375 55.875 M-112.15234375 55.875 C-112.15234375 17.055944873003213, -112.15234375 -21.763110253993574, -112.15234375 -55.875 M-112.15234375 55.875 C-112.15234375 26.049765799054654, -112.15234375 -3.7754684018906914, -112.15234375 -55.875" stroke="#ccc" stroke-width="1.3" fill="none" stroke-dasharray="0 0"></path></g><g style="" class="row-rect-odd"><path d="M-112.15234375 -18.625 L112.15234375 -18.625 L112.15234375 18.625 L-112.15234375 18.625" stroke="none" stroke-width="0" fill="hsl(180, 1.5873015873%, 17.3529411765%)"></path><path d="M-112.15234375 -18.625 C-24.672341633258753 -18.625, 62.80766048348249 -18.625, 112.15234375 -18.625 M-112.15234375 -18.625 C-57.129734906000586 -18.625, -2.1071260620011714 -18.625, 112.15234375 -18.625 M112.15234375 -18.625 C112.15234375 -6.621300183680278, 112.15234375 5.382399632639444, 112.15234375 18.625 M112.15234375 -18.625 C112.15234375 -10.069484211662573, 112.15234375 -1.5139684233251458, 112.15234375 18.625 M112.15234375 18.625 C26.13884046319079 18.625, -59.87466282361842 18.625, -112.15234375 18.625 M112.15234375 18.625 C32.268673519959876 18.625, -47.61499671008025 18.625, -112.15234375 18.625 M-112.15234375 18.625 C-112.15234375 7.148671862347088, -112.15234375 -4.327656275305824, -112.15234375 -18.625 M-112.15234375 18.625 C-112.15234375 8.218364272795379, -112.15234375 -2.188271454409243, -112.15234375 -18.625" stroke="#ccc" stroke-width="1.3" fill="none" stroke-dasharray="0 0"></path></g><g style="" class="row-rect-even"><path d="M-112.15234375 18.625 L112.15234375 18.625 L112.15234375 55.875 L-112.15234375 55.875" stroke="none" stroke-width="0" fill="hsl(180, 1.5873015873%, 2.3529411765%)"></path><path d="M-112.15234375 18.625 C-52.84467582732568 18.625, 6.462992095348639 18.625, 112.15234375 18.625 M-112.15234375 18.625 C-63.87862098028803 18.625, -15.604898210576053 18.625, 112.15234375 18.625 M112.15234375 18.625 C112.15234375 28.527191305452746, 112.15234375 38.42938261090549, 112.15234375 55.875 M112.15234375 18.625 C112.15234375 33.447112892087674, 112.15234375 48.26922578417535, 112.15234375 55.875 M112.15234375 55.875 C39.336846277828315 55.875, -33.47865119434337 55.875, -112.15234375 55.875 M112.15234375 55.875 C40.4691395852051 55.875, -31.214064579589802 55.875, -112.15234375 55.875 M-112.15234375 55.875 C-112.15234375 43.36351992119923, -112.15234375 30.852039842398458, -112.15234375 18.625 M-112.15234375 55.875 C-112.15234375 44.568442446726195, -112.15234375 33.2618848934524, -112.15234375 18.625" stroke="#ccc" stroke-width="1.3" fill="none" stroke-dasharray="0 0"></path></g><g class="label name" transform="translate(-55.45703125, -46.5)" style=""><g><rect class="background" style="stroke: none"></rect></g><text y="-10.1" style=""><tspan class="text-outer-tspan" x="0" y="-0.1em" dy="1.1em"><tspan font-style="normal" class="text-inner-tspan" font-weight="normal">HUB_FEEDBACK</tspan></tspan></text></g><g class="label attribute-type" transform="translate(-99.65234375, -9.25)" style=""><g><rect class="background" style="stroke: none"></rect></g><text y="-10.1" style=""><tspan class="text-outer-tspan" x="0" y="-0.1em" dy="1.1em"><tspan font-style="normal" class="text-inner-tspan" font-weight="normal">string</tspan></tspan></text></g><g class="label attribute-name" transform="translate(-34.27734375, -9.25)" style=""><g><rect class="background" style="stroke: none"></rect></g><text y="-10.1" style=""><tspan class="text-outer-tspan" x="0" y="-0.1em" dy="1.1em"><tspan font-style="normal" class="text-inner-tspan" font-weight="normal">feedback_hk</tspan></tspan></text></g><g class="label attribute-keys" transform="translate(81.51953125, -9.25)" style=""><g><rect class="background" style="stroke: none"></rect></g><text y="-10.1" style=""><tspan class="text-outer-tspan" x="0" y="-0.1em" dy="1.1em"><tspan font-style="normal" class="text-inner-tspan" font-weight="normal">PK</tspan></tspan></text></g><g class="label attribute-comment" transform="translate(124.65234375, -9.25)" style=""><g><rect class="background" style="stroke: none"></rect></g><text y="-10.1" style=""><tspan class="text-outer-tspan" x="0" y="-0.1em" dy="1.1em"></tspan></text></g><g class="label attribute-type" transform="translate(-99.65234375, 28)" style=""><g><rect class="background" style="stroke: none"></rect></g><text y="-10.1" style=""><tspan class="text-outer-tspan" x="0" y="-0.1em" dy="1.1em"><tspan font-style="normal" class="text-inner-tspan" font-weight="normal">string</tspan></tspan></text></g><g class="label attribute-name" transform="translate(-34.27734375, 28)" style=""><g><rect class="background" style="stroke: none"></rect></g><text y="-10.1" style=""><tspan class="text-outer-tspan" x="0" y="-0.1em" dy="1.1em"><tspan font-style="normal" class="text-inner-tspan" font-weight="normal">feedback_id</tspan></tspan></text></g><g class="label attribute-keys" transform="translate(81.51953125, 28)" style=""><g><rect class="background" style="stroke: none"></rect></g><text y="-10.1" style=""><tspan class="text-outer-tspan" x="0" y="-0.1em" dy="1.1em"></tspan></text></g><g class="label attribute-comment" transform="translate(124.65234375, 28)" style=""><g><rect class="background" style="stroke: none"></rect></g><text y="-10.1" style=""><tspan class="text-outer-tspan" x="0" y="-0.1em" dy="1.1em"></tspan></text></g><g class="divider"><path d="M-112.15234375 -18.625 C-35.03911945857098 -18.625, 42.07410483285804 -18.625, 112.15234375 -18.625 M-112.15234375 -18.625 C-64.6491982076676 -18.625, -17.14605266533519 -18.625, 112.15234375 -18.625" stroke="#ccc" stroke-width="1.3" fill="none" stroke-dasharray="0 0"></path></g><g class="divider"><path d="M-46.77734375 -18.625 C-46.77734375 7.116068058492488, -46.77734375 32.857136116984975, -46.77734375 55.875 M-46.77734375 -18.625 C-46.77734375 3.6594583619389027, -46.77734375 25.943916723877805, -46.77734375 55.875" stroke="#ccc" stroke-width="1.3" fill="none" stroke-dasharray="0 0"></path></g><g class="divider"><path d="M69.01953125 -18.625 C69.01953125 0.07393726359166308, 69.01953125 18.772874527183326, 69.01953125 55.875 M69.01953125 -18.625 C69.01953125 1.0190444156992626, 69.01953125 20.663088831398525, 69.01953125 55.875" stroke="#ccc" stroke-width="1.3" fill="none" stroke-dasharray="0 0"></path></g><g class="divider"><path d="M-112.15234375 -18.625 C-28.730141654399873 -18.625, 54.692060441200255 -18.625, 112.15234375 -18.625 M-112.15234375 -18.625 C-26.746998960817706 -18.625, 58.65834582836459 -18.625, 112.15234375 -18.625" stroke="#ccc" stroke-width="1.3" fill="none" stroke-dasharray="0 0"></path></g></g><g class="node default" id="entity-LINK_FEEDBACK_CUSTOMER-16" transform="translate(555.189453125, 239)"><rect class="basic label-container" style="" x="-118.72265625" y="-39.25" width="237.4453125" height="78.5"></rect><g class="label" style="" transform="translate(0, -9.25)"><rect></rect><g><rect class="background" style="stroke: none"></rect><text y="-10.1" style="" transform="translate(-98.72265625, 0)"><tspan class="text-outer-tspan" x="0" y="-0.1em" dy="1.1em"><tspan font-style="normal" class="text-inner-tspan" font-weight="normal">LINK_FEEDBACK_CUSTOMER</tspan></tspan></text></g></g></g><g class="node default" id="entity-LINK_FEEDBACK_BRANCH-17" transform="translate(1572.076171875, 239)"><rect class="basic label-container" style="" x="-109.71875" y="-39.25" width="219.4375" height="78.5"></rect><g class="label" style="" transform="translate(0, -9.25)"><rect></rect><g><rect class="background" style="stroke: none"></rect><text y="-10.1" style="" transform="translate(-89.71875, 0)"><tspan class="text-outer-tspan" x="0" y="-0.1em" dy="1.1em"><tspan font-style="normal" class="text-inner-tspan" font-weight="normal">LINK_FEEDBACK_BRANCH</tspan></tspan></text></g></g></g></g></g></g></svg>