<svg id="mermaid-_r_se_" width="2311.8359375" xmlns="http://www.w3.org/2000/svg" class="erDiagram" height="654.75" viewBox="0 0 2311.8359375 654.75" role="graphics-document document" aria-roledescription="er"><style>#mermaid-_r_se_{font-family:"trebuchet ms",verdana,arial,sans-serif;font-size:16px;fill:#ccc;}@keyframes edge-animation-frame{from{stroke-dashoffset:0;}}@keyframes dash{to{stroke-dashoffset:0;}}#mermaid-_r_se_ .edge-animation-slow{stroke-dasharray:9,5!important;stroke-dashoffset:900;animation:dash 50s linear infinite;stroke-linecap:round;}#mermaid-_r_se_ .edge-animation-fast{stroke-dasharray:9,5!important;stroke-dashoffset:900;animation:dash 20s linear infinite;stroke-linecap:round;}#mermaid-_r_se_ .error-icon{fill:#a44141;}#mermaid-_r_se_ .error-text{fill:#ddd;stroke:#ddd;}#mermaid-_r_se_ .edge-thickness-normal{stroke-width:1px;}#mermaid-_r_se_ .edge-thickness-thick{stroke-width:3.5px;}#mermaid-_r_se_ .edge-pattern-solid{stroke-dasharray:0;}#mermaid-_r_se_ .edge-thickness-invisible{stroke-width:0;fill:none;}#mermaid-_r_se_ .edge-pattern-dashed{stroke-dasharray:3;}#mermaid-_r_se_ .edge-pattern-dotted{stroke-dasharray:2;}#mermaid-_r_se_ .marker{fill:lightgrey;stroke:lightgrey;}#mermaid-_r_se_ .marker.cross{stroke:lightgrey;}#mermaid-_r_se_ svg{font-family:"trebuchet ms",verdana,arial,sans-serif;font-size:16px;}#mermaid-_r_se_ p{margin:0;}#mermaid-_r_se_ .entityBox{fill:#1f2020;stroke:#ccc;}#mermaid-_r_se_ .relationshipLabelBox{fill:hsl(20, 1.5873015873%, 12.3529411765%);opacity:0.7;background-color:hsl(20, 1.5873015873%, 12.3529411765%);}#mermaid-_r_se_ .relationshipLabelBox rect{opacity:0.5;}#mermaid-_r_se_ .labelBkg{background-color:rgba(32.0000000001, 31.3333333334, 31.0000000001, 0.5);}#mermaid-_r_se_ .edgeLabel .label{fill:#ccc;font-size:14px;}#mermaid-_r_se_ .label{font-family:"trebuchet ms",verdana,arial,sans-serif;color:#ccc;}#mermaid-_r_se_ .edge-pattern-dashed{stroke-dasharray:8,8;}#mermaid-_r_se_ .node rect,#mermaid-_r_se_ .node circle,#mermaid-_r_se_ .node ellipse,#mermaid-_r_se_ .node polygon{fill:#1f2020;stroke:#ccc;stroke-width:1px;}#mermaid-_r_se_ .relationshipLine{stroke:lightgrey;stroke-width:1;fill:none;}#mermaid-_r_se_ .marker{fill:none!important;stroke:lightgrey!important;stroke-width:1;}#mermaid-_r_se_ :root{--mermaid-font-family:"trebuchet ms",verdana,arial,sans-serif;}</style><g><defs><marker id="mermaid-_r_se__er-onlyOneStart" class="marker onlyOne er" refX="0" refY="9" markerWidth="18" markerHeight="18" orient="auto"><path d="M9,0 L9,18 M15,0 L15,18"></path></marker></defs><defs><marker id="mermaid-_r_se__er-onlyOneEnd" class="marker onlyOne er" refX="18" refY="9" markerWidth="18" markerHeight="18" orient="auto"><path d="M3,0 L3,18 M9,0 L9,18"></path></marker></defs><defs><marker id="mermaid-_r_se__er-zeroOrOneStart" class="marker zeroOrOne er" refX="0" refY="9" markerWidth="30" markerHeight="18" orient="auto"><circle fill="white" cx="21" cy="9" r="6"></circle><path d="M9,0 L9,18"></path></marker></defs><defs><marker id="mermaid-_r_se__er-zeroOrOneEnd" class="marker zeroOrOne er" refX="30" refY="9" markerWidth="30" markerHeight="18" orient="auto"><circle fill="white" cx="9" cy="9" r="6"></circle><path d="M21,0 L21,18"></path></marker></defs><defs><marker id="mermaid-_r_se__er-oneOrMoreStart" class="marker oneOrMore er" refX="18" refY="18" markerWidth="45" markerHeight="36" orient="auto"><path d="M0,18 Q 18,0 36,18 Q 18,36 0,18 M42,9 L42,27"></path></marker></defs><defs><marker id="mermaid-_r_se__er-oneOrMoreEnd" class="marker oneOrMore er" refX="27" refY="18" markerWidth="45" markerHeight="36" orient="auto"><path d="M3,9 L3,27 M9,18 Q27,0 45,18 Q27,36 9,18"></path></marker></defs><defs><marker id="mermaid-_r_se__er-zeroOrMoreStart" class="marker zeroOrMore er" refX="18" refY="18" markerWidth="57" markerHeight="36" orient="auto"><circle fill="white" cx="48" cy="18" r="6"></circle><path d="M0,18 Q18,0 36,18 Q18,36 0,18"></path></marker></defs><defs><marker id="mermaid-_r_se__er-zeroOrMoreEnd" class="marker zeroOrMore er" refX="39" refY="18" markerWidth="57" markerHeight="36" orient="auto"><circle fill="white" cx="9" cy="18" r="6"></circle><path d="M21,18 Q39,0 57,18 Q39,36 21,18"></path></marker></defs><g class="root"><g class="clusters"></g><g class="edgePaths"><path d="M706.66,278.856L673.98,302.463C641.3,326.071,575.94,373.285,543.344,403.559C510.749,433.833,510.917,447.167,511.001,453.833L511.085,460.5" id="id_entity-FACT_FX_TRANSACTIONS-0_entity-DIM_CUSTOMER-1_0" class="edge-thickness-normal edge-pattern-solid relationshipLine" style="undefined;;;undefined" data-edge="true" data-et="edge" data-id="id_entity-FACT_FX_TRANSACTIONS-0_entity-DIM_CUSTOMER-1_0" data-points="W3sieCI6NzA2LjY2MDE1NjI1LCJ5IjoyNzguODU1ODM3NTI3MDQ4NjZ9LHsieCI6NTEwLjU4MDA3ODEyNSwieSI6NDIwLjV9LHsieCI6NTExLjA4NTM1OTgxNTE0MDg2LCJ5Ijo0NjAuNX1d" marker-start="url(#mermaid-_r_se__er-zeroOrMoreStart)" marker-end="url(#mermaid-_r_se__er-onlyOneEnd)"></path><path d="M706.66,372.476L701.4,380.48C696.141,388.484,685.621,404.492,607.511,430.062C529.401,455.632,383.701,490.764,310.85,508.33L238,525.896" id="id_entity-FACT_FX_TRANSACTIONS-0_entity-DIM_BRANCH-2_1" class="edge-thickness-normal edge-pattern-solid relationshipLine" style="undefined;;;undefined" data-edge="true" data-et="edge" data-id="id_entity-FACT_FX_TRANSACTIONS-0_entity-DIM_BRANCH-2_1" data-points="W3sieCI6NzA2LjY2MDE1NjI1LCJ5IjozNzIuNDc2NDEzNDgzMjY0MTR9LHsieCI6Njc1LjEwMTU2MjUsInkiOjQyMC41fSx7IngiOjIzOCwieSI6NTI1Ljg5NTcyNjkwOTk2MDZ9XQ==" marker-start="url(#mermaid-_r_se__er-zeroOrMoreStart)" marker-end="url(#mermaid-_r_se__er-onlyOneEnd)"></path><path d="M836.822,380.5L837.289,387.167C837.756,393.833,838.689,407.167,839.354,429.479C840.018,451.792,840.414,483.083,840.611,498.729L840.809,514.375" id="id_entity-FACT_FX_TRANSACTIONS-0_entity-DIM_DATE-3_2" class="edge-thickness-normal edge-pattern-solid relationshipLine" style="undefined;;;undefined" data-edge="true" data-et="edge" data-id="id_entity-FACT_FX_TRANSACTIONS-0_entity-DIM_DATE-3_2" data-points="W3sieCI6ODM2LjgyMjI4NzIwNjQ5MTgsInkiOjM4MC41fSx7IngiOjgzOS42MjMwNDY4NzUsInkiOjQyMC41fSx7IngiOjg0MC44MDg4Nzk4NDE1NDkyLCJ5Ijo1MTQuMzc1fV0=" marker-start="url(#mermaid-_r_se__er-zeroOrMoreStart)" marker-end="url(#mermaid-_r_se__er-onlyOneEnd)"></path><path d="M940.902,277.1L974.688,301C1008.475,324.9,1076.047,372.7,1110.963,409.475C1145.879,446.25,1148.138,472,1149.268,484.875L1150.398,497.75" id="id_entity-FACT_FX_TRANSACTIONS-0_entity-DIM_CURRENCY_FROM-4_3" class="edge-thickness-normal edge-pattern-solid relationshipLine" style="undefined;;;undefined" data-edge="true" data-et="edge" data-id="id_entity-FACT_FX_TRANSACTIONS-0_entity-DIM_CURRENCY_FROM-4_3" data-points="W3sieCI6OTQwLjkwMjM0Mzc1LCJ5IjoyNzcuMTAwMjQ0NTY5Njk3OH0seyJ4IjoxMTQzLjYxOTE0MDYyNSwieSI6NDIwLjV9LHsieCI6MTE1MC4zOTc3ODI3OTA0OTMsInkiOjQ5Ny43NX1d" marker-start="url(#mermaid-_r_se__er-zeroOrMoreStart)" marker-end="url(#mermaid-_r_se__er-onlyOneEnd)"></path><path d="M940.902,233.926L1032.694,265.022C1124.485,296.118,1308.068,358.309,1401.232,405.05C1494.396,451.792,1497.142,483.083,1498.515,498.729L1499.888,514.375" id="id_entity-FACT_FX_TRANSACTIONS-0_entity-DIM_CURRENCY_TO-5_4" class="edge-thickness-normal edge-pattern-solid relationshipLine" style="undefined;;;undefined" data-edge="true" data-et="edge" data-id="id_entity-FACT_FX_TRANSACTIONS-0_entity-DIM_CURRENCY_TO-5_4" data-points="W3sieCI6OTQwLjkwMjM0Mzc1LCJ5IjoyMzMuOTI2NDA2NDIzMTgwMDV9LHsieCI6MTQ5MS42NTAzOTA2MjUsInkiOjQyMC41fSx7IngiOjE0OTkuODg3ODY2Nzg0MDM3NywieSI6NTE0LjM3NX1d" marker-start="url(#mermaid-_r_se__er-zeroOrMoreStart)" marker-end="url(#mermaid-_r_se__er-onlyOneEnd)"></path><path d="M940.902,220.352L1090.584,253.71C1240.266,287.068,1539.63,353.784,1690.442,400.017C1841.254,446.25,1843.513,472,1844.643,484.875L1845.773,497.75" id="id_entity-FACT_FX_TRANSACTIONS-0_entity-DIM_CHANNEL-6_5" class="edge-thickness-normal edge-pattern-solid relationshipLine" style="undefined;;;undefined" data-edge="true" data-et="edge" data-id="id_entity-FACT_FX_TRANSACTIONS-0_entity-DIM_CHANNEL-6_5" data-points="W3sieCI6OTQwLjkwMjM0Mzc1LCJ5IjoyMjAuMzUxNTY3MTc0MzcyN30seyJ4IjoxODM4Ljk5NDE0MDYyNSwieSI6NDIwLjV9LHsieCI6MTg0NS43NzI3ODI3OTA0OTMsInkiOjQ5Ny43NX1d" marker-start="url(#mermaid-_r_se__er-zeroOrMoreStart)" marker-end="url(#mermaid-_r_se__er-onlyOneEnd)"></path><path d="M117.849,233.5L115.094,264.667C112.339,295.833,106.828,358.167,150.187,404.272C193.546,450.377,285.773,480.254,331.886,495.192L378,510.131" id="id_entity-FACT_FEEDBACK-7_entity-DIM_CUSTOMER-1_6" class="edge-thickness-normal edge-pattern-solid relationshipLine" style="undefined;;;undefined" data-edge="true" data-et="edge" data-id="id_entity-FACT_FEEDBACK-7_entity-DIM_CUSTOMER-1_6" data-points="W3sieCI6MTE3Ljg0ODc0NjExNTMzMTUsInkiOjIzMy41fSx7IngiOjEwMS4zMTgzNTkzNzUsInkiOjQyMC41fSx7IngiOjM3OCwieSI6NTEwLjEzMDk0OTI5NzMwMDl9XQ==" marker-start="url(#mermaid-_r_se__er-zeroOrMoreStart)" marker-end="url(#mermaid-_r_se__er-onlyOneEnd)"></path><path d="M121.318,233.5L121.318,264.667C121.318,295.833,121.318,358.167,121.403,396C121.487,433.833,121.655,447.167,121.739,453.833L121.824,460.5" id="id_entity-FACT_FEEDBACK-7_entity-DIM_BRANCH-2_7" class="edge-thickness-normal edge-pattern-solid relationshipLine" style="undefined;;;undefined" data-edge="true" data-et="edge" data-id="id_entity-FACT_FEEDBACK-7_entity-DIM_BRANCH-2_7" data-points="W3sieCI6MTIxLjMxODM1OTM3NSwieSI6MjMzLjV9LHsieCI6MTIxLjMxODM1OTM3NSwieSI6NDIwLjV9LHsieCI6MTIxLjgyMzY0MTA2NTE0MDg1LCJ5Ijo0NjAuNX1d" marker-start="url(#mermaid-_r_se__er-zeroOrMoreStart)" marker-end="url(#mermaid-_r_se__er-onlyOneEnd)"></path><path d="M155.083,233.5L181.894,264.667C208.705,295.833,262.327,358.167,367.567,409.207C472.807,460.248,629.665,499.996,708.094,519.87L786.523,539.743" id="id_entity-FACT_FEEDBACK-7_entity-DIM_DATE-3_8" class="edge-thickness-normal edge-pattern-solid relationshipLine" style="undefined;;;undefined" data-edge="true" data-et="edge" data-id="id_entity-FACT_FEEDBACK-7_entity-DIM_DATE-3_8" data-points="W3sieCI6MTU1LjA4MzA0OTg5NjQwODg1LCJ5IjoyMzMuNX0seyJ4IjozMTUuOTQ5MjE4NzUsInkiOjQyMC41fSx7IngiOjc4Ni41MjM0Mzc1LCJ5Ijo1MzkuNzQzNDM5MTUyMDYyM31d" marker-start="url(#mermaid-_r_se__er-zeroOrMoreStart)" marker-end="url(#mermaid-_r_se__er-onlyOneEnd)"></path><path d="M2142.53,233.5L2119.511,264.667C2096.492,295.833,2050.454,358.167,1801.12,409.524C1551.785,460.882,1099.154,501.264,872.839,521.456L646.523,541.647" id="id_entity-FACT_CUSTOMER_CONSENT-8_entity-DIM_CUSTOMER-1_9" class="edge-thickness-normal edge-pattern-solid relationshipLine" style="undefined;;;undefined" data-edge="true" data-et="edge" data-id="id_entity-FACT_CUSTOMER_CONSENT-8_entity-DIM_CUSTOMER-1_9" data-points="W3sieCI6MjE0Mi41MzAzMDI1NzI1MTQsInkiOjIzMy41fSx7IngiOjIwMDQuNDE2MDE1NjI1LCJ5Ijo0MjAuNX0seyJ4Ijo2NDYuNTIzNDM3NSwieSI6NTQxLjY0NjYxOTkxODI0NDN9XQ==" marker-start="url(#mermaid-_r_se__er-zeroOrMoreStart)" marker-end="url(#mermaid-_r_se__er-onlyOneEnd)"></path><path d="M2146,233.5L2125.736,264.667C2105.472,295.833,2064.944,358.167,1856.625,410.493C1648.306,462.82,1272.196,505.141,1084.141,526.301L896.086,547.461" id="id_entity-FACT_CUSTOMER_CONSENT-8_entity-DIM_DATE-3_10" class="edge-thickness-normal edge-pattern-solid relationshipLine" style="undefined;;;undefined" data-edge="true" data-et="edge" data-id="id_entity-FACT_CUSTOMER_CONSENT-8_entity-DIM_DATE-3_10" data-points="W3sieCI6MjE0NS45OTk5MTU4MzIxODI1LCJ5IjoyMzMuNX0seyJ4IjoyMDI0LjQxNjAxNTYyNSwieSI6NDIwLjV9LHsieCI6ODk2LjA4NTkzNzUsInkiOjU0Ny40NjA5NTI5Mzc5MTM2fV0=" marker-start="url(#mermaid-_r_se__er-zeroOrMoreStart)" marker-end="url(#mermaid-_r_se__er-onlyOneEnd)"></path><path d="M2178.459,233.5L2183.969,264.667C2189.479,295.833,2200.499,358.167,2206.009,404.979C2211.52,451.792,2211.52,483.083,2211.52,498.729L2211.52,514.375" id="id_entity-FACT_CUSTOMER_CONSENT-8_entity-DIM_CONSENT_TYPE-9_11" class="edge-thickness-normal edge-pattern-solid relationshipLine" style="undefined;;;undefined" data-edge="true" data-et="edge" data-id="id_entity-FACT_CUSTOMER_CONSENT-8_entity-DIM_CONSENT_TYPE-9_11" data-points="W3sieCI6MjE3OC40NTg3NTc3NjkzMzcsInkiOjIzMy41fSx7IngiOjIyMTEuNTE5NTMxMjUsInkiOjQyMC41fSx7IngiOjIyMTEuNTE5NTMxMjUsInkiOjUxNC4zNzV9XQ==" marker-start="url(#mermaid-_r_se__er-zeroOrMoreStart)" marker-end="url(#mermaid-_r_se__er-onlyOneEnd)"></path></g><g class="edgeLabels"><g><rect class="background" style="stroke: none"></rect></g><g><rect class="background" style="stroke: none"></rect></g><g><rect class="background" style="stroke: none"></rect></g><g><rect class="background" style="stroke: none"></rect></g><g><rect class="background" style="stroke: none"></rect></g><g><rect class="background" style="stroke: none"></rect></g><g><rect class="background" style="stroke: none"></rect></g><g><rect class="background" style="stroke: none"></rect></g><g><rect class="background" style="stroke: none"></rect></g><g><rect class="background" style="stroke: none"></rect></g><g><rect class="background" style="stroke: none"></rect></g><g><rect class="background" style="stroke: none"></rect></g><g class="edgeLabel"><g class="label" data-id="id_entity-FACT_FX_TRANSACTIONS-0_entity-DIM_CUSTOMER-1_0" transform="translate(0, 0)"><text y="-10.1"><tspan class="text-outer-tspan" x="0" y="-0.1em" dy="1.1em"></tspan></text></g></g><g class="edgeLabel"><g class="label" data-id="id_entity-FACT_FX_TRANSACTIONS-0_entity-DIM_BRANCH-2_1" transform="translate(0, 0)"><text y="-10.1"><tspan class="text-outer-tspan" x="0" y="-0.1em" dy="1.1em"></tspan></text></g></g><g class="edgeLabel"><g class="label" data-id="id_entity-FACT_FX_TRANSACTIONS-0_entity-DIM_DATE-3_2" transform="translate(0, 0)"><text y="-10.1"><tspan class="text-outer-tspan" x="0" y="-0.1em" dy="1.1em"></tspan></text></g></g><g class="edgeLabel"><g class="label" data-id="id_entity-FACT_FX_TRANSACTIONS-0_entity-DIM_CURRENCY_FROM-4_3" transform="translate(0, 0)"><text y="-10.1"><tspan class="text-outer-tspan" x="0" y="-0.1em" dy="1.1em"></tspan></text></g></g><g class="edgeLabel"><g class="label" data-id="id_entity-FACT_FX_TRANSACTIONS-0_entity-DIM_CURRENCY_TO-5_4" transform="translate(0, 0)"><text y="-10.1"><tspan class="text-outer-tspan" x="0" y="-0.1em" dy="1.1em"></tspan></text></g></g><g class="edgeLabel"><g class="label" data-id="id_entity-FACT_FX_TRANSACTIONS-0_entity-DIM_CHANNEL-6_5" transform="translate(0, 0)"><text y="-10.1"><tspan class="text-outer-tspan" x="0" y="-0.1em" dy="1.1em"></tspan></text></g></g><g class="edgeLabel"><g class="label" data-id="id_entity-FACT_FEEDBACK-7_entity-DIM_CUSTOMER-1_6" transform="translate(0, 0)"><text y="-10.1"><tspan class="text-outer-tspan" x="0" y="-0.1em" dy="1.1em"></tspan></text></g></g><g class="edgeLabel"><g class="label" data-id="id_entity-FACT_FEEDBACK-7_entity-DIM_BRANCH-2_7" transform="translate(0, 0)"><text y="-10.1"><tspan class="text-outer-tspan" x="0" y="-0.1em" dy="1.1em"></tspan></text></g></g><g class="edgeLabel"><g class="label" data-id="id_entity-FACT_FEEDBACK-7_entity-DIM_DATE-3_8" transform="translate(0, 0)"><text y="-10.1"><tspan class="text-outer-tspan" x="0" y="-0.1em" dy="1.1em"></tspan></text></g></g><g class="edgeLabel"><g class="label" data-id="id_entity-FACT_CUSTOMER_CONSENT-8_entity-DIM_CUSTOMER-1_9" transform="translate(0, 0)"><text y="-10.1"><tspan class="text-outer-tspan" x="0" y="-0.1em" dy="1.1em"></tspan></text></g></g><g class="edgeLabel"><g class="label" data-id="id_entity-FACT_CUSTOMER_CONSENT-8_entity-DIM_DATE-3_10" transform="translate(0, 0)"><text y="-10.1"><tspan class="text-outer-tspan" x="0" y="-0.1em" dy="1.1em"></tspan></text></g></g><g class="edgeLabel"><g class="label" data-id="id_entity-FACT_CUSTOMER_CONSENT-8_entity-DIM_CONSENT_TYPE-9_11" transform="translate(0, 0)"><text y="-10.1"><tspan class="text-outer-tspan" x="0" y="-0.1em" dy="1.1em"></tspan></text></g></g></g><g class="nodes"><g class="node default" id="entity-FACT_FX_TRANSACTIONS-0" transform="translate(823.78125, 194.25)"><g style=""><path d="M-117.12109375 -186.25 L117.12109375 -186.25 L117.12109375 186.25 L-117.12109375 186.25" stroke="none" stroke-width="0" fill="#1f2020"></path><path d="M-117.12109375 -186.25 C-25.229297142580776 -186.25, 66.66249946483845 -186.25, 117.12109375 -186.25 M-117.12109375 -186.25 C-28.951138206364675 -186.25, 59.21881733727065 -186.25, 117.12109375 -186.25 M117.12109375 -186.25 C117.12109375 -83.76838524382562, 117.12109375 18.71322951234876, 117.12109375 186.25 M117.12109375 -186.25 C117.12109375 -102.49168015896049, 117.12109375 -18.733360317920983, 117.12109375 186.25 M117.12109375 186.25 C53.99418105811522 186.25, -9.132731633769566 186.25, -117.12109375 186.25 M117.12109375 186.25 C24.078276784507864 186.25, -68.96454018098427 186.25, -117.12109375 186.25 M-117.12109375 186.25 C-117.12109375 103.15330206257546, -117.12109375 20.056604125150926, -117.12109375 -186.25 M-117.12109375 186.25 C-117.12109375 53.696376320449474, -117.12109375 -78.85724735910105, -117.12109375 -186.25" stroke="#ccc" stroke-width="1.3" fill="none" stroke-dasharray="0 0"></path></g><g style="" class="row-rect-odd"><path d="M-117.12109375 -149 L117.12109375 -149 L117.12109375 -111.75 L-117.12109375 -111.75" stroke="none" stroke-width="0" fill="hsl(180, 1.5873015873%, 17.3529411765%)"></path><path d="M-117.12109375 -149 C-47.539733200708866 -149, 22.041627348582267 -149, 117.12109375 -149 M-117.12109375 -149 C-58.487418187729745 -149, 0.1462573745405109 -149, 117.12109375 -149 M117.12109375 -149 C117.12109375 -137.34427497950455, 117.12109375 -125.68854995900908, 117.12109375 -111.75 M117.12109375 -149 C117.12109375 -134.66016785743116, 117.12109375 -120.3203357148623, 117.12109375 -111.75 M117.12109375 -111.75 C60.350659479842264 -111.75, 3.580225209684528 -111.75, -117.12109375 -111.75 M117.12109375 -111.75 C59.8790120031432 -111.75, 2.636930256286405 -111.75, -117.12109375 -111.75 M-117.12109375 -111.75 C-117.12109375 -119.96217658876483, -117.12109375 -128.17435317752967, -117.12109375 -149 M-117.12109375 -111.75 C-117.12109375 -125.517893265116, -117.12109375 -139.285786530232, -117.12109375 -149" stroke="#ccc" stroke-width="1.3" fill="none" stroke-dasharray="0 0"></path></g><g style="" class="row-rect-even"><path d="M-117.12109375 -111.75 L117.12109375 -111.75 L117.12109375 -74.5 L-117.12109375 -74.5" stroke="none" stroke-width="0" fill="hsl(180, 1.5873015873%, 2.3529411765%)"></path><path d="M-117.12109375 -111.75 C-35.362125460617506 -111.75, 46.39684282876499 -111.75, 117.12109375 -111.75 M-117.12109375 -111.75 C-45.575432043778775 -111.75, 25.97022966244245 -111.75, 117.12109375 -111.75 M117.12109375 -111.75 C117.12109375 -100.31288972890026, 117.12109375 -88.87577945780052, 117.12109375 -74.5 M117.12109375 -111.75 C117.12109375 -97.06625967114869, 117.12109375 -82.38251934229736, 117.12109375 -74.5 M117.12109375 -74.5 C67.78202416404983 -74.5, 18.442954578099645 -74.5, -117.12109375 -74.5 M117.12109375 -74.5 C57.853635973819124 -74.5, -1.4138218023617526 -74.5, -117.12109375 -74.5 M-117.12109375 -74.5 C-117.12109375 -88.41754598559803, -117.12109375 -102.33509197119604, -117.12109375 -111.75 M-117.12109375 -74.5 C-117.12109375 -87.40193875757195, -117.12109375 -100.3038775151439, -117.12109375 -111.75" stroke="#ccc" stroke-width="1.3" fill="none" stroke-dasharray="0 0"></path></g><g style="" class="row-rect-odd"><path d="M-117.12109375 -74.5 L117.12109375 -74.5 L117.12109375 -37.25 L-117.12109375 -37.25" stroke="none" stroke-width="0" fill="hsl(180, 1.5873015873%, 17.3529411765%)"></path><path d="M-117.12109375 -74.5 C-32.809884407333314 -74.5, 51.50132493533337 -74.5, 117.12109375 -74.5 M-117.12109375 -74.5 C-46.716874051291455 -74.5, 23.68734564741709 -74.5, 117.12109375 -74.5 M117.12109375 -74.5 C117.12109375 -61.5237333866867, 117.12109375 -48.5474667733734, 117.12109375 -37.25 M117.12109375 -74.5 C117.12109375 -60.1006473243257, 117.12109375 -45.7012946486514, 117.12109375 -37.25 M117.12109375 -37.25 C50.20687039964599 -37.25, -16.707352950708014 -37.25, -117.12109375 -37.25 M117.12109375 -37.25 C46.2133274777369 -37.25, -24.694438794526206 -37.25, -117.12109375 -37.25 M-117.12109375 -37.25 C-117.12109375 -50.79912116984582, -117.12109375 -64.34824233969164, -117.12109375 -74.5 M-117.12109375 -37.25 C-117.12109375 -45.83422642301567, -117.12109375 -54.41845284603134, -117.12109375 -74.5" stroke="#ccc" stroke-width="1.3" fill="none" stroke-dasharray="0 0"></path></g><g style="" class="row-rect-even"><path d="M-117.12109375 -37.25 L117.12109375 -37.25 L117.12109375 0 L-117.12109375 0" stroke="none" stroke-width="0" fill="hsl(180, 1.5873015873%, 2.3529411765%)"></path><path d="M-117.12109375 -37.25 C-65.22131857385632 -37.25, -13.321543397712645 -37.25, 117.12109375 -37.25 M-117.12109375 -37.25 C-39.06540381775956 -37.25, 38.99028611448088 -37.25, 117.12109375 -37.25 M117.12109375 -37.25 C117.12109375 -27.89361132921484, 117.12109375 -18.537222658429677, 117.12109375 0 M117.12109375 -37.25 C117.12109375 -29.518024741039564, 117.12109375 -21.78604948207913, 117.12109375 0 M117.12109375 0 C25.287253443704742 0, -66.54658686259052 0, -117.12109375 0 M117.12109375 0 C62.58121563264158 0, 8.04133751528316 0, -117.12109375 0 M-117.12109375 0 C-117.12109375 -10.318238676524219, -117.12109375 -20.636477353048438, -117.12109375 -37.25 M-117.12109375 0 C-117.12109375 -13.480710141947553, -117.12109375 -26.961420283895105, -117.12109375 -37.25" stroke="#ccc" stroke-width="1.3" fill="none" stroke-dasharray="0 0"></path></g><g style="" class="row-rect-odd"><path d="M-117.12109375 0 L117.12109375 0 L117.12109375 37.25 L-117.12109375 37.25" stroke="none" stroke-width="0" fill="hsl(180, 1.5873015873%, 17.3529411765%)"></path><path d="M-117.12109375 0 C-47.50249751120951 0, 22.116098727580976 0, 117.12109375 0 M-117.12109375 0 C-45.19852411326464 0, 26.72404552347072 0, 117.12109375 0 M117.12109375 0 C117.12109375 13.508480744338415, 117.12109375 27.01696148867683, 117.12109375 37.25 M117.12109375 0 C117.12109375 12.064989395362423, 117.12109375 24.129978790724845, 117.12109375 37.25 M117.12109375 37.25 C51.61802876270811 37.25, -13.885036224583786 37.25, -117.12109375 37.25 M117.12109375 37.25 C48.94926143101344 37.25, -19.22257088797312 37.25, -117.12109375 37.25 M-117.12109375 37.25 C-117.12109375 29.79184029828375, -117.12109375 22.333680596567497, -117.12109375 0 M-117.12109375 37.25 C-117.12109375 29.796949759635638, -117.12109375 22.34389951927127, -117.12109375 0" stroke="#ccc" stroke-width="1.3" fill="none" stroke-dasharray="0 0"></path></g><g style="" class="row-rect-even"><path d="M-117.12109375 37.25 L117.12109375 37.25 L117.12109375 74.5 L-117.12109375 74.5" stroke="none" stroke-width="0" fill="hsl(180, 1.5873015873%, 2.3529411765%)"></path><path d="M-117.12109375 37.25 C-25.395252158200634 37.25, 66.33058943359873 37.25, 117.12109375 37.25 M-117.12109375 37.25 C-46.42251163615016 37.25, 24.276070477699676 37.25, 117.12109375 37.25 M117.12109375 37.25 C117.12109375 48.44698224488475, 117.12109375 59.64396448976951, 117.12109375 74.5 M117.12109375 37.25 C117.12109375 46.568266030666166, 117.12109375 55.886532061332325, 117.12109375 74.5 M117.12109375 74.5 C34.226719417185336 74.5, -48.66765491562933 74.5, -117.12109375 74.5 M117.12109375 74.5 C26.8573216443788 74.5, -63.4064504612424 74.5, -117.12109375 74.5 M-117.12109375 74.5 C-117.12109375 64.10333297865408, -117.12109375 53.706665957308175, -117.12109375 37.25 M-117.12109375 74.5 C-117.12109375 61.362174098489604, -117.12109375 48.22434819697921, -117.12109375 37.25" stroke="#ccc" stroke-width="1.3" fill="none" stroke-dasharray="0 0"></path></g><g style="" class="row-rect-odd"><path d="M-117.12109375 74.5 L117.12109375 74.5 L117.12109375 111.75 L-117.12109375 111.75" stroke="none" stroke-width="0" fill="hsl(180, 1.5873015873%, 17.3529411765%)"></path><path d="M-117.12109375 74.5 C-43.334370807881115 74.5, 30.45235213423777 74.5, 117.12109375 74.5 M-117.12109375 74.5 C-66.28215756564961 74.5, -15.443221381299225 74.5, 117.12109375 74.5 M117.12109375 74.5 C117.12109375 82.40227692359795, 117.12109375 90.3045538471959, 117.12109375 111.75 M117.12109375 74.5 C117.12109375 86.49821569408951, 117.12109375 98.49643138817902, 117.12109375 111.75 M117.12109375 111.75 C34.07543869890779 111.75, -48.97021635218442 111.75, -117.12109375 111.75 M117.12109375 111.75 C63.120336414539565 111.75, 9.11957907907913 111.75, -117.12109375 111.75 M-117.12109375 111.75 C-117.12109375 103.62092103842535, -117.12109375 95.4918420768507, -117.12109375 74.5 M-117.12109375 111.75 C-117.12109375 102.0911411570159, -117.12109375 92.43228231403181, -117.12109375 74.5" stroke="#ccc" stroke-width="1.3" fill="none" stroke-dasharray="0 0"></path></g><g style="" class="row-rect-even"><path d="M-117.12109375 111.75 L117.12109375 111.75 L117.12109375 149 L-117.12109375 149" stroke="none" stroke-width="0" fill="hsl(180, 1.5873015873%, 2.3529411765%)"></path><path d="M-117.12109375 111.75 C-25.785207151251967 111.75, 65.55067944749607 111.75, 117.12109375 111.75 M-117.12109375 111.75 C-61.69231010669592 111.75, -6.263526463391841 111.75, 117.12109375 111.75 M117.12109375 111.75 C117.12109375 125.24609430814458, 117.12109375 138.74218861628916, 117.12109375 149 M117.12109375 111.75 C117.12109375 123.27394523009288, 117.12109375 134.79789046018576, 117.12109375 149 M117.12109375 149 C55.22739728473004 149, -6.666299180539923 149, -117.12109375 149 M117.12109375 149 C43.20047555016217 149, -30.720142649675665 149, -117.12109375 149 M-117.12109375 149 C-117.12109375 135.04062551690896, -117.12109375 121.08125103381789, -117.12109375 111.75 M-117.12109375 149 C-117.12109375 140.8957776194856, -117.12109375 132.79155523897123, -117.12109375 111.75" stroke="#ccc" stroke-width="1.3" fill="none" stroke-dasharray="0 0"></path></g><g style="" class="row-rect-odd"><path d="M-117.12109375 149 L117.12109375 149 L117.12109375 186.25 L-117.12109375 186.25" stroke="none" stroke-width="0" fill="hsl(180, 1.5873015873%, 17.3529411765%)"></path><path d="M-117.12109375 149 C-25.203916322106778 149, 66.71326110578644 149, 117.12109375 149 M-117.12109375 149 C-52.353995175695246 149, 12.413103398609508 149, 117.12109375 149 M117.12109375 149 C117.12109375 160.08840723239624, 117.12109375 171.17681446479247, 117.12109375 186.25 M117.12109375 149 C117.12109375 163.27119239412426, 117.12109375 177.5423847882485, 117.12109375 186.25 M117.12109375 186.25 C33.15069521073805 186.25, -50.8197033285239 186.25, -117.12109375 186.25 M117.12109375 186.25 C49.13795535664869 186.25, -18.845183036702622 186.25, -117.12109375 186.25 M-117.12109375 186.25 C-117.12109375 174.441756452636, -117.12109375 162.63351290527203, -117.12109375 149 M-117.12109375 186.25 C-117.12109375 175.0239355254129, -117.12109375 163.7978710508258, -117.12109375 149" stroke="#ccc" stroke-width="1.3" fill="none" stroke-dasharray="0 0"></path></g><g class="label name" transform="translate(-88.234375, -176.875)" style=""><g><rect class="background" style="stroke: none"></rect></g><text y="-10.1" style=""><tspan class="text-outer-tspan" x="0" y="-0.1em" dy="1.1em"><tspan font-style="normal" class="text-inner-tspan" font-weight="normal">FACT_FX_TRANSACTIONS</tspan></tspan></text></g><g class="label attribute-type" transform="translate(-104.62109375, -139.625)" style=""><g><rect class="background" style="stroke: none"></rect></g><text y="-10.1" style=""><tspan class="text-outer-tspan" x="0" y="-0.1em" dy="1.1em"><tspan font-style="normal" class="text-inner-tspan" font-weight="normal">int</tspan></tspan></text></g><g class="label attribute-name" transform="translate(-23.08984375, -139.625)" style=""><g><rect class="background" style="stroke: none"></rect></g><text y="-10.1" style=""><tspan class="text-outer-tspan" x="0" y="-0.1em" dy="1.1em"><tspan font-style="normal" class="text-inner-tspan" font-weight="normal">date_sk</tspan></tspan></text></g><g class="label attribute-keys" transform="translate(129.62109375, -139.625)" style=""><g><rect class="background" style="stroke: none"></rect></g><text y="-10.1" style=""><tspan class="text-outer-tspan" x="0" y="-0.1em" dy="1.1em"></tspan></text></g><g class="label attribute-comment" transform="translate(129.62109375, -139.625)" style=""><g><rect class="background" style="stroke: none"></rect></g><text y="-10.1" style=""><tspan class="text-outer-tspan" x="0" y="-0.1em" dy="1.1em"></tspan></text></g><g class="label attribute-type" transform="translate(-104.62109375, -102.375)" style=""><g><rect class="background" style="stroke: none"></rect></g><text y="-10.1" style=""><tspan class="text-outer-tspan" x="0" y="-0.1em" dy="1.1em"><tspan font-style="normal" class="text-inner-tspan" font-weight="normal">int</tspan></tspan></text></g><g class="label attribute-name" transform="translate(-23.08984375, -102.375)" style=""><g><rect class="background" style="stroke: none"></rect></g><text y="-10.1" style=""><tspan class="text-outer-tspan" x="0" y="-0.1em" dy="1.1em"><tspan font-style="normal" class="text-inner-tspan" font-weight="normal">customer_sk</tspan></tspan></text></g><g class="label attribute-keys" transform="translate(129.62109375, -102.375)" style=""><g><rect class="background" style="stroke: none"></rect></g><text y="-10.1" style=""><tspan class="text-outer-tspan" x="0" y="-0.1em" dy="1.1em"></tspan></text></g><g class="label attribute-comment" transform="translate(129.62109375, -102.375)" style=""><g><rect class="background" style="stroke: none"></rect></g><text y="-10.1" style=""><tspan class="text-outer-tspan" x="0" y="-0.1em" dy="1.1em"></tspan></text></g><g class="label attribute-type" transform="translate(-104.62109375, -65.125)" style=""><g><rect class="background" style="stroke: none"></rect></g><text y="-10.1" style=""><tspan class="text-outer-tspan" x="0" y="-0.1em" dy="1.1em"><tspan font-style="normal" class="text-inner-tspan" font-weight="normal">int</tspan></tspan></text></g><g class="label attribute-name" transform="translate(-23.08984375, -65.125)" style=""><g><rect class="background" style="stroke: none"></rect></g><text y="-10.1" style=""><tspan class="text-outer-tspan" x="0" y="-0.1em" dy="1.1em"><tspan font-style="normal" class="text-inner-tspan" font-weight="normal">branch_sk</tspan></tspan></text></g><g class="label attribute-keys" transform="translate(129.62109375, -65.125)" style=""><g><rect class="background" style="stroke: none"></rect></g><text y="-10.1" style=""><tspan class="text-outer-tspan" x="0" y="-0.1em" dy="1.1em"></tspan></text></g><g class="label attribute-comment" transform="translate(129.62109375, -65.125)" style=""><g><rect class="background" style="stroke: none"></rect></g><text y="-10.1" style=""><tspan class="text-outer-tspan" x="0" y="-0.1em" dy="1.1em"></tspan></text></g><g class="label attribute-type" transform="translate(-104.62109375, -27.875)" style=""><g><rect class="background" style="stroke: none"></rect></g><text y="-10.1" style=""><tspan class="text-outer-tspan" x="0" y="-0.1em" dy="1.1em"><tspan font-style="normal" class="text-inner-tspan" font-weight="normal">int</tspan></tspan></text></g><g class="label attribute-name" transform="translate(-23.08984375, -27.875)" style=""><g><rect class="background" style="stroke: none"></rect></g><text y="-10.1" style=""><tspan class="text-outer-tspan" x="0" y="-0.1em" dy="1.1em"><tspan font-style="normal" class="text-inner-tspan" font-weight="normal">from_currency_sk</tspan></tspan></text></g><g class="label attribute-keys" transform="translate(129.62109375, -27.875)" style=""><g><rect class="background" style="stroke: none"></rect></g><text y="-10.1" style=""><tspan class="text-outer-tspan" x="0" y="-0.1em" dy="1.1em"></tspan></text></g><g class="label attribute-comment" transform="translate(129.62109375, -27.875)" style=""><g><rect class="background" style="stroke: none"></rect></g><text y="-10.1" style=""><tspan class="text-outer-tspan" x="0" y="-0.1em" dy="1.1em"></tspan></text></g><g class="label attribute-type" transform="translate(-104.62109375, 9.375)" style=""><g><rect class="background" style="stroke: none"></rect></g><text y="-10.1" style=""><tspan class="text-outer-tspan" x="0" y="-0.1em" dy="1.1em"><tspan font-style="normal" class="text-inner-tspan" font-weight="normal">int</tspan></tspan></text></g><g class="label attribute-name" transform="translate(-23.08984375, 9.375)" style=""><g><rect class="background" style="stroke: none"></rect></g><text y="-10.1" style=""><tspan class="text-outer-tspan" x="0" y="-0.1em" dy="1.1em"><tspan font-style="normal" class="text-inner-tspan" font-weight="normal">to_currency_sk</tspan></tspan></text></g><g class="label attribute-keys" transform="translate(129.62109375, 9.375)" style=""><g><rect class="background" style="stroke: none"></rect></g><text y="-10.1" style=""><tspan class="text-outer-tspan" x="0" y="-0.1em" dy="1.1em"></tspan></text></g><g class="label attribute-comment" transform="translate(129.62109375, 9.375)" style=""><g><rect class="background" style="stroke: none"></rect></g><text y="-10.1" style=""><tspan class="text-outer-tspan" x="0" y="-0.1em" dy="1.1em"></tspan></text></g><g class="label attribute-type" transform="translate(-104.62109375, 46.625)" style=""><g><rect class="background" style="stroke: none"></rect></g><text y="-10.1" style=""><tspan class="text-outer-tspan" x="0" y="-0.1em" dy="1.1em"><tspan font-style="normal" class="text-inner-tspan" font-weight="normal">int</tspan></tspan></text></g><g class="label attribute-name" transform="translate(-23.08984375, 46.625)" style=""><g><rect class="background" style="stroke: none"></rect></g><text y="-10.1" style=""><tspan class="text-outer-tspan" x="0" y="-0.1em" dy="1.1em"><tspan font-style="normal" class="text-inner-tspan" font-weight="normal">channel_sk</tspan></tspan></text></g><g class="label attribute-keys" transform="translate(129.62109375, 46.625)" style=""><g><rect class="background" style="stroke: none"></rect></g><text y="-10.1" style=""><tspan class="text-outer-tspan" x="0" y="-0.1em" dy="1.1em"></tspan></text></g><g class="label attribute-comment" transform="translate(129.62109375, 46.625)" style=""><g><rect class="background" style="stroke: none"></rect></g><text y="-10.1" style=""><tspan class="text-outer-tspan" x="0" y="-0.1em" dy="1.1em"></tspan></text></g><g class="label attribute-type" transform="translate(-104.62109375, 83.875)" style=""><g><rect class="background" style="stroke: none"></rect></g><text y="-10.1" style=""><tspan class="text-outer-tspan" x="0" y="-0.1em" dy="1.1em"><tspan font-style="normal" class="text-inner-tspan" font-weight="normal">decimal</tspan></tspan></text></g><g class="label attribute-name" transform="translate(-23.08984375, 83.875)" style=""><g><rect class="background" style="stroke: none"></rect></g><text y="-10.1" style=""><tspan class="text-outer-tspan" x="0" y="-0.1em" dy="1.1em"><tspan font-style="normal" class="text-inner-tspan" font-weight="normal">net_revenue</tspan></tspan></text></g><g class="label attribute-keys" transform="translate(129.62109375, 83.875)" style=""><g><rect class="background" style="stroke: none"></rect></g><text y="-10.1" style=""><tspan class="text-outer-tspan" x="0" y="-0.1em" dy="1.1em"></tspan></text></g><g class="label attribute-comment" transform="translate(129.62109375, 83.875)" style=""><g><rect class="background" style="stroke: none"></rect></g><text y="-10.1" style=""><tspan class="text-outer-tspan" x="0" y="-0.1em" dy="1.1em"></tspan></text></g><g class="label attribute-type" transform="translate(-104.62109375, 121.125)" style=""><g><rect class="background" style="stroke: none"></rect></g><text y="-10.1" style=""><tspan class="text-outer-tspan" x="0" y="-0.1em" dy="1.1em"><tspan font-style="normal" class="text-inner-tspan" font-weight="normal">decimal</tspan></tspan></text></g><g class="label attribute-name" transform="translate(-23.08984375, 121.125)" style=""><g><rect class="background" style="stroke: none"></rect></g><text y="-10.1" style=""><tspan class="text-outer-tspan" x="0" y="-0.1em" dy="1.1em"><tspan font-style="normal" class="text-inner-tspan" font-weight="normal">spread</tspan></tspan></text></g><g class="label attribute-keys" transform="translate(129.62109375, 121.125)" style=""><g><rect class="background" style="stroke: none"></rect></g><text y="-10.1" style=""><tspan class="text-outer-tspan" x="0" y="-0.1em" dy="1.1em"></tspan></text></g><g class="label attribute-comment" transform="translate(129.62109375, 121.125)" style=""><g><rect class="background" style="stroke: none"></rect></g><text y="-10.1" style=""><tspan class="text-outer-tspan" x="0" y="-0.1em" dy="1.1em"></tspan></text></g><g class="label attribute-type" transform="translate(-104.62109375, 158.375)" style=""><g><rect class="background" style="stroke: none"></rect></g><text y="-10.1" style=""><tspan class="text-outer-tspan" x="0" y="-0.1em" dy="1.1em"><tspan font-style="normal" class="text-inner-tspan" font-weight="normal">decimal</tspan></tspan></text></g><g class="label attribute-name" transform="translate(-23.08984375, 158.375)" style=""><g><rect class="background" style="stroke: none"></rect></g><text y="-10.1" style=""><tspan class="text-outer-tspan" x="0" y="-0.1em" dy="1.1em"><tspan font-style="normal" class="text-inner-tspan" font-weight="normal">commission_fee</tspan></tspan></text></g><g class="label attribute-keys" transform="translate(129.62109375, 158.375)" style=""><g><rect class="background" style="stroke: none"></rect></g><text y="-10.1" style=""><tspan class="text-outer-tspan" x="0" y="-0.1em" dy="1.1em"></tspan></text></g><g class="label attribute-comment" transform="translate(129.62109375, 158.375)" style=""><g><rect class="background" style="stroke: none"></rect></g><text y="-10.1" style=""><tspan class="text-outer-tspan" x="0" y="-0.1em" dy="1.1em"></tspan></text></g><g class="divider"><path d="M-117.12109375 -149 C-45.79623404458154 -149, 25.528625660836923 -149, 117.12109375 -149 M-117.12109375 -149 C-55.13835310328593 -149, 6.844387543428141 -149, 117.12109375 -149" stroke="#ccc" stroke-width="1.3" fill="none" stroke-dasharray="0 0"></path></g><g class="divider"><path d="M-35.58984375 -149 C-35.58984375 -54.5948616493267, -35.58984375 39.810276701346595, -35.58984375 186.25 M-35.58984375 -149 C-35.58984375 -61.32550171031697, -35.58984375 26.34899657936606, -35.58984375 186.25" stroke="#ccc" stroke-width="1.3" fill="none" stroke-dasharray="0 0"></path></g><g class="divider"><path d="M-117.12109375 -149 C-30.014320333157713 -149, 57.092453083684575 -149, 117.12109375 -149 M-117.12109375 -149 C-54.724403966310575 -149, 7.6722858173788495 -149, 117.12109375 -149" stroke="#ccc" stroke-width="1.3" fill="none" stroke-dasharray="0 0"></path></g></g><g class="node default" id="entity-DIM_CUSTOMER-1" transform="translate(512.26171875, 553.625)"><g style=""><path d="M-134.26171875 -93.125 L134.26171875 -93.125 L134.26171875 93.125 L-134.26171875 93.125" stroke="none" stroke-width="0" fill="#1f2020"></path><path d="M-134.26171875 -93.125 C-34.959965629143966 -93.125, 64.34178749171207 -93.125, 134.26171875 -93.125 M-134.26171875 -93.125 C-74.10065680352638 -93.125, -13.939594857052754 -93.125, 134.26171875 -93.125 M134.26171875 -93.125 C134.26171875 -26.026366593604507, 134.26171875 41.072266812790986, 134.26171875 93.125 M134.26171875 -93.125 C134.26171875 -33.81534408658437, 134.26171875 25.494311826831265, 134.26171875 93.125 M134.26171875 93.125 C27.453769498234877 93.125, -79.35417975353025 93.125, -134.26171875 93.125 M134.26171875 93.125 C56.36831293196431 93.125, -21.525092886071377 93.125, -134.26171875 93.125 M-134.26171875 93.125 C-134.26171875 31.92377499403579, -134.26171875 -29.277450011928423, -134.26171875 -93.125 M-134.26171875 93.125 C-134.26171875 42.23702889822694, -134.26171875 -8.650942203546123, -134.26171875 -93.125" stroke="#ccc" stroke-width="1.3" fill="none" stroke-dasharray="0 0"></path></g><g style="" class="row-rect-odd"><path d="M-134.26171875 -55.875 L134.26171875 -55.875 L134.26171875 -18.625 L-134.26171875 -18.625" stroke="none" stroke-width="0" fill="hsl(180, 1.5873015873%, 17.3529411765%)"></path><path d="M-134.26171875 -55.875 C-48.93427659138423 -55.875, 36.393165567231534 -55.875, 134.26171875 -55.875 M-134.26171875 -55.875 C-78.657050605687 -55.875, -23.05238246137401 -55.875, 134.26171875 -55.875 M134.26171875 -55.875 C134.26171875 -43.702337720341035, 134.26171875 -31.529675440682077, 134.26171875 -18.625 M134.26171875 -55.875 C134.26171875 -44.812937467768904, 134.26171875 -33.7508749355378, 134.26171875 -18.625 M134.26171875 -18.625 C65.10951815597414 -18.625, -4.042682438051713 -18.625, -134.26171875 -18.625 M134.26171875 -18.625 C60.23456800006191 -18.625, -13.792582749876175 -18.625, -134.26171875 -18.625 M-134.26171875 -18.625 C-134.26171875 -31.698558928352696, -134.26171875 -44.77211785670539, -134.26171875 -55.875 M-134.26171875 -18.625 C-134.26171875 -28.49708811496272, -134.26171875 -38.36917622992544, -134.26171875 -55.875" stroke="#ccc" stroke-width="1.3" fill="none" stroke-dasharray="0 0"></path></g><g style="" class="row-rect-even"><path d="M-134.26171875 -18.625 L134.26171875 -18.625 L134.26171875 18.625 L-134.26171875 18.625" stroke="none" stroke-width="0" fill="hsl(180, 1.5873015873%, 2.3529411765%)"></path><path d="M-134.26171875 -18.625 C-37.51275478359756 -18.625, 59.236209182804885 -18.625, 134.26171875 -18.625 M-134.26171875 -18.625 C-77.29178393246951 -18.625, -20.321849114939027 -18.625, 134.26171875 -18.625 M134.26171875 -18.625 C134.26171875 -11.074897247696253, 134.26171875 -3.5247944953925074, 134.26171875 18.625 M134.26171875 -18.625 C134.26171875 -7.563369952519555, 134.26171875 3.498260094960891, 134.26171875 18.625 M134.26171875 18.625 C31.49087808294982 18.625, -71.27996258410036 18.625, -134.26171875 18.625 M134.26171875 18.625 C46.62193043156613 18.625, -41.017857886867745 18.625, -134.26171875 18.625 M-134.26171875 18.625 C-134.26171875 5.509664048926348, -134.26171875 -7.605671902147304, -134.26171875 -18.625 M-134.26171875 18.625 C-134.26171875 9.458083913203938, -134.26171875 0.2911678264078752, -134.26171875 -18.625" stroke="#ccc" stroke-width="1.3" fill="none" stroke-dasharray="0 0"></path></g><g style="" class="row-rect-odd"><path d="M-134.26171875 18.625 L134.26171875 18.625 L134.26171875 55.875 L-134.26171875 55.875" stroke="none" stroke-width="0" fill="hsl(180, 1.5873015873%, 17.3529411765%)"></path><path d="M-134.26171875 18.625 C-80.54054783074176 18.625, -26.819376911483502 18.625, 134.26171875 18.625 M-134.26171875 18.625 C-73.19345455290778 18.625, -12.125190355815562 18.625, 134.26171875 18.625 M134.26171875 18.625 C134.26171875 33.50745617615671, 134.26171875 48.389912352313424, 134.26171875 55.875 M134.26171875 18.625 C134.26171875 33.31369308051986, 134.26171875 48.00238616103972, 134.26171875 55.875 M134.26171875 55.875 C38.788413482989384 55.875, -56.68489178402123 55.875, -134.26171875 55.875 M134.26171875 55.875 C60.86117938909469 55.875, -12.539359971810626 55.875, -134.26171875 55.875 M-134.26171875 55.875 C-134.26171875 41.36474183748581, -134.26171875 26.85448367497161, -134.26171875 18.625 M-134.26171875 55.875 C-134.26171875 45.763944355328015, -134.26171875 35.65288871065603, -134.26171875 18.625" stroke="#ccc" stroke-width="1.3" fill="none" stroke-dasharray="0 0"></path></g><g style="" class="row-rect-even"><path d="M-134.26171875 55.875 L134.26171875 55.875 L134.26171875 93.125 L-134.26171875 93.125" stroke="none" stroke-width="0" fill="hsl(180, 1.5873015873%, 2.3529411765%)"></path><path d="M-134.26171875 55.875 C-54.48477425124997 55.875, 25.292170247500053 55.875, 134.26171875 55.875 M-134.26171875 55.875 C-72.58090905169249 55.875, -10.900099353384988 55.875, 134.26171875 55.875 M134.26171875 55.875 C134.26171875 68.77235881400267, 134.26171875 81.66971762800534, 134.26171875 93.125 M134.26171875 55.875 C134.26171875 70.68263718019408, 134.26171875 85.49027436038816, 134.26171875 93.125 M134.26171875 93.125 C69.97025053382849 93.125, 5.678782317656982 93.125, -134.26171875 93.125 M134.26171875 93.125 C30.018152608587755 93.125, -74.22541353282449 93.125, -134.26171875 93.125 M-134.26171875 93.125 C-134.26171875 80.19162360113584, -134.26171875 67.25824720227169, -134.26171875 55.875 M-134.26171875 93.125 C-134.26171875 80.62540007522784, -134.26171875 68.1258001504557, -134.26171875 55.875" stroke="#ccc" stroke-width="1.3" fill="none" stroke-dasharray="0 0"></path></g><g class="label name" transform="translate(-55.03515625, -83.75)" style=""><g><rect class="background" style="stroke: none"></rect></g><text y="-10.1" style=""><tspan class="text-outer-tspan" x="0" y="-0.1em" dy="1.1em"><tspan font-style="normal" class="text-inner-tspan" font-weight="normal">DIM_CUSTOMER</tspan></tspan></text></g><g class="label attribute-type" transform="translate(-121.76171875, -46.5)" style=""><g><rect class="background" style="stroke: none"></rect></g><text y="-10.1" style=""><tspan class="text-outer-tspan" x="0" y="-0.1em" dy="1.1em"><tspan font-style="normal" class="text-inner-tspan" font-weight="normal">int</tspan></tspan></text></g><g class="label attribute-name" transform="translate(-56.38671875, -46.5)" style=""><g><rect class="background" style="stroke: none"></rect></g><text y="-10.1" style=""><tspan class="text-outer-tspan" x="0" y="-0.1em" dy="1.1em"><tspan font-style="normal" class="text-inner-tspan" font-weight="normal">customer_sk</tspan></tspan></text></g><g class="label attribute-keys" transform="translate(103.62890625, -46.5)" style=""><g><rect class="background" style="stroke: none"></rect></g><text y="-10.1" style=""><tspan class="text-outer-tspan" x="0" y="-0.1em" dy="1.1em"><tspan font-style="normal" class="text-inner-tspan" font-weight="normal">PK</tspan></tspan></text></g><g class="label attribute-comment" transform="translate(146.76171875, -46.5)" style=""><g><rect class="background" style="stroke: none"></rect></g><text y="-10.1" style=""><tspan class="text-outer-tspan" x="0" y="-0.1em" dy="1.1em"></tspan></text></g><g class="label attribute-type" transform="translate(-121.76171875, -9.25)" style=""><g><rect class="background" style="stroke: none"></rect></g><text y="-10.1" style=""><tspan class="text-outer-tspan" x="0" y="-0.1em" dy="1.1em"><tspan font-style="normal" class="text-inner-tspan" font-weight="normal">string</tspan></tspan></text></g><g class="label attribute-name" transform="translate(-56.38671875, -9.25)" style=""><g><rect class="background" style="stroke: none"></rect></g><text y="-10.1" style=""><tspan class="text-outer-tspan" x="0" y="-0.1em" dy="1.1em"><tspan font-style="normal" class="text-inner-tspan" font-weight="normal">customer_segment</tspan></tspan></text></g><g class="label attribute-keys" transform="translate(103.62890625, -9.25)" style=""><g><rect class="background" style="stroke: none"></rect></g><text y="-10.1" style=""><tspan class="text-outer-tspan" x="0" y="-0.1em" dy="1.1em"></tspan></text></g><g class="label attribute-comment" transform="translate(146.76171875, -9.25)" style=""><g><rect class="background" style="stroke: none"></rect></g><text y="-10.1" style=""><tspan class="text-outer-tspan" x="0" y="-0.1em" dy="1.1em"></tspan></text></g><g class="label attribute-type" transform="translate(-121.76171875, 28)" style=""><g><rect class="background" style="stroke: none"></rect></g><text y="-10.1" style=""><tspan class="text-outer-tspan" x="0" y="-0.1em" dy="1.1em"><tspan font-style="normal" class="text-inner-tspan" font-weight="normal">string</tspan></tspan></text></g><g class="label attribute-name" transform="translate(-56.38671875, 28)" style=""><g><rect class="background" style="stroke: none"></rect></g><text y="-10.1" style=""><tspan class="text-outer-tspan" x="0" y="-0.1em" dy="1.1em"><tspan font-style="normal" class="text-inner-tspan" font-weight="normal">risk_segment</tspan></tspan></text></g><g class="label attribute-keys" transform="translate(103.62890625, 28)" style=""><g><rect class="background" style="stroke: none"></rect></g><text y="-10.1" style=""><tspan class="text-outer-tspan" x="0" y="-0.1em" dy="1.1em"></tspan></text></g><g class="label attribute-comment" transform="translate(146.76171875, 28)" style=""><g><rect class="background" style="stroke: none"></rect></g><text y="-10.1" style=""><tspan class="text-outer-tspan" x="0" y="-0.1em" dy="1.1em"></tspan></text></g><g class="label attribute-type" transform="translate(-121.76171875, 65.25)" style=""><g><rect class="background" style="stroke: none"></rect></g><text y="-10.1" style=""><tspan class="text-outer-tspan" x="0" y="-0.1em" dy="1.1em"><tspan font-style="normal" class="text-inner-tspan" font-weight="normal">string</tspan></tspan></text></g><g class="label attribute-name" transform="translate(-56.38671875, 65.25)" style=""><g><rect class="background" style="stroke: none"></rect></g><text y="-10.1" style=""><tspan class="text-outer-tspan" x="0" y="-0.1em" dy="1.1em"><tspan font-style="normal" class="text-inner-tspan" font-weight="normal">nationality</tspan></tspan></text></g><g class="label attribute-keys" transform="translate(103.62890625, 65.25)" style=""><g><rect class="background" style="stroke: none"></rect></g><text y="-10.1" style=""><tspan class="text-outer-tspan" x="0" y="-0.1em" dy="1.1em"></tspan></text></g><g class="label attribute-comment" transform="translate(146.76171875, 65.25)" style=""><g><rect class="background" style="stroke: none"></rect></g><text y="-10.1" style=""><tspan class="text-outer-tspan" x="0" y="-0.1em" dy="1.1em"></tspan></text></g><g class="divider"><path d="M-134.26171875 -55.875 C-36.389166334622175 -55.875, 61.48338608075565 -55.875, 134.26171875 -55.875 M-134.26171875 -55.875 C-50.63843559304232 -55.875, 32.984847563915366 -55.875, 134.26171875 -55.875" stroke="#ccc" stroke-width="1.3" fill="none" stroke-dasharray="0 0"></path></g><g class="divider"><path d="M-68.88671875 -55.875 C-68.88671875 -5.989957486007427, -68.88671875 43.89508502798515, -68.88671875 93.125 M-68.88671875 -55.875 C-68.88671875 -12.047819786663823, -68.88671875 31.779360426672355, -68.88671875 93.125" stroke="#ccc" stroke-width="1.3" fill="none" stroke-dasharray="0 0"></path></g><g class="divider"><path d="M91.12890625 -55.875 C91.12890625 -8.39285070326622, 91.12890625 39.08929859346756, 91.12890625 93.125 M91.12890625 -55.875 C91.12890625 3.1463944055780786, 91.12890625 62.16778881115616, 91.12890625 93.125" stroke="#ccc" stroke-width="1.3" fill="none" stroke-dasharray="0 0"></path></g><g class="divider"><path d="M-134.26171875 -55.875 C-36.1198407593979 -55.875, 62.022037231204195 -55.875, 134.26171875 -55.875 M-134.26171875 -55.875 C-69.3295834961446 -55.875, -4.397448242289187 -55.875, 134.26171875 -55.875" stroke="#ccc" stroke-width="1.3" fill="none" stroke-dasharray="0 0"></path></g></g><g class="node default" id="entity-DIM_BRANCH-2" transform="translate(123, 553.625)"><g style=""><path d="M-115 -93.125 L115 -93.125 L115 93.125 L-115 93.125" stroke="none" stroke-width="0" fill="#1f2020"></path><path d="M-115 -93.125 C-47.699522178766216 -93.125, 19.600955642467568 -93.125, 115 -93.125 M-115 -93.125 C-54.39492799073593 -93.125, 6.2101440185281405 -93.125, 115 -93.125 M115 -93.125 C115 -47.82385399927463, 115 -2.522707998549265, 115 93.125 M115 -93.125 C115 -23.669321516504297, 115 45.786356966991406, 115 93.125 M115 93.125 C37.768245663195444 93.125, -39.46350867360911 93.125, -115 93.125 M115 93.125 C56.78917406286724 93.125, -1.421651874265521 93.125, -115 93.125 M-115 93.125 C-115 49.02822866078737, -115 4.93145732157474, -115 -93.125 M-115 93.125 C-115 24.268381313754205, -115 -44.58823737249159, -115 -93.125" stroke="#ccc" stroke-width="1.3" fill="none" stroke-dasharray="0 0"></path></g><g style="" class="row-rect-odd"><path d="M-115 -55.875 L115 -55.875 L115 -18.625 L-115 -18.625" stroke="none" stroke-width="0" fill="hsl(180, 1.5873015873%, 17.3529411765%)"></path><path d="M-115 -55.875 C-35.75584542411882 -55.875, 43.488309151762365 -55.875, 115 -55.875 M-115 -55.875 C-42.9386001408314 -55.875, 29.122799718337205 -55.875, 115 -55.875 M115 -55.875 C115 -48.26160076741874, 115 -40.64820153483748, 115 -18.625 M115 -55.875 C115 -43.200164475358946, 115 -30.525328950717885, 115 -18.625 M115 -18.625 C57.573386675948015 -18.625, 0.14677335189603014 -18.625, -115 -18.625 M115 -18.625 C60.10459475054148 -18.625, 5.20918950108296 -18.625, -115 -18.625 M-115 -18.625 C-115 -33.39987689328396, -115 -48.174753786567926, -115 -55.875 M-115 -18.625 C-115 -28.47366047982763, -115 -38.32232095965526, -115 -55.875" stroke="#ccc" stroke-width="1.3" fill="none" stroke-dasharray="0 0"></path></g><g style="" class="row-rect-even"><path d="M-115 -18.625 L115 -18.625 L115 18.625 L-115 18.625" stroke="none" stroke-width="0" fill="hsl(180, 1.5873015873%, 2.3529411765%)"></path><path d="M-115 -18.625 C-27.081495537735435 -18.625, 60.83700892452913 -18.625, 115 -18.625 M-115 -18.625 C-58.36121664935442 -18.625, -1.722433298708836 -18.625, 115 -18.625 M115 -18.625 C115 -9.806693567964123, 115 -0.9883871359282459, 115 18.625 M115 -18.625 C115 -8.149499239915158, 115 2.326001520169683, 115 18.625 M115 18.625 C30.813860327055536 18.625, -53.37227934588893 18.625, -115 18.625 M115 18.625 C30.08615183892482 18.625, -54.82769632215036 18.625, -115 18.625 M-115 18.625 C-115 5.60977497907488, -115 -7.405450041850241, -115 -18.625 M-115 18.625 C-115 4.330205155509031, -115 -9.964589688981938, -115 -18.625" stroke="#ccc" stroke-width="1.3" fill="none" stroke-dasharray="0 0"></path></g><g style="" class="row-rect-odd"><path d="M-115 18.625 L115 18.625 L115 55.875 L-115 55.875" stroke="none" stroke-width="0" fill="hsl(180, 1.5873015873%, 17.3529411765%)"></path><path d="M-115 18.625 C-45.1693904551031 18.625, 24.661219089793804 18.625, 115 18.625 M-115 18.625 C-24.71385184797566 18.625, 65.57229630404868 18.625, 115 18.625 M115 18.625 C115 27.79606595164556, 115 36.96713190329112, 115 55.875 M115 18.625 C115 27.340270208618726, 115 36.05554041723745, 115 55.875 M115 55.875 C32.75676783799722 55.875, -49.48646432400557 55.875, -115 55.875 M115 55.875 C32.761200217236194 55.875, -49.47759956552761 55.875, -115 55.875 M-115 55.875 C-115 48.01682786880563, -115 40.15865573761126, -115 18.625 M-115 55.875 C-115 43.94816449750452, -115 32.02132899500905, -115 18.625" stroke="#ccc" stroke-width="1.3" fill="none" stroke-dasharray="0 0"></path></g><g style="" class="row-rect-even"><path d="M-115 55.875 L115 55.875 L115 93.125 L-115 93.125" stroke="none" stroke-width="0" fill="hsl(180, 1.5873015873%, 2.3529411765%)"></path><path d="M-115 55.875 C-47.56746247699256 55.875, 19.86507504601488 55.875, 115 55.875 M-115 55.875 C-23.497114601483887 55.875, 68.00577079703223 55.875, 115 55.875 M115 55.875 C115 67.7579897365751, 115 79.64097947315018, 115 93.125 M115 55.875 C115 64.61950853324795, 115 73.36401706649592, 115 93.125 M115 93.125 C43.8536575846494 93.125, -27.292684830701205 93.125, -115 93.125 M115 93.125 C58.220484765606535 93.125, 1.4409695312130708 93.125, -115 93.125 M-115 93.125 C-115 81.43461107639651, -115 69.744222152793, -115 55.875 M-115 93.125 C-115 82.27897437338174, -115 71.43294874676349, -115 55.875" stroke="#ccc" stroke-width="1.3" fill="none" stroke-dasharray="0 0"></path></g><g class="label name" transform="translate(-46.03125, -83.75)" style=""><g><rect class="background" style="stroke: none"></rect></g><text y="-10.1" style=""><tspan class="text-outer-tspan" x="0" y="-0.1em" dy="1.1em"><tspan font-style="normal" class="text-inner-tspan" font-weight="normal">DIM_BRANCH</tspan></tspan></text></g><g class="label attribute-type" transform="translate(-102.5, -46.5)" style=""><g><rect class="background" style="stroke: none"></rect></g><text y="-10.1" style=""><tspan class="text-outer-tspan" x="0" y="-0.1em" dy="1.1em"><tspan font-style="normal" class="text-inner-tspan" font-weight="normal">int</tspan></tspan></text></g><g class="label attribute-name" transform="translate(-37.125, -46.5)" style=""><g><rect class="background" style="stroke: none"></rect></g><text y="-10.1" style=""><tspan class="text-outer-tspan" x="0" y="-0.1em" dy="1.1em"><tspan font-style="normal" class="text-inner-tspan" font-weight="normal">branch_sk</tspan></tspan></text></g><g class="label attribute-keys" transform="translate(84.3671875, -46.5)" style=""><g><rect class="background" style="stroke: none"></rect></g><text y="-10.1" style=""><tspan class="text-outer-tspan" x="0" y="-0.1em" dy="1.1em"><tspan font-style="normal" class="text-inner-tspan" font-weight="normal">PK</tspan></tspan></text></g><g class="label attribute-comment" transform="translate(127.5, -46.5)" style=""><g><rect class="background" style="stroke: none"></rect></g><text y="-10.1" style=""><tspan class="text-outer-tspan" x="0" y="-0.1em" dy="1.1em"></tspan></text></g><g class="label attribute-type" transform="translate(-102.5, -9.25)" style=""><g><rect class="background" style="stroke: none"></rect></g><text y="-10.1" style=""><tspan class="text-outer-tspan" x="0" y="-0.1em" dy="1.1em"><tspan font-style="normal" class="text-inner-tspan" font-weight="normal">string</tspan></tspan></text></g><g class="label attribute-name" transform="translate(-37.125, -9.25)" style=""><g><rect class="background" style="stroke: none"></rect></g><text y="-10.1" style=""><tspan class="text-outer-tspan" x="0" y="-0.1em" dy="1.1em"><tspan font-style="normal" class="text-inner-tspan" font-weight="normal">branch_name</tspan></tspan></text></g><g class="label attribute-keys" transform="translate(84.3671875, -9.25)" style=""><g><rect class="background" style="stroke: none"></rect></g><text y="-10.1" style=""><tspan class="text-outer-tspan" x="0" y="-0.1em" dy="1.1em"></tspan></text></g><g class="label attribute-comment" transform="translate(127.5, -9.25)" style=""><g><rect class="background" style="stroke: none"></rect></g><text y="-10.1" style=""><tspan class="text-outer-tspan" x="0" y="-0.1em" dy="1.1em"></tspan></text></g><g class="label attribute-type" transform="translate(-102.5, 28)" style=""><g><rect class="background" style="stroke: none"></rect></g><text y="-10.1" style=""><tspan class="text-outer-tspan" x="0" y="-0.1em" dy="1.1em"><tspan font-style="normal" class="text-inner-tspan" font-weight="normal">string</tspan></tspan></text></g><g class="label attribute-name" transform="translate(-37.125, 28)" style=""><g><rect class="background" style="stroke: none"></rect></g><text y="-10.1" style=""><tspan class="text-outer-tspan" x="0" y="-0.1em" dy="1.1em"><tspan font-style="normal" class="text-inner-tspan" font-weight="normal">region</tspan></tspan></text></g><g class="label attribute-keys" transform="translate(84.3671875, 28)" style=""><g><rect class="background" style="stroke: none"></rect></g><text y="-10.1" style=""><tspan class="text-outer-tspan" x="0" y="-0.1em" dy="1.1em"></tspan></text></g><g class="label attribute-comment" transform="translate(127.5, 28)" style=""><g><rect class="background" style="stroke: none"></rect></g><text y="-10.1" style=""><tspan class="text-outer-tspan" x="0" y="-0.1em" dy="1.1em"></tspan></text></g><g class="label attribute-type" transform="translate(-102.5, 65.25)" style=""><g><rect class="background" style="stroke: none"></rect></g><text y="-10.1" style=""><tspan class="text-outer-tspan" x="0" y="-0.1em" dy="1.1em"><tspan font-style="normal" class="text-inner-tspan" font-weight="normal">string</tspan></tspan></text></g><g class="label attribute-name" transform="translate(-37.125, 65.25)" style=""><g><rect class="background" style="stroke: none"></rect></g><text y="-10.1" style=""><tspan class="text-outer-tspan" x="0" y="-0.1em" dy="1.1em"><tspan font-style="normal" class="text-inner-tspan" font-weight="normal">branch_type</tspan></tspan></text></g><g class="label attribute-keys" transform="translate(84.3671875, 65.25)" style=""><g><rect class="background" style="stroke: none"></rect></g><text y="-10.1" style=""><tspan class="text-outer-tspan" x="0" y="-0.1em" dy="1.1em"></tspan></text></g><g class="label attribute-comment" transform="translate(127.5, 65.25)" style=""><g><rect class="background" style="stroke: none"></rect></g><text y="-10.1" style=""><tspan class="text-outer-tspan" x="0" y="-0.1em" dy="1.1em"></tspan></text></g><g class="divider"><path d="M-115 -55.875 C-23.311779874473288 -55.875, 68.37644025105342 -55.875, 115 -55.875 M-115 -55.875 C-62.95300577985071 -55.875, -10.906011559701426 -55.875, 115 -55.875" stroke="#ccc" stroke-width="1.3" fill="none" stroke-dasharray="0 0"></path></g><g class="divider"><path d="M-49.625 -55.875 C-49.625 -21.04912877197706, -49.625 13.77674245604588, -49.625 93.125 M-49.625 -55.875 C-49.625 -17.88982298176046, -49.625 20.09535403647908, -49.625 93.125" stroke="#ccc" stroke-width="1.3" fill="none" stroke-dasharray="0 0"></path></g><g class="divider"><path d="M71.8671875 -55.875 C71.8671875 -13.823974946545967, 71.8671875 28.227050106908067, 71.8671875 93.125 M71.8671875 -55.875 C71.8671875 -17.31381929740573, 71.8671875 21.247361405188542, 71.8671875 93.125" stroke="#ccc" stroke-width="1.3" fill="none" stroke-dasharray="0 0"></path></g><g class="divider"><path d="M-115 -55.875 C-67.440604763415 -55.875, -19.881209526830006 -55.875, 115 -55.875 M-115 -55.875 C-57.15492920128591 -55.875, 0.6901415974281804 -55.875, 115 -55.875" stroke="#ccc" stroke-width="1.3" fill="none" stroke-dasharray="0 0"></path></g></g><g class="node default" id="entity-DIM_DATE-3" transform="translate(841.3046875, 553.625)"><rect class="basic label-container" style="" x="-54.78125" y="-39.25" width="109.5625" height="78.5"></rect><g class="label" style="" transform="translate(0, -9.25)"><rect></rect><g><rect class="background" style="stroke: none"></rect><text y="-10.1" style="" transform="translate(-34.78125, 0)"><tspan class="text-outer-tspan" x="0" y="-0.1em" dy="1.1em"><tspan font-style="normal" class="text-inner-tspan" font-weight="normal">DIM_DATE</tspan></tspan></text></g></g></g><g class="node default" id="entity-DIM_CURRENCY_FROM-4" transform="translate(1155.30078125, 553.625)"><g style=""><path d="M-119.21484375 -55.875 L119.21484375 -55.875 L119.21484375 55.875 L-119.21484375 55.875" stroke="none" stroke-width="0" fill="#1f2020"></path><path d="M-119.21484375 -55.875 C-64.69854474050527 -55.875, -10.18224573101054 -55.875, 119.21484375 -55.875 M-119.21484375 -55.875 C-54.72921592543727 -55.875, 9.756411899125453 -55.875, 119.21484375 -55.875 M119.21484375 -55.875 C119.21484375 -23.365270125604795, 119.21484375 9.14445974879041, 119.21484375 55.875 M119.21484375 -55.875 C119.21484375 -22.488734622034336, 119.21484375 10.897530755931328, 119.21484375 55.875 M119.21484375 55.875 C48.680422006122456 55.875, -21.85399973775509 55.875, -119.21484375 55.875 M119.21484375 55.875 C31.08225758185519 55.875, -57.05032858628962 55.875, -119.21484375 55.875 M-119.21484375 55.875 C-119.21484375 11.325244973153673, -119.21484375 -33.224510053692654, -119.21484375 -55.875 M-119.21484375 55.875 C-119.21484375 27.98814950233843, -119.21484375 0.1012990046768607, -119.21484375 -55.875" stroke="#ccc" stroke-width="1.3" fill="none" stroke-dasharray="0 0"></path></g><g style="" class="row-rect-odd"><path d="M-119.21484375 -18.625 L119.21484375 -18.625 L119.21484375 18.625 L-119.21484375 18.625" stroke="none" stroke-width="0" fill="hsl(180, 1.5873015873%, 17.3529411765%)"></path><path d="M-119.21484375 -18.625 C-68.17840984298795 -18.625, -17.141975935975893 -18.625, 119.21484375 -18.625 M-119.21484375 -18.625 C-40.894604069570704 -18.625, 37.42563561085859 -18.625, 119.21484375 -18.625 M119.21484375 -18.625 C119.21484375 -10.587895161458363, 119.21484375 -2.5507903229167255, 119.21484375 18.625 M119.21484375 -18.625 C119.21484375 -6.644246974628212, 119.21484375 5.336506050743576, 119.21484375 18.625 M119.21484375 18.625 C56.67799568334496 18.625, -5.858852383310079 18.625, -119.21484375 18.625 M119.21484375 18.625 C44.852412053763715 18.625, -29.51001964247257 18.625, -119.21484375 18.625 M-119.21484375 18.625 C-119.21484375 6.566527755303955, -119.21484375 -5.49194448939209, -119.21484375 -18.625 M-119.21484375 18.625 C-119.21484375 8.480006381161333, -119.21484375 -1.6649872376773338, -119.21484375 -18.625" stroke="#ccc" stroke-width="1.3" fill="none" stroke-dasharray="0 0"></path></g><g style="" class="row-rect-even"><path d="M-119.21484375 18.625 L119.21484375 18.625 L119.21484375 55.875 L-119.21484375 55.875" stroke="none" stroke-width="0" fill="hsl(180, 1.5873015873%, 2.3529411765%)"></path><path d="M-119.21484375 18.625 C-45.40372545956643 18.625, 28.40739283086714 18.625, 119.21484375 18.625 M-119.21484375 18.625 C-68.37715986048374 18.625, -17.539475970967473 18.625, 119.21484375 18.625 M119.21484375 18.625 C119.21484375 28.465571052665773, 119.21484375 38.306142105331546, 119.21484375 55.875 M119.21484375 18.625 C119.21484375 27.593045517794422, 119.21484375 36.561091035588845, 119.21484375 55.875 M119.21484375 55.875 C30.176073016790028 55.875, -58.862697716419945 55.875, -119.21484375 55.875 M119.21484375 55.875 C28.481608476373765 55.875, -62.25162679725247 55.875, -119.21484375 55.875 M-119.21484375 55.875 C-119.21484375 47.819427297499075, -119.21484375 39.76385459499815, -119.21484375 18.625 M-119.21484375 55.875 C-119.21484375 47.06672004750874, -119.21484375 38.258440095017484, -119.21484375 18.625" stroke="#ccc" stroke-width="1.3" fill="none" stroke-dasharray="0 0"></path></g><g class="label name" transform="translate(-79.14453125, -46.5)" style=""><g><rect class="background" style="stroke: none"></rect></g><text y="-10.1" style=""><tspan class="text-outer-tspan" x="0" y="-0.1em" dy="1.1em"><tspan font-style="normal" class="text-inner-tspan" font-weight="normal">DIM_CURRENCY_FROM</tspan></tspan></text></g><g class="label attribute-type" transform="translate(-106.71484375, -9.25)" style=""><g><rect class="background" style="stroke: none"></rect></g><text y="-10.1" style=""><tspan class="text-outer-tspan" x="0" y="-0.1em" dy="1.1em"><tspan font-style="normal" class="text-inner-tspan" font-weight="normal">int</tspan></tspan></text></g><g class="label attribute-name" transform="translate(-41.33984375, -9.25)" style=""><g><rect class="background" style="stroke: none"></rect></g><text y="-10.1" style=""><tspan class="text-outer-tspan" x="0" y="-0.1em" dy="1.1em"><tspan font-style="normal" class="text-inner-tspan" font-weight="normal">currency_sk</tspan></tspan></text></g><g class="label attribute-keys" transform="translate(88.58203125, -9.25)" style=""><g><rect class="background" style="stroke: none"></rect></g><text y="-10.1" style=""><tspan class="text-outer-tspan" x="0" y="-0.1em" dy="1.1em"><tspan font-style="normal" class="text-inner-tspan" font-weight="normal">PK</tspan></tspan></text></g><g class="label attribute-comment" transform="translate(131.71484375, -9.25)" style=""><g><rect class="background" style="stroke: none"></rect></g><text y="-10.1" style=""><tspan class="text-outer-tspan" x="0" y="-0.1em" dy="1.1em"></tspan></text></g><g class="label attribute-type" transform="translate(-106.71484375, 28)" style=""><g><rect class="background" style="stroke: none"></rect></g><text y="-10.1" style=""><tspan class="text-outer-tspan" x="0" y="-0.1em" dy="1.1em"><tspan font-style="normal" class="text-inner-tspan" font-weight="normal">string</tspan></tspan></text></g><g class="label attribute-name" transform="translate(-41.33984375, 28)" style=""><g><rect class="background" style="stroke: none"></rect></g><text y="-10.1" style=""><tspan class="text-outer-tspan" x="0" y="-0.1em" dy="1.1em"><tspan font-style="normal" class="text-inner-tspan" font-weight="normal">currency_code</tspan></tspan></text></g><g class="label attribute-keys" transform="translate(88.58203125, 28)" style=""><g><rect class="background" style="stroke: none"></rect></g><text y="-10.1" style=""><tspan class="text-outer-tspan" x="0" y="-0.1em" dy="1.1em"></tspan></text></g><g class="label attribute-comment" transform="translate(131.71484375, 28)" style=""><g><rect class="background" style="stroke: none"></rect></g><text y="-10.1" style=""><tspan class="text-outer-tspan" x="0" y="-0.1em" dy="1.1em"></tspan></text></g><g class="divider"><path d="M-119.21484375 -18.625 C-39.37653959426629 -18.625, 40.46176456146742 -18.625, 119.21484375 -18.625 M-119.21484375 -18.625 C-67.50838296477623 -18.625, -15.801922179552463 -18.625, 119.21484375 -18.625" stroke="#ccc" stroke-width="1.3" fill="none" stroke-dasharray="0 0"></path></g><g class="divider"><path d="M-53.83984375 -18.625 C-53.83984375 5.121112285364717, -53.83984375 28.867224570729434, -53.83984375 55.875 M-53.83984375 -18.625 C-53.83984375 -3.1990502551892117, -53.83984375 12.226899489621577, -53.83984375 55.875" stroke="#ccc" stroke-width="1.3" fill="none" stroke-dasharray="0 0"></path></g><g class="divider"><path d="M76.08203125 -18.625 C76.08203125 9.44038490827872, 76.08203125 37.50576981655744, 76.08203125 55.875 M76.08203125 -18.625 C76.08203125 9.75111072582067, 76.08203125 38.12722145164134, 76.08203125 55.875" stroke="#ccc" stroke-width="1.3" fill="none" stroke-dasharray="0 0"></path></g><g class="divider"><path d="M-119.21484375 -18.625 C-32.64737381994021 -18.625, 53.92009611011957 -18.625, 119.21484375 -18.625 M-119.21484375 -18.625 C-29.274963895785206 -18.625, 60.66491595842959 -18.625, 119.21484375 -18.625" stroke="#ccc" stroke-width="1.3" fill="none" stroke-dasharray="0 0"></path></g></g><g class="node default" id="entity-DIM_CURRENCY_TO-5" transform="translate(1503.33203125, 553.625)"><rect class="basic label-container" style="" x="-88.81640625" y="-39.25" width="177.6328125" height="78.5"></rect><g class="label" style="" transform="translate(0, -9.25)"><rect></rect><g><rect class="background" style="stroke: none"></rect><text y="-10.1" style="" transform="translate(-68.81640625, 0)"><tspan class="text-outer-tspan" x="0" y="-0.1em" dy="1.1em"><tspan font-style="normal" class="text-inner-tspan" font-weight="normal">DIM_CURRENCY_TO</tspan></tspan></text></g></g></g><g class="node default" id="entity-DIM_CHANNEL-6" transform="translate(1850.67578125, 553.625)"><g style=""><path d="M-118.52734375 -55.875 L118.52734375 -55.875 L118.52734375 55.875 L-118.52734375 55.875" stroke="none" stroke-width="0" fill="#1f2020"></path><path d="M-118.52734375 -55.875 C-34.94104311906047 -55.875, 48.645257511879066 -55.875, 118.52734375 -55.875 M-118.52734375 -55.875 C-65.60342237160387 -55.875, -12.679500993207753 -55.875, 118.52734375 -55.875 M118.52734375 -55.875 C118.52734375 -30.091500055933558, 118.52734375 -4.308000111867116, 118.52734375 55.875 M118.52734375 -55.875 C118.52734375 -24.178452950881468, 118.52734375 7.518094098237064, 118.52734375 55.875 M118.52734375 55.875 C26.036828306034707 55.875, -66.45368713793059 55.875, -118.52734375 55.875 M118.52734375 55.875 C31.575257555012712 55.875, -55.376828639974576 55.875, -118.52734375 55.875 M-118.52734375 55.875 C-118.52734375 30.69285867954509, -118.52734375 5.5107173590901795, -118.52734375 -55.875 M-118.52734375 55.875 C-118.52734375 13.0836695418392, -118.52734375 -29.7076609163216, -118.52734375 -55.875" stroke="#ccc" stroke-width="1.3" fill="none" stroke-dasharray="0 0"></path></g><g style="" class="row-rect-odd"><path d="M-118.52734375 -18.625 L118.52734375 -18.625 L118.52734375 18.625 L-118.52734375 18.625" stroke="none" stroke-width="0" fill="hsl(180, 1.5873015873%, 17.3529411765%)"></path><path d="M-118.52734375 -18.625 C-36.336921797250625 -18.625, 45.85350015549875 -18.625, 118.52734375 -18.625 M-118.52734375 -18.625 C-59.907158813473 -18.625, -1.286973876946007 -18.625, 118.52734375 -18.625 M118.52734375 -18.625 C118.52734375 -7.055129681165024, 118.52734375 4.514740637669952, 118.52734375 18.625 M118.52734375 -18.625 C118.52734375 -9.058060150438848, 118.52734375 0.5088796991223035, 118.52734375 18.625 M118.52734375 18.625 C41.41628637909881 18.625, -35.694770991802386 18.625, -118.52734375 18.625 M118.52734375 18.625 C41.68138419102851 18.625, -35.16457536794297 18.625, -118.52734375 18.625 M-118.52734375 18.625 C-118.52734375 6.41923204743547, -118.52734375 -5.78653590512906, -118.52734375 -18.625 M-118.52734375 18.625 C-118.52734375 7.455633715718438, -118.52734375 -3.713732568563124, -118.52734375 -18.625" stroke="#ccc" stroke-width="1.3" fill="none" stroke-dasharray="0 0"></path></g><g style="" class="row-rect-even"><path d="M-118.52734375 18.625 L118.52734375 18.625 L118.52734375 55.875 L-118.52734375 55.875" stroke="none" stroke-width="0" fill="hsl(180, 1.5873015873%, 2.3529411765%)"></path><path d="M-118.52734375 18.625 C-35.51394177478082 18.625, 47.499460200438364 18.625, 118.52734375 18.625 M-118.52734375 18.625 C-64.27649505543309 18.625, -10.02564636086619 18.625, 118.52734375 18.625 M118.52734375 18.625 C118.52734375 30.053889709295788, 118.52734375 41.482779418591576, 118.52734375 55.875 M118.52734375 18.625 C118.52734375 33.145521883011135, 118.52734375 47.66604376602227, 118.52734375 55.875 M118.52734375 55.875 C58.227392545033396 55.875, -2.0725586599332075 55.875, -118.52734375 55.875 M118.52734375 55.875 C46.43698201727062 55.875, -25.653379715458755 55.875, -118.52734375 55.875 M-118.52734375 55.875 C-118.52734375 46.75550696486525, -118.52734375 37.636013929730495, -118.52734375 18.625 M-118.52734375 55.875 C-118.52734375 47.233723074486484, -118.52734375 38.59244614897297, -118.52734375 18.625" stroke="#ccc" stroke-width="1.3" fill="none" stroke-dasharray="0 0"></path></g><g class="label name" transform="translate(-50.2890625, -46.5)" style=""><g><rect class="background" style="stroke: none"></rect></g><text y="-10.1" style=""><tspan class="text-outer-tspan" x="0" y="-0.1em" dy="1.1em"><tspan font-style="normal" class="text-inner-tspan" font-weight="normal">DIM_CHANNEL</tspan></tspan></text></g><g class="label attribute-type" transform="translate(-106.02734375, -9.25)" style=""><g><rect class="background" style="stroke: none"></rect></g><text y="-10.1" style=""><tspan class="text-outer-tspan" x="0" y="-0.1em" dy="1.1em"><tspan font-style="normal" class="text-inner-tspan" font-weight="normal">int</tspan></tspan></text></g><g class="label attribute-name" transform="translate(-40.65234375, -9.25)" style=""><g><rect class="background" style="stroke: none"></rect></g><text y="-10.1" style=""><tspan class="text-outer-tspan" x="0" y="-0.1em" dy="1.1em"><tspan font-style="normal" class="text-inner-tspan" font-weight="normal">channel_sk</tspan></tspan></text></g><g class="label attribute-keys" transform="translate(87.89453125, -9.25)" style=""><g><rect class="background" style="stroke: none"></rect></g><text y="-10.1" style=""><tspan class="text-outer-tspan" x="0" y="-0.1em" dy="1.1em"><tspan font-style="normal" class="text-inner-tspan" font-weight="normal">PK</tspan></tspan></text></g><g class="label attribute-comment" transform="translate(131.02734375, -9.25)" style=""><g><rect class="background" style="stroke: none"></rect></g><text y="-10.1" style=""><tspan class="text-outer-tspan" x="0" y="-0.1em" dy="1.1em"></tspan></text></g><g class="label attribute-type" transform="translate(-106.02734375, 28)" style=""><g><rect class="background" style="stroke: none"></rect></g><text y="-10.1" style=""><tspan class="text-outer-tspan" x="0" y="-0.1em" dy="1.1em"><tspan font-style="normal" class="text-inner-tspan" font-weight="normal">string</tspan></tspan></text></g><g class="label attribute-name" transform="translate(-40.65234375, 28)" style=""><g><rect class="background" style="stroke: none"></rect></g><text y="-10.1" style=""><tspan class="text-outer-tspan" x="0" y="-0.1em" dy="1.1em"><tspan font-style="normal" class="text-inner-tspan" font-weight="normal">channel_name</tspan></tspan></text></g><g class="label attribute-keys" transform="translate(87.89453125, 28)" style=""><g><rect class="background" style="stroke: none"></rect></g><text y="-10.1" style=""><tspan class="text-outer-tspan" x="0" y="-0.1em" dy="1.1em"></tspan></text></g><g class="label attribute-comment" transform="translate(131.02734375, 28)" style=""><g><rect class="background" style="stroke: none"></rect></g><text y="-10.1" style=""><tspan class="text-outer-tspan" x="0" y="-0.1em" dy="1.1em"></tspan></text></g><g class="divider"><path d="M-118.52734375 -18.625 C-32.36528620170023 -18.625, 53.79677134659954 -18.625, 118.52734375 -18.625 M-118.52734375 -18.625 C-62.285793722799895 -18.625, -6.044243695599789 -18.625, 118.52734375 -18.625" stroke="#ccc" stroke-width="1.3" fill="none" stroke-dasharray="0 0"></path></g><g class="divider"><path d="M-53.15234375 -18.625 C-53.15234375 5.741367291783639, -53.15234375 30.10773458356728, -53.15234375 55.875 M-53.15234375 -18.625 C-53.15234375 5.036187702421092, -53.15234375 28.697375404842184, -53.15234375 55.875" stroke="#ccc" stroke-width="1.3" fill="none" stroke-dasharray="0 0"></path></g><g class="divider"><path d="M75.39453125 -18.625 C75.39453125 1.1954911653414548, 75.39453125 21.01598233068291, 75.39453125 55.875 M75.39453125 -18.625 C75.39453125 -2.504876862942851, 75.39453125 13.615246274114298, 75.39453125 55.875" stroke="#ccc" stroke-width="1.3" fill="none" stroke-dasharray="0 0"></path></g><g class="divider"><path d="M-118.52734375 -18.625 C-29.67019993776624 -18.625, 59.18694387446752 -18.625, 118.52734375 -18.625 M-118.52734375 -18.625 C-44.26772359381354 -18.625, 29.991896562372915 -18.625, 118.52734375 -18.625" stroke="#ccc" stroke-width="1.3" fill="none" stroke-dasharray="0 0"></path></g></g><g class="node default" id="entity-FACT_FEEDBACK-7" transform="translate(121.318359375, 194.25)"><rect class="basic label-container" style="" x="-78.0078125" y="-39.25" width="156.015625" height="78.5"></rect><g class="label" style="" transform="translate(0, -9.25)"><rect></rect><g><rect class="background" style="stroke: none"></rect><text y="-10.1" style="" transform="translate(-58.0078125, 0)"><tspan class="text-outer-tspan" x="0" y="-0.1em" dy="1.1em"><tspan font-style="normal" class="text-inner-tspan" font-weight="normal">FACT_FEEDBACK</tspan></tspan></text></g></g></g><g class="node default" id="entity-FACT_CUSTOMER_CONSENT-8" transform="translate(2171.51953125, 194.25)"><rect class="basic label-container" style="" x="-117.0859375" y="-39.25" width="234.171875" height="78.5"></rect><g class="label" style="" transform="translate(0, -9.25)"><rect></rect><g><rect class="background" style="stroke: none"></rect><text y="-10.1" style="" transform="translate(-97.0859375, 0)"><tspan class="text-outer-tspan" x="0" y="-0.1em" dy="1.1em"><tspan font-style="normal" class="text-inner-tspan" font-weight="normal">FACT_CUSTOMER_CONSENT</tspan></tspan></text></g></g></g><g class="node default" id="entity-DIM_CONSENT_TYPE-9" transform="translate(2211.51953125, 553.625)"><rect class="basic label-container" style="" x="-92.31640625" y="-39.25" width="184.6328125" height="78.5"></rect><g class="label" style="" transform="translate(0, -9.25)"><rect></rect><g><rect class="background" style="stroke: none"></rect><text y="-10.1" style="" transform="translate(-72.31640625, 0)"><tspan class="text-outer-tspan" x="0" y="-0.1em" dy="1.1em"><tspan font-style="normal" class="text-inner-tspan" font-weight="normal">DIM_CONSENT_TYPE</tspan></tspan></text></g></g></g></g></g></g></svg>